<?xml version="1.0" standalone="no"?>
<!DOCTYPE svg PUBLIC "-//W3C//DTD SVG 1.1//EN" "http://www.w3.org/Graphics/SVG/1.1/DTD/svg11.dtd" >
<svg xmlns="http://www.w3.org/2000/svg">
<metadata></metadata>
<defs>
<font id="opendyslexicbold" horiz-adv-x="1334" >
<font-face units-per-em="2048" ascent="1638" descent="-410" />
<missing-glyph horiz-adv-x="800" />
<glyph unicode="&#xfb01;" horiz-adv-x="1393" d="M150 921v199h164v35q0 187 96 280q92 87 273 119l216 23v-213l-197 -45q-78 0 -103 -36v1q-28 -43 -28 -109v-55h643l29 -1120h-295l19 921h-395q9 -268 14 -461q4 -155 7 -234q3 -135 6 -226h-305l20 921h-164zM967 1233v292h248v-292h-248z" />
<glyph unicode="&#xfb02;" horiz-adv-x="1460" d="M150 912v208h159l6 38q0 190 91 281q88 88 285 88h515v-1258q70 2 103 2l1 -271h-351v1328h-270q-76 0 -102 -26v1q-25 -25 -25 -106l7 -77h276v-208h-271l56 -912h-354l28 912h-154z" />
<glyph horiz-adv-x="0" />
<glyph unicode="&#xd;" horiz-adv-x="2048" />
<glyph horiz-adv-x="450" />
<glyph horiz-adv-x="450" />
<glyph unicode=" "  horiz-adv-x="800" />
<glyph unicode="&#x09;" horiz-adv-x="800" />
<glyph unicode="&#xa0;" horiz-adv-x="800" />
<glyph unicode="!" horiz-adv-x="634" d="M150 449l20 372v-1v644l272 4l10 -646l32 -373h-334zM158 0l24 312h268l24 -312h-316z" />
<glyph unicode="&#x22;" horiz-adv-x="1031" d="M150 846l60 622h240l12 -622h-312zM571 846l11 622h241l58 -622h-310z" />
<glyph unicode="#" horiz-adv-x="1682" d="M150 386v218h337l59 237h-290v218h346q6 24 22 91t25 105q7 30 47 192h229l-97 -388h195l99 388h225l-96 -388h281v-218h-335q-12 -50 -14 -60q-18 -74 -28 -113q-2 -7 -8 -29t-9 -35h287v-218h-341l-97 -386h-227l96 386h-196l-96 -386h-227l97 386h-284zM716 604h195 l58 237h-195z" />
<glyph unicode="$" horiz-adv-x="1278" d="M150 116l4 316q216 -141 382 -158q0 13 0.5 38t1.5 38q0 12 1 36t1 36q0 48 1 73q1 13 1.5 39t0.5 39q-182 39 -273 123q-100 96 -106 249q3 162 106 256.5t293 111.5l4 222l169 -2l-5 -218q148 -11 327 -73l-5 -232q-180 97 -324 112q0 -16 -0.5 -46.5t-1.5 -45.5 q-1 -29 -1 -88q-1 -15 -1.5 -44.5t-0.5 -44.5q-1 -15 -1.5 -46.5t-0.5 -47.5q204 -39 301.5 -123.5t104.5 -242.5q-3 -176 -124 -276q-113 -90 -264 -105l14 -287l-248 4l22 282q-183 17 -378 105zM371 945q0 -120 167 -162l7 331q-77 -16 -125.5 -61t-48.5 -108zM715 530 l8 -257q67 12 109 29q37 16 37 73q0 59 -37 96.5t-117 58.5z" />
<glyph unicode="%" horiz-adv-x="1980" d="M150 1077q0 187 96 301q100 115 263 115t261.5 -114t98.5 -302q0 -190 -97.5 -303.5t-262.5 -113.5q-166 0 -262.5 113t-96.5 304zM373 1083q0 -104 36 -161.5t100 -57.5t100 57.5t36 161.5q0 100 -36.5 158.5t-99.5 58.5t-99.5 -58t-36.5 -159zM414 -27l925 1520h237 l-925 -1520h-237zM1112 389q0 189 98 303t262 114t261 -113.5t97 -303.5q0 -191 -97 -301q-97 -115 -261 -115q-167 0 -263.5 112.5t-96.5 303.5zM1336 408q0 -96 36 -150.5t100 -54.5q62 0 98 54.5t36 150.5t-36 150.5t-98 54.5q-64 0 -100 -54t-36 -151z" />
<glyph unicode="&#x26;" horiz-adv-x="1738" d="M150 468q0 241 236 429q-77 115 -77 224q0 167 116 271h-1q113 101 301 101q165 0 362 -85l-100 -203q-191 104 -309 104q-82 0 -135 -44v1q-48 -40 -48 -106q0 -37 23 -78l-1 1q26 -43 108 -128h-1l478 -471q32 62 43 116q17 86 23 222h250q-9 -97 -15 -144 q-8 -68 -21 -143q-24 -124 -95 -228l301 -307h-341l-121 124q-190 -151 -428 -151t-393 137q-155 140 -155 358zM358 513q0 -120 89.5 -201t223.5 -81q144 0 258 84l-443 457q-128 -125 -128 -259z" />
<glyph unicode="'" horiz-adv-x="534" d="M150 875v593h234v-593h-234z" />
<glyph unicode="(" horiz-adv-x="907" d="M150 675q36 424 372 858l235 -19q-325 -458 -342 -858q5 -127 13 -213.5t28 -206t60.5 -240.5t101.5 -252l-282 18q-186 461 -186 913z" />
<glyph unicode=")" horiz-adv-x="908" d="M150 -211q309 439 352 865q0 208 -33 419q-35 220 -162 488l232 -20q134 -263 175 -477v1q43 -225 44 -430q0 -217 -90 -430q-92 -210 -213 -434z" />
<glyph unicode="*" horiz-adv-x="1244" d="M150 852l308 167q-31 17 -90 49.5t-67 36.5q-127 70 -151 82l91 158l291 -176v324h181v-324q72 43 147 90q40 25 142 86l92 -158l-308 -168q241 -131 308 -167l-93 -157l-288 176v-324h-181v324q-98 -60 -147 -89q-11 -7 -63 -39t-79 -48z" />
<glyph unicode="+" horiz-adv-x="1571" d="M150 520v233h520v520h231v-520h520v-233h-520v-520h-231v520h-520z" />
<glyph unicode="," horiz-adv-x="718" d="M150 -269l109 343v228h309v-247l-227 -324h-191z" />
<glyph unicode="-" horiz-adv-x="888" d="M150 446l9 228l579 11l-9 -229z" />
<glyph unicode="." horiz-adv-x="603" d="M100 0v376h353v-376h-353z" />
<glyph unicode="/" horiz-adv-x="1082" d="M150 -176l566 1627l216 -6l-488 -1631z" />
<glyph unicode="0" horiz-adv-x="1337" d="M150 733q11 375 143 565q134 195 385 195q252 0 380.5 -194t128.5 -567q-10 -372 -143.5 -565.5t-384.5 -193.5q-252 0 -380.5 193.5t-128.5 566.5zM423 868q0 -250 60 -372l-1 1q53 -104 177 -104q121 0 190 126q65 118 85 352q0 473 -256 473q-255 0 -255 -476z" />
<glyph unicode="1" horiz-adv-x="1204" d="M150 1146v248l368 74h228v-1132h308v-336h-877v336h308v877z" />
<glyph unicode="2" horiz-adv-x="1259" d="M150 0v326q200 164 326 259q167 125 209 175q87 99 120 164q33 68 33 122q0 94 -67.5 154t-176.5 60q-166 0 -435 -150v279q262 104 431 104q230 0 370 -116q142 -121 142 -319q0 -93 -36 -177q-32 -81 -123 -191q-24 -27 -49 -53q-38 -41 -100 -106q-94 -96 -132 -186 h447v-345h-959z" />
<glyph unicode="3" horiz-adv-x="1292" d="M150 52v387q206 -121 404 -121q163 0 245 70q81 69 81 101q0 82 -78 139.5t-212 57.5h-199v230h207q121 0 185 45.5t64 132.5q0 89 -66 137t-191 48q-153 0 -398 -84v230q236 68 415 68q232 0 363 -106v1q139 -108 139 -293q0 -201 -170 -299q67 -28 118 -85 q85 -103 85 -250q0 -242 -151 -366q-151 -122 -432 -122q-181 0 -409 79z" />
<glyph unicode="4" horiz-adv-x="1390" d="M150 394v164l598 910h294l9 -843h189v-231h-188q1 -31 5 -97l6 -102q1 -34 5 -100q1 -18 2.5 -49.5t1.5 -45.5h-332l20 394h-610zM410 625h360l8 577z" />
<glyph unicode="5" horiz-adv-x="1276" d="M150 43v382q213 -116 401 -116q147 0 224 75q79 73 79 128q0 125 -78.5 188t-224.5 63q-148 0 -342 -90v795h815v-215h-586v-275q86 18 145 18q247 0 395 -139t148 -373q0 -242 -151 -376.5t-421 -134.5q-179 0 -404 70z" />
<glyph unicode="6" horiz-adv-x="1337" d="M150 733q0 344 167 552t448 208q142 0 331 -67v-257q-188 91 -324 91q-290 0 -349 -359q115 95 273 95q225 0 358 -139q133 -141 133 -373q0 -231 -138 -371t-365 -140q-262 0 -398 196t-136 564zM446 484q0 -77 62 -121.5t176 -44.5t176 44.5t62 121.5q0 137 -63 212.5 t-175 75.5t-175 -75.5t-63 -212.5z" />
<glyph unicode="7" horiz-adv-x="1261" d="M150 1253v215h961v-123l-356 -1345h-421l514 1253h-698z" />
<glyph unicode="8" horiz-adv-x="1368" d="M150 429q0 147 96 251q62 67 140 101q-166 94 -166 314q0 169 124 274.5t340 105.5q221 0 343 -107q121 -109 121 -273q0 -220 -165 -314q44 -20 82.5 -48.5t74.5 -71t57 -102.5t21 -130q0 -218 -143.5 -337t-390.5 -119q-244 0 -387 117q-147 118 -147 339zM433 448 q0 -60 69.5 -113.5t181.5 -53.5q121 0 188 58h-1q65 57 65 109q0 111 -65 171.5t-187 60.5t-186.5 -60.5t-64.5 -171.5zM464 1133q0 -91 57.5 -141.5t162.5 -50.5q104 0 162.5 50.5t58.5 141.5q0 68 -37.5 106.5t-88.5 54.5q-39 13 -95 13q-107 0 -166 -52h1 q-55 -49 -55 -122z" />
<glyph unicode="9" horiz-adv-x="1336" d="M150 982q0 231 137 370q137 141 365 141q260 0 397 -195t137 -565q0 -227 -75 -399t-214.5 -266.5t-325.5 -94.5q-143 0 -332 67v369q188 -91 324 -91q171 0 263 63q62 44 86 186q-115 -95 -272 -95q-225 0 -359 137q-131 137 -131 373zM337 1012q0 -128 66 -152 q84 -33 233 -33q147 0 231 33q67 24 67 152q0 133 -80 210t-218 77q-139 0 -219 -76.5t-80 -210.5z" />
<glyph unicode=":" horiz-adv-x="618" d="M150 0v360h318v-360h-318zM150 762v340h318v-340h-318z" />
<glyph unicode=";" horiz-adv-x="692" d="M150 -306l95 373v211h293v-225l-183 -359h-205zM241 749v349h301v-349h-301z" />
<glyph unicode="&#x3c;" horiz-adv-x="1629" d="M150 567l22 263l1307 348l-22 -249l-913 -237l858 -391l-26 -304z" />
<glyph unicode="=" horiz-adv-x="1571" d="M150 329v261h1271v-261h-1271zM150 711v232h1271v-232h-1271z" />
<glyph unicode="&#x3e;" horiz-adv-x="1629" d="M150 115l27 305l910 236l-855 392l21 248l1226 -570l-22 -263z" />
<glyph unicode="?" horiz-adv-x="1109" d="M150 1132v239q202 122 401 122q189 0 296 -100q112 -102 112 -266q0 -84 -49 -157q-47 -69 -122 -148q-7 -7 -18 -20t-15 -17q-33 -36 -35 -38q-4 -5 -10.5 -16t-9.5 -17q-32 -48 -35 -53q-7 -9 -10 -21q-9 -27 -9 -114v-152h-319v181q0 99 29 174q32 77 120 159l94 84 q85 71 102 90q27 27 32 56q0 67 -52 122q-48 54 -133 54q-133 0 -369 -162zM322 -9v339h320v-339h-320z" />
<glyph unicode="@" horiz-adv-x="2027" d="M150 544q0 177 66 337t190 284q126 125 290 190.5t348 65.5q206 0 382.5 -85t299.5 -242q151 -197 151 -443q0 -262 -160 -415q-87 -84 -221 -123l116 -232q-276 -213 -582 -213q-369 0 -624 249q-256 250 -256 627zM356 544q0 -140 49 -222h-1q47 -80 170 -213 q92 -90 201 -123q111 -35 255 -35q239 0 450 157q-98 -26 -236 -31v89q-101 -84 -260 -84q-177 0 -287.5 127.5t-110.5 329.5t110 327q112 130 288 130q157 0 260 -85v66h208v-677q88 25 146 99q70 100 70 248q0 186 -110 326q-94 116 -225 177t-287 61q-222 0 -395 -114 q-140 -92 -217.5 -237.5t-77.5 -315.5zM782 615q0 -103 55 -160.5t156 -57.5q99 0 154 58t55 160q0 101 -57.5 159.5t-153.5 58.5q-95 0 -153 -58q-56 -61 -56 -160z" />
<glyph unicode="A" horiz-adv-x="1710" d="M150 0l590 1493h231l589 -1493h-362l-53 231h-581l-72 -231h-342zM647 532h417l-209 626l-26.5 -79.5t-25.5 -77.5q-9 -25 -25.5 -75.5t-24.5 -76.5q-7 -20 -25 -72.5t-27 -81.5q-23 -70 -54 -163z" />
<glyph unicode="B" horiz-adv-x="1400" d="M150 0v1493h481q237 0 366 -101q128 -101 128 -287q0 -216 -145 -297q270 -98 270 -373q0 -206 -149 -320.5t-404 -114.5h-547zM418 357h270q146 0 209 39h-1q57 34 57 145q0 30 -61 81q-64 55 -204 55h-270v-320zM418 908h246q240 0 240 176q0 94 -59.5 149t-180.5 55 h-246v-380z" />
<glyph unicode="C" horiz-adv-x="1518" d="M150 745q0 356 181 557.5t519 216.5q39 2 75 2q101 -1 185 -15q112 -20 258 -90v-310q-159 109 -268.5 144t-238.5 35q-222 0 -327.5 -136t-105.5 -404q4 -223 114 -314.5t349 -91.5q230 0 477 229v-441q-227 -155 -488 -155q-338 0 -534 208t-196 565z" />
<glyph unicode="D" horiz-adv-x="1567" d="M150 0v1493h432q420 0 630 -181q205 -190 205 -564q0 -382 -206 -567q-205 -181 -629 -181h-432zM427 433h193q280 0 384 70q47 38 85.5 107.5t58.5 159.5q0 247 -128 368q-129 122 -400 122h-193v-827z" />
<glyph unicode="E" horiz-adv-x="1289" d="M150 0v1493h972v-237h-704v-344h674v-237h-674v-305h721v-370h-989z" />
<glyph unicode="F" horiz-adv-x="1201" d="M150 0l50 1493h851v-247h-586q-1 -22 -3.5 -78t-4.5 -86q-2 -28 -9 -168h552v-275h-542l19 -639h-327z" />
<glyph unicode="G" horiz-adv-x="1614" d="M150 745q0 363 198.5 568.5t546.5 205.5q295 0 522 -142v-288q-252 215 -506 215q-482 0 -483 -538q12 -243 120 -325h-1q116 -83 364 -83q100 0 174 16h-1q57 14 85 35v118h-303v261h598v-638q-250 -178 -569 -178q-349 0 -548 205q-197 209 -197 568z" />
<glyph unicode="H" horiz-adv-x="1476" d="M150 0l19 1493h278v-676h582v676h278l19 -1493h-297v476h-582v-476h-297z" />
<glyph unicode="I" horiz-adv-x="607" d="M150 0l31 1493h257l19 -1493h-307z" />
<glyph unicode="J" horiz-adv-x="969" d="M150 0l135 -30q107 6 155 51q46 43 48 90l54 1386l277 -17l-53 -1384q-6 -272 -115 -385q-110 -117 -354 -121l-147 15v395z" />
<glyph unicode="K" horiz-adv-x="1574" d="M150 0l40 1493h267l-17 -548l581 548h357l-745 -700l791 -793h-563l-417 590q4 -70 9 -147q12 -196 17 -302q3 -44 7 -141h-327z" />
<glyph unicode="L" horiz-adv-x="1270" d="M150 0l20 1493h267l-9 -1123h692l-23 -370h-947z" />
<glyph unicode="M" horiz-adv-x="1772" d="M150 0l60 1493h348l328 -723l347 723h329l60 -1493h-352l32 1027l-274 -802h-285l-274 804q2 -85 7.5 -257.5t8.5 -260.5q3 -94 8.5 -266t7.5 -245h-351z" />
<glyph unicode="N" horiz-adv-x="1468" d="M150 0l39 1465h299l552 -1014l26 1042h252v-1493h-338l-559 1054q5 -95 14 -273.5t12 -256.5q11 -246 24 -524h-321z" />
<glyph unicode="O" horiz-adv-x="1688" d="M150 745q0 349 188 561q190 213 507 213q315 0 505 -213q188 -212 188 -561t-188 -561q-192 -212 -505 -212q-316 0 -507 212q-188 212 -188 561zM428 745q0 -196 104 -263q117 -69 313 -69q105 0 177.5 15t128 51.5t82 102.5t26.5 163q0 255 -111.5 398.5t-302.5 143.5 q-183 0 -303 -141q-114 -152 -114 -401z" />
<glyph unicode="P" horiz-adv-x="1340" d="M150 0l61 1493h459q258 0 389 -116.5t131 -344.5q0 -229 -134 -354q-130 -127 -386 -127h-195l-19 -551h-306zM468 879h220q126 0 194 59t68 170q0 109 -68 168t-194 59h-203q-1 -33 -3.5 -109.5t-4.5 -116.5q-2 -37 -9 -230z" />
<glyph unicode="Q" horiz-adv-x="1800" d="M150 745q0 232 85 407.5t243 271t367 95.5q207 0 364.5 -95.5t242.5 -271.5t85 -407q0 -255 -80 -407q-73 -135 -141 -217l334 -372h-553l-198 225q-30 -2 -37 -2h-27q-307 0 -496 211.5t-189 561.5zM428 745q0 -196 103 -257q113 -64 195 -75l65 -11q4 8 21 35 q3 7 10.5 19.5t11.5 18.5q5 9 22 36q6 10 18 31q127 -58 238 -76q147 86 147 279q0 253 -112 397.5t-302 144.5q-183 0 -303 -141q-114 -152 -114 -401z" />
<glyph unicode="R" horiz-adv-x="1503" d="M150 0v1493h471q236 0 361 -110q130 -115 130 -336q0 -121 -44 -209.5t-126 -137.5q94 -72 189 -258q32 -64 112 -222q62 -122 110 -220h-359l-153 387l1 -3q-64 131 -121 173t-161 42h-105v-599h-305zM436 870h204q98 0 179.5 55.5t81.5 121.5q0 76 -22 131t-60.5 83.5 t-82.5 41.5t-96 13h-204v-446z" />
<glyph unicode="S" horiz-adv-x="1373" d="M150 1076q0 206 144.5 324.5t390.5 118.5q202 0 453 -83v-274q-266 125 -431 125q-139 0 -214 -50.5t-75 -144.5q0 -78 43 -114l-1 1q50 -43 197 -70l117 -23h-1q230 -44 340 -156t110 -301q0 -224 -147.5 -340.5t-433.5 -116.5q-212 0 -487 102v394q288 -160 487 -160 q152 0 232 58q73 52 73 96q0 38 -52 88q-55 48 -192 79l-117 23q-226 43 -331 145t-105 279z" />
<glyph unicode="T" horiz-adv-x="1575" d="M150 1255v238h1275v-239l-502 20l38 -1274h-347l38 1274z" />
<glyph unicode="U" horiz-adv-x="1461" d="M150 570v923h269v-766q0 -213 74 -305v1q71 -86 238 -86t238 86v-1q74 92 74 305v766h268v-923q0 -297 -146 -447.5t-434 -150.5q-287 0 -434 151.5t-147 446.5z" />
<glyph unicode="V" horiz-adv-x="1705" d="M150 1493h279l424 -1000l424 1000h278l-518 -1493h-368z" />
<glyph unicode="W" horiz-adv-x="2191" d="M150 1493h260l270 -961q61 122 152 297q103 202 149 293h217l276 -607q21 66 72.5 236t80.5 260q100 315 152 482h262l-376 -1493h-336l-235 678q-37 -101 -128 -346q-92 -246 -127 -332h-355z" />
<glyph unicode="X" horiz-adv-x="1662" d="M150 0l516 702l-442 791h293l331 -565l332 565h294l-459 -793l497 -700h-407l-273 470l-274 -470h-408z" />
<glyph unicode="Y" horiz-adv-x="1619" d="M150 1493h291l370 -684l367 684h291l-497 -980v-513h-335v513z" />
<glyph unicode="Z" horiz-adv-x="1533" d="M150 0v323l848 933h-826v237h1189v-199l-848 -933h870v-361h-1233z" />
<glyph unicode="[" horiz-adv-x="770" d="M150 -252v1779h470v-208h-224v-1288h224v-283h-470z" />
<glyph unicode="\" horiz-adv-x="987" d="M150 1469l237 -7l450 -1664l-275 11z" />
<glyph unicode="]" horiz-adv-x="771" d="M150 21h223v1298h-223v208h471v-1779h-471v273z" />
<glyph unicode="^" horiz-adv-x="1677" d="M150 874l601 594h175l601 -594h-399l-290 398l-289 -398h-399z" />
<glyph unicode="_" horiz-adv-x="1368" d="M150 -209h1068v-242h-1068v242z" />
<glyph unicode="`" horiz-adv-x="886" d="M150 1603h266l320 -423h-352z" />
<glyph unicode="a" horiz-adv-x="1258" d="M150 342q0 393 508 393h202q-7 91 -74 145t-186 64q-168 0 -373 -111v227q218 85 393 85q245 0 366.5 -127t121.5 -384v-634h-247v86q-124 -113 -323 -113q-175 0 -282 100q-106 103 -106 269zM369 389q11 -52 49 -63q59 -17 146 -17q49 0 79 4.5t56 17t39 37.5t20 64.5 t7 100.5v1h-117q-179 0 -231 -37q-47 -31 -48 -108z" />
<glyph unicode="b" horiz-adv-x="1310" d="M169 1527h248l-15 -488q106 106 293 106q207 0 336 -162.5t129 -423.5t-129 -423.5t-336 -162.5q-188 0 -297 110l-205 127zM480 595q18 -122 78.5 -181t173.5 -60q97 6 165 55q56 49 79 192q-6 165 -68 260q-57 87 -173 87q-114 0 -185 -88q-68 -93 -70 -265z" />
<glyph unicode="c" horiz-adv-x="1202" d="M150 559q0 271 151 428.5t412 157.5q166 0 339 -79v-237q-190 105 -331 105q-148 0 -226 -97t-80 -274q14 -119 75 -163q67 -43 225 -57h147q71 2 185 68l5 -357q-172 -81 -350 -81q-251 0 -401.5 160.5t-150.5 425.5z" />
<glyph unicode="d" horiz-adv-x="1327" d="M150 559q0 261 128 423.5t337 162.5q185 0 300 -113l17 495h245l-18 -1527h-247v83q-109 -110 -297 -110q-209 0 -337 162.5t-128 423.5zM345 583q18 -124 74 -174v1q56 -50 176 -50q67 0 107 8t71 32t44.5 69.5t15.5 120.5q-6 169 -62 259q-60 96 -171 96 q-116 0 -185 -93l1 1q-70 -98 -71 -270z" />
<glyph unicode="e" d="M150 551q9 274 154.5 434t396.5 160q225 -9 345 -123h-1q119 -113 139 -351v-105h-779q12 -148 82 -200q82 -51 251 -64q99 0 187 7q86 7 224 80l5 -324q-221 -92 -426 -92q-263 9 -421 160q-157 153 -157 418zM426 790l524 1q-23 53 -73 113q-66 76 -176 76 q-129 0 -204 -76v1q-57 -57 -71 -115z" />
<glyph unicode="f" horiz-adv-x="994" d="M150 875v245h158l6 38q2 193 100 271h-1q95 79 235 79l186 -22v-219l-192 24q-53 -2 -65 -17q-16 -16 -16 -98q0 -3 0.5 -6.5t1 -6t0.5 -3.5q0 -2 0.5 -5.5t1.5 -5.5q0 -7 1 -11q1 -3 1.5 -9t0.5 -9h276v-245h-272q9 -250 14 -439q5 -184 14 -436h-324l27 875h-153z" />
<glyph unicode="g" horiz-adv-x="1328" d="M150 572q0 256 127 414.5t337 158.5q200 0 309 -121q3 17 7 51q1 10 2.5 25.5t1.5 19.5h244l-29 -954q-13 -351 -137 -486q-131 -143 -391 -143q-183 0 -364 66v395q191 -105 337 -105q145 0 220 81q40 46 70 110q-25 -18 -52 -34q-92 -50 -218 -50q-210 0 -337 158 t-127 414zM327 586q17 -164 62 -200q55 -33 180 -33q43 0 70 1.5t58.5 6.5t50 14.5t38 26t29.5 40.5t16 59t6 81q0 169 -66 263q-67 92 -189 92q-187 0 -237 -199q-17 -68 -18 -152z" />
<glyph unicode="h" horiz-adv-x="1290" d="M150 0l39 1527h248l-17 -498q116 116 298 116q199 0 300.5 -120.5t101.5 -356.5v1l20 -669h-286l20 664v-1q0 133 -49.5 205t-145.5 72q-120 0 -191 -86t-71 -225q7 -248 10 -315q3 -72 10 -314h-287z" />
<glyph unicode="i" horiz-adv-x="550" d="M150 1235l12 292h226l12 -292h-250zM152 0l9 1120h228l9 -1120h-246z" />
<glyph unicode="j" horiz-adv-x="875" d="M150 -398l5 333l108 -1q83 5 109 34q14 15 21 55q6 33 8 104l47 989l236 -4l-38 -1102q-6 -215 -92 -307q-87 -96 -272 -102zM475 1235l12 292h226l12 -292h-250z" />
<glyph unicode="k" horiz-adv-x="1387" d="M150 0l39 1527h247l-9 -757l299 350h314l-422 -523q27 -27 82.5 -79.5t68.5 -65.5q27 -26 80 -77.5t80 -77.5q54 -52 160 -154q111 -107 148 -143h-465l-339 417l23 -417h-306z" />
<glyph unicode="l" horiz-adv-x="673" d="M150 0l20 1527h237v-1240h116v-287h-373z" />
<glyph unicode="m" horiz-adv-x="1940" d="M150 0l39 1120h250l-7 -76q110 101 283 101q122 0 223 -63q73 -49 112 -121q63 91 140 137.5t202 46.5q182 0 280 -124t98 -353v1q7 -260 10 -334q2 -73 10 -335h-317l50 693q0 141 -32.5 198.5t-118.5 57.5q-112 0 -176.5 -88.5t-64.5 -233.5l-11 -627h-315l69 704 q-1 130 -44.5 192.5t-135.5 62.5q-112 0 -184 -94q-75 -97 -75 -236q7 -248 10 -315q3 -72 10 -314h-305z" />
<glyph unicode="n" horiz-adv-x="1318" d="M150 0l30 1129h246v-89q14 9 89 54q94 51 211 51q193 0 296.5 -122t115.5 -353l30 -670h-325l39 674q0 132 -41 194.5t-134 62.5q-272 0 -272 -292l30 -639h-315z" />
<glyph unicode="o" d="M150 559q0 273 136 428q137 158 381 158q240 0 378.5 -157.5t138.5 -428.5t-138.5 -428.5t-378.5 -157.5q-245 0 -381 159q-136 154 -136 427zM405 589q0 -64 11.5 -108.5t30.5 -71t54 -41.5t72 -19.5t94 -4.5q120 0 197 44q63 40 63 201q0 167 -70.5 261t-189.5 94 q-120 0 -191 -94.5t-71 -260.5z" />
<glyph unicode="p" horiz-adv-x="1329" d="M150 -398l39 1518h250l-6 -71q108 96 281 96q207 0 336 -163.5t129 -422.5t-129 -422.5t-336 -163.5q-185 0 -300 113l-17 -484h-247zM485 589q0 -83 17 -136t54.5 -79t81 -35t111.5 -9q69 0 110 8.5t74.5 35t47.5 79t14 136.5q0 174 -72 274q-67 94 -183 94 q-115 0 -185 -94l1 1q-71 -98 -71 -275z" />
<glyph unicode="q" horiz-adv-x="1545" d="M150 559q0 261 128 423.5t337 162.5q199 0 308 -121q6 42 12 96h243l-53 -1036q-1 -13 2 -43t6 -35l91 -132q4 -6 20 -29t22 -32t20.5 -29.5t22.5 -30t21.5 -25.5t22.5 -25t20.5 -18t21.5 -14l-185 -50q-72 -19 -104 -19h-213l16 477q-56 -56 -126.5 -81t-167.5 -25 q-209 0 -337 162.5t-128 423.5zM338 583q0 -66 11 -111.5t29 -72.5t51.5 -41.5t68.5 -19t90 -4.5q127 0 197 43q64 37 64 206q0 174 -71 275q-70 93 -185 93t-185 -93l1 1q-71 -101 -71 -276z" />
<glyph unicode="r" horiz-adv-x="979" d="M150 0l50 1111h227v-74q20 13 27 16q15 7 30 18v-1q96 57 230 57q28 0 114 -16l1 -273q-57 33 -96 44q-25 7 -70 7q-124 0 -178 -83v1q-58 -91 -58 -246l20 -561h-297z" />
<glyph unicode="s" horiz-adv-x="1174" d="M150 49v340q237 -123 408 -123q100 0 147 24q47 23 49 70q-29 49 -44 65q-18 18 -162 49l-60 14h1q-173 35 -252 106t-79 206q0 167 113.5 256t325.5 89q203 0 371 -68v-230q-194 98 -351 98q-110 0 -169 -33.5t-59 -94.5q0 -51 37 -79h-1q43 -32 174 -62q22 -5 29 -7 q13 -4 28 -6q188 -40 278 -115q90 -81 90 -222q0 -163 -127.5 -258t-341.5 -95q-174 0 -405 76z" />
<glyph unicode="t" horiz-adv-x="1027" d="M150 912v208h127l9 259h257l-9 -259h240v-208h-241l-10 -419q0 -113 25 -137q23 -26 115 -26h214v-330h-214q-215 0 -305.5 85.5t-90.5 296.5l9 530h-126z" />
<glyph unicode="u" horiz-adv-x="1260" d="M150 450v670h218v-512q8 -132 54.5 -197t139.5 -65q123 0 187 76q65 73 76 220l11 478h274l-20 -1120h-249l5 85q-115 -112 -292 -112q-199 0 -301.5 121t-102.5 356z" />
<glyph unicode="v" horiz-adv-x="1425" d="M150 1120h261l301 -707q32 77 152 355q88 206 150 352h261l-409 -1120h-306z" />
<glyph unicode="w" horiz-adv-x="1800" d="M150 1120h249l196 -667l162 322h287l163 -322q12 41 45.5 156.5t52.5 179.5q83 283 97 331h248l-293 -1120h-294l-163 412l-172 -412h-285z" />
<glyph unicode="x" horiz-adv-x="1512" d="M150 0l449 540l-384 580h272l268 -400l71.5 97.5t76.5 103.5q87 115 147 199h262l-391 -590q46 -56 107 -128q76 -92 115 -138q13 -16 53 -63.5t61 -73.5q85 -103 105 -127h-377l-221 335l-237 -335h-377z" />
<glyph unicode="y" horiz-adv-x="1429" d="M150 1120h260l345 -567l265 567h259l-460 -1194q-47 -106 -90.5 -173.5t-92.5 -104.5t-98 -50.5t-118 -13.5h-193v302h157q56 0 86 24q39 34 77 83q6 13 34 66q17 31 33 66q-82 176 -114 244q-48 102 -236 507q-32 68 -114 244z" />
<glyph unicode="z" horiz-adv-x="1223" d="M150 0v302l613 615h-571v203h881v-209l-544 -606h534v-305h-913z" />
<glyph unicode="{" horiz-adv-x="1130" d="M150 505l2 208l92 -1q122 8 161 44q39 37 42 161l3 224q1 76 10.5 130.5t31.5 96.5t53 68.5t81 44t111 25t146 9.5l97 -1l-4 -208l-99 1q-37 -2 -57 -3.5t-42 -6.5t-32 -8t-21 -14.5t-14 -20t-7 -30t-4.5 -39l-1.5 -52.5v1l-4 -232q-3 -155 -53 -232q-29 -44 -75 -69 q44 -29 69 -75v1q41 -75 48 -211l-4 -230q8 -87 33 -113q23 -29 139 -32l100 -1l-2 -265l-96 1q-238 4 -332 86q-83 88 -89 303l3 221q-6 132 -41.5 173.5t-150.5 44.5h-20q-18 0 -27 1h-26h-20z" />
<glyph unicode="|" horiz-adv-x="621" d="M150 -451l50 1017h232l-29 -1017h-253zM197 591l40 944h234l-40 -944h-234z" />
<glyph unicode="}" horiz-adv-x="1113" d="M150 -93h103q62 0 92.5 4.5t50.5 25t24.5 52t4.5 94.5v232q0 148 48 223q30 44 74 70q-44 26 -74 70q-48 75 -48 233v231q0 62 -5 94t-25 52.5t-51 25.5t-91 5h-103v208h96q248 0 335 -78h-1q92 -81 92 -303v-224q0 -125 40 -168v1q40 -42 156 -42h95v-208h-95 q-117 0 -156.5 -42.5t-39.5 -169.5v-223q0 -223 -92 -303h1q-85 -79 -335 -79h-96v219z" />
<glyph unicode="~" horiz-adv-x="1571" d="M150 364v294q107 82 204 120q93 37 189 37q106 0 253 -59l14 -6q3 -1 11 -3q8 -4 11 -5q140 -54 217 -54q73 0 161.5 45t210.5 145v-244q-56 -44 -103 -76q-72 -51 -96 -66v1q-95 -62 -194 -62q-112 0 -256 87l-12 5l-20 6q-137 75 -219 75q-70 0 -140 -52 q-32 -23 -113 -90q-85 -69 -118 -98z" />
<glyph unicode="&#xa1;" horiz-adv-x="622" d="M150 0l10 650l22 369h259l21 -369l10 -650h-322zM160 1138v330h302v-330h-302z" />
<glyph unicode="&#xa2;" horiz-adv-x="1211" d="M150 560q4 253 140 405q126 142 343 167q1 59 3 137q0 23 0.5 67.5t1.5 66.5l170 -2l-4 -272q131 -17 257 -78l-2 -220q-167 96 -259 108l-12 -678q103 16 262 96l-6 -320q-130 -55 -261 -71q-1 -22 -1.5 -67t-0.5 -68q-2 -78 -3 -133l-169 1l4 274q-212 30 -337 176 q-129 156 -126 411zM407 554q2 -126 64 -197h-1q52 -62 147 -86l13 662q-97 -28 -158 -127q-59 -98 -65 -252z" />
<glyph unicode="&#xa3;" horiz-adv-x="1322" d="M150 1l8 280l220 -5q1 57 5 164q2 59 4 168l-185 3l4 190l186 -3l6 185q6 259 119 375q112 118 346 124q123 -2 309 -73l-6 -258q-187 103 -288 107q-65 -4 -102.5 -16.5t-65 -46t-38.5 -89t-14 -150.5l-4 -163q171 -3 184 -3q34 -1 95 -2.5t85 -1.5l-4 -190l-365 8 q-2 -105 -4 -163q-6 -152 -6 -168l520 -10l-7 -280z" />
<glyph unicode="&#xa4;" horiz-adv-x="1448" d="M150 221l199 199q-60 112 -60 216q0 110 61 214l-15 15l-18 18l-16 16l-52 52q-34 34 -50 51q-32 32 -47 46l160 160l198 -198q100 61 214 61q106 0 217 -60l199 200l158 -159l-198 -198q59 -106 59 -218q0 -113 -62 -215l200 -199l-159 -157l-198 198q-104 -62 -216 -62 q-108 0 -217 59l-200 -199zM510 637q0 -92 61 -153v1q62 -62 153 -62t152 61h-1q63 63 63 153t-61.5 150.5t-152.5 60.5q-89 0 -151.5 -60.5t-62.5 -150.5z" />
<glyph unicode="&#xa5;" horiz-adv-x="1504" d="M150 1468h280l322 -611q8 15 68 130t93 177q24 46 77.5 148.5t81.5 155.5h282l-297 -547h222v-189h-324l-64 -117v-1h388v-227h-385q1 -27 5 -95q1 -16 3 -50t3 -50q1 -33 5 -99q1 -18 2.5 -49t1.5 -44h-323l28 387h-386v227h389q-7 11 -20 30.5l-19 28.5q-7 9 -41 59 h-327v189h223z" />
<glyph unicode="&#xa6;" horiz-adv-x="533" d="M150 -327v782h233v-782h-233zM150 629v782h233v-782h-233z" />
<glyph unicode="&#xa7;" horiz-adv-x="1156" d="M150 712q0 81 38 151t107 119q-84 89 -84 204q0 139 107 224q107 83 272 83q145 0 322 -66v-237q-198 94 -300 94q-74 0 -114 -27t-40 -76q0 -61 173 -159h-1l38 -21q204 -117 268 -192h-1q71 -83 71 -190q0 -167 -148 -270q87 -91 87 -204q0 -149 -107 -238t-282 -89 q-137 0 -332 64v285q207 -93 311 -93q83 0 123 18t40 66q0 53 -186 158l1 -1l-25 14q-139 77 -211 136t-99.5 114.5t-27.5 132.5zM375 763q0 -53 54 -106h-1q65 -58 269 -171q83 65 83 126q0 54 -56 107q-57 56 -266 170q-83 -65 -83 -126zM437 901l21 -12l19 14z" />
<glyph unicode="&#xa8;" horiz-adv-x="969" d="M150 1260v277h278v-277h-278zM541 1260v277h278v-277h-278z" />
<glyph unicode="&#xa9;" horiz-adv-x="1758" d="M150 729q0 148 58 283.5t155.5 234t232.5 156.5t283 58q118 0 229 -37t200.5 -105t157.5 -158t105 -201.5t37 -230.5q0 -147 -58 -282t-156 -233t-233 -156t-282 -58q-301 0 -515 216q-214 213 -214 513zM318 729q0 -214 165 -364l-5 3q183 -123 401 -123q221 0 402 123 l-3 -1q160 124 160 362q0 232 -162 397q-167 164 -397 164q-231 0 -395 -164q-166 -169 -166 -397zM429 729q0 210 127.5 334t345.5 124q139 0 293 -63v-179q-169 84 -282 84q-120 0 -188 -82q-69 -85 -69 -218q0 -85 73 -151.5t194 -66.5q105 0 272 85v-260 q-146 -66 -293 -66q-216 0 -344.5 124.5t-128.5 334.5z" />
<glyph unicode="&#xaa;" horiz-adv-x="1039" d="M150 920q0 292 391 292h129q-22 99 -178 99q-107 0 -285 -86v204q167 64 305 64q191 0 283 -90.5t92 -277.5v-456h-214v51q-90 -69 -225 -69q-133 0 -215.5 73.5t-82.5 195.5zM172 438v189h717v-189h-717zM352 992q0 -43 35.5 -68.5t95.5 -25.5q81 0 130 55q48 54 51 138 h-81q-142 0 -192 -27q-39 -21 -39 -72zM664 1091h37l-37 37v-27v-10z" />
<glyph unicode="&#xab;" horiz-adv-x="1281" d="M150 511l53 145l523 435l-10 -278l-270 -224q203 -193 257 -246l-63 -300zM555 497l53 145l523 435l-10 -279l-270 -224q87 -83 130 -123q46 -45 127 -122l-63 -300z" />
<glyph unicode="&#xac;" horiz-adv-x="1601" d="M150 626v253h1270l31 -611h-312l46 378q-77 -1 -250 -4.5t-268 -5.5q-96 -2 -270 -5.5t-247 -4.5z" />
<glyph unicode="&#xad;" horiz-adv-x="878" d="M150 447v228h578v-228h-578z" />
<glyph unicode="&#xae;" horiz-adv-x="1758" d="M150 729q0 148 58 283.5t155.5 234t232.5 156.5t283 58q118 0 229 -37t200.5 -105t157.5 -158t105 -201.5t37 -230.5q0 -147 -58 -282t-156 -233t-233 -156t-282 -58q-301 0 -515 216q-214 213 -214 513zM318 775q0 -137 75.5 -256t205 -189t280.5 -70q114 0 217.5 41 t178.5 110t119 164.5t44 199.5q0 204 -162 363q-81 72 -184 112t-213 40q-151 0 -280.5 -70t-205 -188.5t-75.5 -256.5zM557 315v855h303q185 0 274.5 -64t89.5 -197q0 -155 -146 -216q36 -44 81 -112l162 -266h-247l-132 213q-49 81 -79 102q-7 4 -11 8q-6 4 -8 5 q-3 2 -6 5h-15v-333h-266zM823 863h77q88 0 117.5 19.5t29.5 71.5q0 50 -33 71t-114 21h-77v-183z" />
<glyph unicode="&#xaf;" horiz-adv-x="932" d="M150 1286v213h632v-213h-632z" />
<glyph unicode="&#xb0;" horiz-adv-x="966" d="M150 1157q0 142 96 238q95 98 237 98t237 -100l-1 1q97 -94 97 -237q0 -138 -98 -236v1q-96 -96 -237 -96t-236 95t-95 236zM343 1220q0 -52 40.5 -87t99.5 -35t99.5 35t40.5 87q0 50 -40.5 87.5t-99.5 37.5q-58 0 -99 -37t-41 -88z" />
<glyph unicode="&#xb1;" horiz-adv-x="1571" d="M150 0v252h1271v-252h-1271zM150 679v233h520v361h231v-361h520v-233h-520v-362h-231v362h-520z" />
<glyph unicode="&#xb2;" horiz-adv-x="933" d="M150 623v157l103 93q309 275 309 344q0 45 -38 72.5t-101 27.5q-90 0 -267 -88v202q175 62 287 62q149 0 242 -71t93 -190q0 -145 -320 -420q0 -1 -1 -2l-1 -1q-1 -1 -2.5 -2t-3.5 -2h333v-182h-633z" />
<glyph unicode="&#xb3;" horiz-adv-x="952" d="M150 657v203q142 -74 259 -74q84 0 130.5 27t46.5 75q0 102 -168 102h-117v176h125q141 0 141 77q0 74 -145 74q-36 0 -90 -11q-68 -14 -155 -39v186q166 40 276 40q142 0 234 -61q95 -69 95 -179q0 -108 -93 -168q113 -67 113 -197q0 -135 -97.5 -207t-282.5 -72 q-110 0 -272 48z" />
<glyph unicode="&#xb4;" horiz-adv-x="953" d="M150 1139l347 464h306l-403 -464h-250z" />
<glyph unicode="&#xb5;" horiz-adv-x="1428" d="M150 1118l245 13l11 -502q0 -236 217 -236q240 0 240 276l10 451h246l-10 -842q0 -21 70 -25q7 1 31 12q4 2 27.5 11.5t40.5 17.5v-217q-4 -2 -22 -12q-15 -8 -28 -17l-30 -18q-11 -6 -29 -18h1q-60 -39 -105 -39q-122 0 -169 104q-109 -104 -260 -104q-142 0 -228 75 q0 -37 1.5 -112.5t2.5 -113.5q1 -41 2.5 -114.5t1.5 -105.5h-247z" />
<glyph unicode="&#xb6;" horiz-adv-x="1438" d="M150 1037q0 194 132.5 312.5t348.5 118.5h441l216 -1652h-417l9 1463h-102v-1463h-379l66 797q-94 28 -194 122q-121 112 -121 302z" />
<glyph unicode="&#xb7;" horiz-adv-x="571" d="M150 545v312h271v-312h-271z" />
<glyph unicode="&#xb8;" horiz-adv-x="761" d="M150 -125q105 -54 182 -54q74 0 74 50q0 23 -29 73q-26 43 -90 131h202q122 -140 122 -238q0 -206 -260 -206q-85 0 -201 31v213z" />
<glyph unicode="&#xb9;" horiz-adv-x="908" d="M150 1252v183l251 42h166v-676h191v-178h-591v178h191v489q-6 -1 -24 -4.5t-29 -5.5q-12 -2 -50 -9t-58 -11q-38 -7 -47 -8z" />
<glyph unicode="&#xba;" horiz-adv-x="1096" d="M150 1071q0 192 108.5 307t290.5 115q181 0 289 -115t108 -307t-107.5 -306t-289.5 -114t-290.5 115t-108.5 305zM190 438v189h717v-189h-717zM371 1149q0 -93 48 -144v1q51 -51 130 -51q81 0 129 52.5t48 141.5q0 90 -48 146q-48 51 -129 51q-83 0 -130.5 -51.5 t-47.5 -145.5z" />
<glyph unicode="&#xbb;" horiz-adv-x="1270" d="M150 386l279 223l-251 247l14 277l484 -479l40 -147l-530 -426zM554 365l279 222l-251 247l14 278l484 -479l40 -148l-530 -425z" />
<glyph unicode="&#xbc;" horiz-adv-x="2022" d="M150 1252v183l251 42h166v-676h191v-178h-591v178h191v489q-6 -1 -24 -4.5t-29 -5.5q-12 -2 -50 -9t-58 -11q-38 -7 -47 -8zM720 -27l915 1520h237l-915 -1520h-237zM1066 130v162l385 518h211v-504h126v-176h-126v-174h-210v174h-386zM1276 306h176v240z" />
<glyph unicode="&#xbd;" horiz-adv-x="2016" d="M150 1252v183l251 42h166v-676h191v-178h-591v178h191v489q-6 -1 -24 -4.5t-29 -5.5q-12 -2 -50 -9t-58 -11q-38 -7 -47 -8zM460 -27l915 1520h237l-915 -1520h-237zM1233 -44v157l103 93q309 274 309 344q0 45 -38 72.5t-101 27.5q-90 0 -267 -88v202q175 62 287 62 q149 0 242 -71t93 -190q0 -145 -320 -420q0 -1 -1 -2l-1 -1q-1 -1 -2.5 -2t-3.5 -2h333v-182h-633z" />
<glyph unicode="&#xbe;" horiz-adv-x="1893" d="M150 657v203q142 -74 259 -74q84 0 130.5 27t46.5 75q0 102 -168 102h-117v176h125q141 0 141 77q0 74 -145 74q-36 0 -90 -11q-68 -14 -155 -39v186q166 40 276 40q142 0 234 -61q95 -69 95 -179q0 -108 -93 -168q113 -67 113 -197q0 -135 -97.5 -207t-282.5 -72 q-110 0 -272 48zM415 -27l915 1520h237l-915 -1520h-237zM1021 130v162l385 518h211v-504h126v-176h-126v-174h-210v174h-386zM1231 306h176v240z" />
<glyph unicode="&#xbf;" horiz-adv-x="1119" d="M150 340q0 78 38 152q41 72 125 154l82 80q38 36 58 64v-1q24 29 28 80q2 34 2 73v152h224v-183q0 -52 -4.5 -84t-21.5 -64t-33.5 -52.5t-58.5 -66.5l-85 -83q-90 -84 -90 -156q0 -65 48 -106v1q49 -43 139 -43q132 0 368 162v-324q-201 -122 -401 -122 q-187 0 -302.5 101t-115.5 266zM478 1156v312h263v-312h-263z" />
<glyph unicode="&#xc0;" horiz-adv-x="1710" d="M150 0l590 1493h231l589 -1493h-362l-53 231h-581l-72 -231h-342zM428 1872h274l238 -321h-233zM647 532h417l-209 626l-26.5 -79.5t-25.5 -77.5q-9 -25 -25.5 -75.5t-24.5 -76.5q-7 -20 -25 -72.5t-27 -81.5q-23 -70 -54 -163z" />
<glyph unicode="&#xc1;" horiz-adv-x="1710" d="M150 0l590 1493h231l589 -1493h-362l-53 231h-581l-72 -231h-342zM647 532h417l-209 626l-26.5 -79.5t-25.5 -77.5q-9 -25 -25.5 -75.5t-24.5 -76.5q-7 -20 -25 -72.5t-27 -81.5q-23 -70 -54 -163zM716 1551l239 321h273l-277 -321h-235z" />
<glyph unicode="&#xc2;" horiz-adv-x="1710" d="M150 0l590 1493h231l589 -1493h-362l-53 231h-581l-72 -231h-342zM486 1551l256 323h211l257 -323h-223l-140 149q-47 -50 -70 -75q-40 -43 -68 -74h-223zM647 532h417l-209 626l-26.5 -79.5t-25.5 -77.5q-9 -25 -25.5 -75.5t-24.5 -76.5q-7 -20 -25 -72.5t-27 -81.5 q-23 -70 -54 -163z" />
<glyph unicode="&#xc3;" horiz-adv-x="1710" d="M150 0l590 1493h231l589 -1493h-362l-53 231h-581l-72 -231h-342zM510 1581q0 127 58 204q58 75 155 75q41 0 72 -9q39 -12 82 -36h-1l54 -28q31 -19 49 -19q30 0 30 49v43h192q-5 -130 -61 -203q-57 -76 -153 -76q-36 0 -70 8q-31 9 -84 36l-54 31q-34 19 -44 19 q-34 0 -34 -51v-43h-191zM647 532h417l-209 626l-26.5 -79.5t-25.5 -77.5q-9 -25 -25.5 -75.5t-24.5 -76.5q-7 -20 -25 -72.5t-27 -81.5q-23 -70 -54 -163z" />
<glyph unicode="&#xc4;" horiz-adv-x="1710" d="M150 0l590 1493h231l589 -1493h-362l-53 231h-581l-72 -231h-342zM529 1581v264h265v-264h-265zM647 532h417l-209 626l-26.5 -79.5t-25.5 -77.5q-9 -25 -25.5 -75.5t-24.5 -76.5q-7 -20 -25 -72.5t-27 -81.5q-23 -70 -54 -163zM894 1581v264h264v-264h-264z" />
<glyph unicode="&#xc5;" horiz-adv-x="1709" d="M150 0l517 1351q-110 89 -110 230q0 126 86.5 212.5t211.5 86.5q126 0 211 -88q88 -85 88 -211q0 -141 -110 -231l515 -1350h-281l-130 364h-584l-130 -364h-284zM651 599h408l-203 555q-15 -41 -49 -132.5t-52 -140.5q-17 -45 -51 -137q-8 -21 -25.5 -69.5t-27.5 -75.5z M749 1581q0 -44 30.5 -74.5t75.5 -30.5t75.5 30.5t30.5 74.5q0 42 -32 74.5t-74 32.5q-45 0 -75.5 -30.5t-30.5 -76.5z" />
<glyph unicode="&#xc6;" horiz-adv-x="2157" d="M150 0l625 1493h1214v-237h-704v-505h675v-238h-675v-190h722v-323h-990v250h-425l10 -250h-452zM674 485h343v782h-57z" />
<glyph unicode="&#xc7;" horiz-adv-x="1518" d="M150 745q0 356 196 565t534 209q263 0 488 -153v-310q-247 229 -477 229q-226 0 -344.5 -138t-118.5 -402q4 -223 114 -314.5t349 -91.5q230 0 477 229v-441q-227 -155 -488 -155q-338 0 -534 208t-196 565zM560 -125q105 -54 182 -54q74 0 74 50q0 23 -29 73 q-26 44 -90 131h202q122 -140 122 -238q0 -206 -260 -206q-85 0 -201 31v213z" />
<glyph unicode="&#xc8;" horiz-adv-x="1289" d="M150 0v1493h972v-237h-704v-344h674v-237h-674v-305h721v-370h-989zM157 1872h274l238 -321h-233z" />
<glyph unicode="&#xc9;" horiz-adv-x="1289" d="M150 0v1493h972v-237h-704v-344h674v-237h-674v-305h721v-370h-989zM335 1551l239 321h273l-277 -321h-235z" />
<glyph unicode="&#xca;" horiz-adv-x="1289" d="M150 0v1493h972v-237h-704v-344h674v-237h-674v-305h721v-370h-989zM235 1551l256 323h211l257 -323h-223l-140 149q-48 -50 -70 -75q-40 -43 -68 -74h-223z" />
<glyph unicode="&#xcb;" horiz-adv-x="1289" d="M150 0v1493h972v-237h-704v-344h674v-237h-674v-305h721v-370h-989zM308 1581v264h265v-264h-265zM673 1581v264h264v-264h-264z" />
<glyph unicode="&#xcc;" horiz-adv-x="877" d="M150 1872h274l238 -321h-233zM420 0l31 1493h257l19 -1493h-307z" />
<glyph unicode="&#xcd;" horiz-adv-x="820" d="M150 0l31 1493h257l19 -1493h-307zM158 1551l239 321h273l-277 -321h-235z" />
<glyph unicode="&#xce;" horiz-adv-x="1024" d="M150 1551l256 323h211l257 -323h-223l-140 149q-47 -50 -70 -75q-40 -43 -68 -74h-223zM362 0l31 1493h257l19 -1493h-307z" />
<glyph unicode="&#xcf;" horiz-adv-x="929" d="M150 1581v264h265v-264h-265zM269 0l31 1493h257l19 -1493h-307zM515 1581v264h264v-264h-264z" />
<glyph unicode="&#xd0;" horiz-adv-x="1758" d="M150 664v213h191v616h433q419 0 629 -181q205 -190 205 -564q0 -378 -206 -567q-210 -181 -628 -181h-433v664h-191zM610 337h192q85 0 146 4t119.5 14.5t97.5 30t72.5 49.5t52.5 74t29.5 103t10.5 136q0 267 -126 389.5t-402 122.5h-192v-383h319v-213h-319v-327z" />
<glyph unicode="&#xd1;" horiz-adv-x="1468" d="M150 0l39 1465h299l552 -1014l26 1042h252v-1493h-338l-559 1054q5 -95 13.5 -273.5t12.5 -256.5q11 -246 24 -524h-321zM342 1581q0 127 58 204q58 75 155 75q41 0 72 -9q39 -12 82 -36h-1l54 -28q31 -19 49 -19q30 0 30 49v43h192q-5 -130 -61 -203q-57 -76 -153 -76 q-36 0 -70 8q-31 9 -84 36l-54 31q-34 19 -44 19q-34 0 -34 -51v-43h-191z" />
<glyph unicode="&#xd2;" horiz-adv-x="1688" d="M150 745q0 349 188 561q190 213 507 213q315 0 505 -213q188 -212 188 -561t-188 -561q-192 -212 -505 -212q-316 0 -507 212q-188 212 -188 561zM428 745q0 -196 104 -263q117 -69 313 -69q105 0 177.5 15t128 51.5t82 102.5t26.5 163q0 255 -111.5 398.5t-302.5 143.5 q-183 0 -303 -141q-114 -152 -114 -401zM459 1872h274l238 -321h-233z" />
<glyph unicode="&#xd3;" horiz-adv-x="1688" d="M150 745q0 349 188 561q190 213 507 213q315 0 505 -213q188 -212 188 -561t-188 -561q-192 -212 -505 -212q-316 0 -507 212q-188 212 -188 561zM428 745q0 -196 104 -263q117 -69 313 -69q105 0 177.5 15t128 51.5t82 102.5t26.5 163q0 255 -111.5 398.5t-302.5 143.5 q-183 0 -303 -141q-114 -152 -114 -401zM657 1551l239 321h273l-277 -321h-235z" />
<glyph unicode="&#xd4;" horiz-adv-x="1688" d="M150 745q0 349 188 561q190 213 507 213q315 0 505 -213q188 -212 188 -561t-188 -561q-192 -212 -505 -212q-316 0 -507 212q-188 212 -188 561zM428 745q0 -196 104 -263q117 -69 313 -69q105 0 177.5 15t128 51.5t82 102.5t26.5 163q0 255 -111.5 398.5t-302.5 143.5 q-183 0 -303 -141q-114 -152 -114 -401zM467 1551l256 323h211l257 -323h-223l-140 149q-48 -50 -70 -75q-40 -43 -68 -74h-223z" />
<glyph unicode="&#xd5;" horiz-adv-x="1688" d="M150 745q0 349 188 561q190 213 507 213q315 0 505 -213q188 -212 188 -561t-188 -561q-192 -212 -505 -212q-316 0 -507 212q-188 212 -188 561zM428 745q0 -196 104 -263q117 -69 313 -69q105 0 177.5 15t128 51.5t82 102.5t26.5 163q0 255 -111.5 398.5t-302.5 143.5 q-183 0 -303 -141q-114 -152 -114 -401zM491 1581q0 127 58 204q58 75 155 75q41 0 72 -9q39 -12 82 -36h-1l54 -28q31 -19 49 -19q30 0 30 49v43h192q-5 -130 -61 -203q-57 -76 -153 -76q-36 0 -70 8q-32 9 -84 36l-54 31q-34 19 -44 19q-34 0 -34 -51v-43h-191z" />
<glyph unicode="&#xd6;" horiz-adv-x="1688" d="M150 745q0 349 188 561q190 213 507 213q315 0 505 -213q188 -212 188 -561t-188 -561q-192 -212 -505 -212q-316 0 -507 212q-188 212 -188 561zM428 745q0 -196 104 -263q117 -69 313 -69q105 0 177.5 15t128 51.5t82 102.5t26.5 163q0 255 -111.5 398.5t-302.5 143.5 q-183 0 -303 -141q-114 -152 -114 -401zM590 1581v264h265v-264h-265zM955 1581v264h264v-264h-264z" />
<glyph unicode="&#xd7;" horiz-adv-x="1436" d="M150 302l351 352l-333 335l209 213l336 -336l363 363l210 -212l-362 -363l352 -352l-209 -212l-354 354l-355 -354z" />
<glyph unicode="&#xd8;" horiz-adv-x="1742" d="M150 51l166 197q-138 202 -138 497q0 351 189.5 562.5t504.5 211.5q238 0 411 -130l155 182l154 -134l-166 -194q139 -203 139 -498q0 -350 -188 -561q-191 -212 -505 -212q-240 0 -412 129l-155 -183zM427 783q0 -91 38 -169l-1 1q37 -68 67 -104l594 692 q-50 63 -102 83q-62 28 -182 39q-183 -2 -300 -141q-114 -152 -114 -401zM676 364q24 -13 60 -18q74 -2 141 -2q196 29 285 115q88 94 125 348q0 94 -17 148q-13 42 -26 72z" />
<glyph unicode="&#xd9;" horiz-adv-x="1481" d="M150 1493h269l10 -766q3 -217 74 -305v1q71 -86 238 -86t238 86v-1q71 88 74 305l10 766h268l-10 -923q-6 -598 -580 -598q-286 0 -432 151t-149 447zM349 1872h274l238 -321h-233z" />
<glyph unicode="&#xda;" horiz-adv-x="1461" d="M150 570v923h269v-766q0 -213 74 -305v1q71 -86 238 -86t238 86v-1q74 92 74 305v766h268v-923q0 -297 -146 -447.5t-434 -150.5q-287 0 -434 151.5t-147 446.5zM577 1551l239 321h273l-277 -321h-235z" />
<glyph unicode="&#xdb;" horiz-adv-x="1461" d="M150 570v923h269v-766q0 -213 74 -305v1q71 -86 238 -86t238 86v-1q74 92 74 305v766h268v-923q0 -297 -146 -447.5t-434 -150.5q-287 0 -434 151.5t-147 446.5zM367 1551l256 323h211l257 -323h-223l-140 149q-48 -50 -70 -75q-40 -43 -68 -74h-223z" />
<glyph unicode="&#xdc;" horiz-adv-x="1461" d="M150 570v923h269v-766q0 -213 74 -305v1q71 -86 238 -86t238 86v-1q74 92 74 305v766h268v-923q0 -297 -146 -447.5t-434 -150.5q-287 0 -434 151.5t-147 446.5zM440 1581v264h265v-264h-265zM805 1581v264h264v-264h-264z" />
<glyph unicode="&#xdd;" horiz-adv-x="1619" d="M150 1493h291l370 -684l367 684h291l-497 -980v-513h-335v513zM636 1551l239 321h273l-277 -321h-235z" />
<glyph unicode="&#xde;" horiz-adv-x="1291" d="M150 0v1493h268v-251h203q520 0 520 -460q0 -229 -130.5 -345t-389.5 -116h-203v-321h-268zM418 554h203q117 0 179.5 59.5t62.5 168.5t-62.5 168t-179.5 59h-203v-455z" />
<glyph unicode="&#xdf;" horiz-adv-x="1376" d="M150 0l58 1100q0 200 123 314q125 113 341 113q214 0 325 -126t115 -372q-143 -8 -221 -52.5t-78 -116.5q0 -65 98 -127h-1l53 -35q159 -101 211 -174t52 -182q0 -180 -114 -274.5t-331 -94.5q-118 0 -292 56v308q191 -71 304 -71q91 0 137 21q45 21 45 59q0 30 -21 58 q-20 32 -111 87l-82 56q-37 45 -90 124q-46 70 -46 169q0 136 68 220.5t222 114.5q-29 61 -52 95t-53.5 51.5t-59 21.5t-82.5 4q-107 0 -159.5 -56t-69.5 -199q8 -176 24 -546q17 -388 24 -546h-337z" />
<glyph unicode="&#xe0;" horiz-adv-x="1258" d="M150 342q0 393 508 393h202q-7 91 -74 145t-186 64q-168 0 -373 -111v227q218 85 393 85q245 0 366.5 -127t121.5 -384v-634h-247v86q-124 -113 -323 -113q-175 0 -282 100q-106 103 -106 269zM241 1603h266l320 -423h-352zM369 389q11 -52 49 -63q59 -17 146 -17 q49 0 79 4.5t56 17t39 37.5t20 64.5t7 100.5v1h-117q-179 0 -231 -37q-47 -31 -48 -108z" />
<glyph unicode="&#xe1;" horiz-adv-x="1273" d="M150 342q0 393 508 393h202q-7 91 -74 145t-186 64q-168 0 -373 -111v227q218 85 393 85q245 0 366.5 -127t121.5 -384v-634h-247v86q-124 -113 -323 -113q-175 0 -282 100q-106 103 -106 269zM369 389q11 -52 49 -63q59 -17 146 -17q49 0 79 4.5t56 17t39 37.5t20 64.5 t7 100.5v1h-117q-179 0 -231 -37q-47 -31 -48 -108zM470 1209l347 464h306l-403 -464h-250z" />
<glyph unicode="&#xe2;" horiz-adv-x="1258" d="M150 342q0 393 508 393h202q-7 91 -74 145t-186 64q-168 0 -373 -111v227q218 85 393 85q245 0 366.5 -127t121.5 -384v-634h-247v86q-124 -113 -323 -113q-175 0 -282 100q-106 103 -106 269zM243 1178l277 425h180l277 -425h-218l-149 203q-5 -7 -33 -44.5t-43 -58.5 q-31 -43 -73 -100h-218zM369 389q11 -52 49 -63q59 -17 146 -17q49 0 79 4.5t56 17t39 37.5t20 64.5t7 100.5v1h-117q-179 0 -231 -37q-47 -31 -48 -108z" />
<glyph unicode="&#xe3;" horiz-adv-x="1258" d="M150 342q0 393 508 393h202q-7 91 -74 145t-186 64q-168 0 -373 -111v227q218 85 393 85q245 0 366.5 -127t121.5 -384v-634h-247v86q-124 -113 -323 -113q-175 0 -282 100q-106 103 -106 269zM267 1222q2 162 59.5 250t160.5 88q44 0 78.5 -15.5t76.5 -52.5l54 -51h-1 q29 -26 38 -26q18 0 25 34q9 40 10 111h191q-3 -163 -60 -250.5t-160 -87.5q-45 0 -80.5 15t-75.5 51l-53 52h1q-29 26 -38 26q-18 0 -25 -34q-9 -40 -10 -110h-191zM369 389q11 -52 49 -63q59 -17 146 -17q49 0 79 4.5t56 17t39 37.5t20 64.5t7 100.5v1h-117 q-179 0 -231 -37q-47 -31 -48 -108z" />
<glyph unicode="&#xe4;" horiz-adv-x="1258" d="M150 342q0 393 508 393h202q-7 91 -74 145t-186 64q-168 0 -373 -111v227q218 85 393 85q245 0 366.5 -127t121.5 -384v-634h-247v86q-124 -113 -323 -113q-175 0 -282 100q-106 103 -106 269zM367 1260v277h278v-277h-278zM369 389q11 -52 49 -63q59 -17 146 -17 q49 0 79 4.5t56 17t39 37.5t20 64.5t7 100.5v1h-117q-179 0 -231 -37q-47 -31 -48 -108zM758 1260v277h278v-277h-278z" />
<glyph unicode="&#xe5;" horiz-adv-x="1258" d="M150 342q0 393 508 393h202q-7 91 -74 145t-186 64q-168 0 -373 -111v227q218 85 393 85q245 0 366.5 -127t121.5 -384v-634h-247v86q-124 -113 -323 -113q-175 0 -282 100q-106 103 -106 269zM318 1460q0 122 85.5 207.5t207.5 85.5q121 0 207 -86t86 -207 q0 -122 -86 -208t-207 -86q-122 0 -207.5 85.5t-85.5 208.5zM369 389q11 -52 49 -63q59 -17 146 -17q49 0 79 4.5t56 17t39 37.5t20 64.5t7 100.5v1h-117q-179 0 -231 -37q-47 -31 -48 -108zM496 1460q0 -44 29 -76q32 -29 76 -29q45 0 74.5 30t29.5 75q0 44 -29.5 73.5 t-74.5 29.5q-46 0 -75.5 -29.5t-29.5 -73.5z" />
<glyph unicode="&#xe6;" horiz-adv-x="2036" d="M150 342q0 243 125.5 346t382.5 103h201q-12 42 -66 98q-66 73 -191 73q-175 0 -375 -111v209q218 85 393 85q126 0 225 -39t159 -111q150 150 388 150q110 0 204.5 -40t157 -107t97.5 -155t35 -184v-121h-783q11 -45 34 -84.5t61.5 -74.5t98.5 -55.5t135 -20.5 q185 0 414 124v-334q-47 -20 -106 -43q-25 -10 -108 -41q-104 -36 -209 -36q-160 0 -271 46t-188 149q-146 -195 -404 -195q-193 0 -301.5 97.5t-108.5 271.5zM397 406q0 -57 49.5 -89t136.5 -32q131 0 204 70q74 69 75 226h-134q-200 0 -272 -34q-59 -29 -59 -141zM862 581 h37l-37 38v-31v-7zM1110 746l526 1q-6 37 -24.5 75t-48 73t-74 57.5t-95.5 22.5q-127 0 -202 -86q-62 -66 -82 -143z" />
<glyph unicode="&#xe7;" horiz-adv-x="1202" d="M150 559q0 271 151 428.5t412 157.5q166 0 339 -79v-237q-190 105 -331 105q-148 0 -226 -97t-80 -274q14 -119 75 -163q67 -43 225 -57h147q71 2 185 68l5 -357q-172 -81 -350 -81q-251 0 -401.5 160.5t-150.5 425.5zM457 -125q105 -54 182 -54q74 0 74 50q0 23 -29 73 q-26 44 -90 131h202q122 -140 122 -238q0 -206 -260 -206q-85 0 -201 31v213z" />
<glyph unicode="&#xe8;" d="M150 551q9 274 154.5 434t396.5 160q225 -9 345 -123h-1q119 -113 139 -351v-105h-779q12 -148 82 -200q82 -51 251 -64q99 0 187 7q86 7 224 80l5 -324q-221 -92 -426 -92q-263 9 -421 160q-157 153 -157 418zM293 1603h266l320 -423h-352zM426 790l524 1 q-23 53 -73 113q-66 76 -176 76q-129 0 -204 -76v1q-57 -57 -71 -115z" />
<glyph unicode="&#xe9;" d="M150 551q9 274 154.5 434t396.5 160q225 -9 345 -123h-1q119 -113 139 -351v-105h-779q12 -148 82 -200q82 -51 251 -64q99 0 187 7q86 7 224 80l5 -324q-221 -92 -426 -92q-263 9 -421 160q-157 153 -157 418zM426 790l524 1q-23 53 -73 113q-66 76 -176 76 q-129 0 -204 -76v1q-57 -57 -71 -115zM452 1139l347 464h306l-403 -464h-250z" />
<glyph unicode="&#xea;" d="M150 551q9 274 154.5 434t396.5 160q225 -9 345 -123h-1q119 -113 139 -351v-105h-779q12 -148 82 -200q82 -51 251 -64q99 0 187 7q86 7 224 80l5 -324q-221 -92 -426 -92q-263 9 -421 160q-157 153 -157 418zM295 1178l277 425h180l277 -425h-218l-149 203 q-5 -7 -33 -44.5t-43 -58.5q-31 -43 -73 -100h-218zM426 790l524 1q-23 53 -73 113q-66 76 -176 76q-129 0 -204 -76v1q-57 -57 -71 -115z" />
<glyph unicode="&#xeb;" d="M150 551q9 274 154.5 434t396.5 160q225 -9 345 -123h-1q119 -113 139 -351v-105h-779q12 -148 82 -200q82 -51 251 -64q99 0 187 7q86 7 224 80l5 -324q-221 -92 -426 -92q-263 9 -421 160q-157 153 -157 418zM389 1260v277h278v-277h-278zM426 790l524 1 q-23 53 -73 113q-66 76 -176 76q-129 0 -204 -76v1q-57 -57 -71 -115zM780 1260v277h278v-277h-278z" />
<glyph unicode="&#xec;" horiz-adv-x="886" d="M150 1603h266l320 -423h-352zM442 0v1120h247v-1120h-247z" />
<glyph unicode="&#xed;" horiz-adv-x="953" d="M150 1139l347 464h306l-403 -464h-250zM173 0v1120h247v-1120h-247z" />
<glyph unicode="&#xee;" horiz-adv-x="1034" d="M150 1178l277 425h180l277 -425h-218l-149 203q-5 -7 -33 -44.5t-43 -58.5q-31 -43 -73 -100h-218zM430 0v1120h247v-1120h-247z" />
<glyph unicode="&#xef;" horiz-adv-x="969" d="M150 1260v277h278v-277h-278zM376 0v1120h247v-1120h-247zM541 1260v277h278v-277h-278z" />
<glyph unicode="&#xf0;" d="M150 539q0 248 139 404t362 156q5 0 5 1h-2h5q2 -1 6 -1l-69 79q-102 -34 -156 -53q-36 -13 -154 -52l-55 164l245 81q-6 7 -22 25t-25 29l-51 57q-26 29 -48 54q-7 8 -20.5 22.5t-19.5 21.5h312l114 -130l322 108l55 -161l-258 -86l116 -131q125 -145 177 -279 q56 -144 56 -309q0 -254 -143 -410t-374 -156q-232 0 -374.5 155.5t-142.5 410.5zM406 539q0 -163 70.5 -254.5t190.5 -91.5q118 0 189 92.5t71 253.5q0 205 -85 320q-86 26 -145 26q-139 0 -215 -88h1q-77 -92 -77 -258zM835 868l4 -4q2 -4 3 -5l10 -3z" />
<glyph unicode="&#xf1;" horiz-adv-x="1318" d="M150 0l30 1129h246v-89q14 9 89 54q94 51 211 51q193 0 296.5 -122t115.5 -353l30 -670h-325l39 674q0 132 -41 194.5t-134 62.5q-272 0 -272 -292l30 -639h-315zM232 1222q2 162 59.5 250t160.5 88q44 0 78.5 -15.5t76.5 -52.5l54 -51h-1q29 -26 38 -26q18 0 25 34 q9 40 10 111h191q-3 -163 -60 -250.5t-160 -87.5q-45 0 -80.5 15t-75.5 51l-53 52h1q-29 26 -38 26q-18 0 -25 -34q-9 -40 -10 -110h-191z" />
<glyph unicode="&#xf2;" horiz-adv-x="1344" d="M150 1603h266l320 -423h-352zM160 559q0 273 136 428q137 158 381 158q240 0 378.5 -157.5t138.5 -428.5t-138.5 -428.5t-378.5 -157.5q-245 0 -381 159q-136 154 -136 427zM415 589q0 -64 11.5 -108.5t30.5 -71t54 -41.5t72 -19.5t94 -4.5q120 0 197 44q63 40 63 201 q0 167 -70.5 261t-189.5 94q-120 0 -191 -94.5t-71 -260.5z" />
<glyph unicode="&#xf3;" d="M150 559q0 273 136 428q137 158 381 158q240 0 378.5 -157.5t138.5 -428.5t-138.5 -428.5t-378.5 -157.5q-245 0 -381 159q-136 154 -136 427zM405 589q0 -64 11.5 -108.5t30.5 -71t54 -41.5t72 -19.5t94 -4.5q120 0 197 44q63 40 63 201q0 167 -70.5 261t-189.5 94 q-120 0 -191 -94.5t-71 -260.5zM509 1139l347 464h306l-403 -464h-250z" />
<glyph unicode="&#xf4;" d="M150 559q0 273 136 428q137 158 381 158q240 0 378.5 -157.5t138.5 -428.5t-138.5 -428.5t-378.5 -157.5q-245 0 -381 159q-136 154 -136 427zM252 1178l277 425h180l277 -425h-218l-149 203q-5 -7 -33 -44.5t-43 -58.5q-31 -43 -73 -100h-218zM405 589 q0 -64 11.5 -108.5t30.5 -71t54 -41.5t72 -19.5t94 -4.5q120 0 197 44q63 40 63 201q0 167 -70.5 261t-189.5 94q-120 0 -191 -94.5t-71 -260.5z" />
<glyph unicode="&#xf5;" d="M150 559q0 273 136 428q137 158 381 158q240 0 378.5 -157.5t138.5 -428.5t-138.5 -428.5t-378.5 -157.5q-245 0 -381 159q-136 154 -136 427zM306 1222q2 162 59.5 250t160.5 88q44 0 78.5 -15.5t76.5 -52.5l54 -51h-1q29 -26 38 -26q18 0 25 34q9 40 10 111h191 q-3 -163 -60 -250.5t-160 -87.5q-45 0 -80.5 15t-75.5 51l-53 52h1q-29 26 -38 26q-18 0 -25 -34q-9 -40 -10 -110h-191zM405 589q0 -64 11.5 -108.5t30.5 -71t54 -41.5t72 -19.5t94 -4.5q120 0 197 44q63 40 63 201q0 167 -70.5 261t-189.5 94q-120 0 -191 -94.5 t-71 -260.5z" />
<glyph unicode="&#xf6;" d="M150 559q0 273 136 428q137 158 381 158q240 0 378.5 -157.5t138.5 -428.5t-138.5 -428.5t-378.5 -157.5q-245 0 -381 159q-136 154 -136 427zM405 589q0 -64 11.5 -108.5t30.5 -71t54 -41.5t72 -19.5t94 -4.5q120 0 197 44q63 40 63 201q0 167 -70.5 261t-189.5 94 q-120 0 -191 -94.5t-71 -260.5zM406 1260v277h278v-277h-278zM797 1260v277h278v-277h-278z" />
<glyph unicode="&#xf7;" horiz-adv-x="1618" d="M150 473v280h1318v-280h-1318zM634 47v350h351v-350h-351zM634 830v351h351v-351h-351z" />
<glyph unicode="&#xf8;" horiz-adv-x="1438" d="M150 17l144 176q-91 142 -91 366q0 272 138 429t379 157q167 0 291 -82q32 40 68 82q9 11 34 41q17 20 30 36l145 -122l-142 -174q91 -149 91 -367q0 -271 -138 -428.5t-379 -157.5q-174 0 -292 82q-10 -13 -32 -39q-28 -32 -69 -83q-17 -19 -30 -36zM459 546 q0 -83 13 -136l390 471q-57 44 -142 44q-120 0 -190 -94q-71 -101 -71 -285zM576 237q57 -44 144 -44q119 0 189.5 96.5t70.5 269.5q0 100 -14 150z" />
<glyph unicode="&#xf9;" horiz-adv-x="1260" d="M150 450v670h218v-512q8 -132 54.5 -197t139.5 -65q123 0 187 76q65 73 76 220l11 478h274l-20 -1120h-249l5 85q-115 -112 -292 -112q-199 0 -301.5 121t-102.5 356zM155 1603h266l320 -423h-352z" />
<glyph unicode="&#xfa;" horiz-adv-x="1260" d="M150 450v670h218v-512q8 -132 54.5 -197t139.5 -65q123 0 187 76q65 73 76 220l11 478h274l-20 -1120h-249l5 85q-115 -112 -292 -112q-199 0 -301.5 121t-102.5 356zM424 1139l347 464h306l-403 -464h-250z" />
<glyph unicode="&#xfb;" horiz-adv-x="1260" d="M150 450v670h218v-512q8 -132 54.5 -197t139.5 -65q123 0 187 76q65 73 76 220l11 478h274l-20 -1120h-249l5 85q-115 -112 -292 -112q-199 0 -301.5 121t-102.5 356zM267 1178l277 425h180l277 -425h-218l-149 203q-5 -7 -33 -44.5t-43 -58.5q-31 -43 -73 -100h-218z " />
<glyph unicode="&#xfc;" horiz-adv-x="1260" d="M150 450v670h218v-512q8 -132 54.5 -197t139.5 -65q123 0 187 76q65 73 76 220l11 478h274l-20 -1120h-249l5 85q-115 -112 -292 -112q-199 0 -301.5 121t-102.5 356zM321 1260v277h278v-277h-278zM712 1260v277h278v-277h-278z" />
<glyph unicode="&#xfd;" horiz-adv-x="1429" d="M150 1120h260l345 -567l265 567h259l-460 -1194q-47 -106 -90.5 -173.5t-92.5 -104.5t-98 -50.5t-118 -13.5h-193v302h157q56 0 86 24q39 34 77 83q6 13 34 66q17 31 33 66q-82 176 -114 244q-48 102 -236 507q-32 68 -114 244zM561 1139l347 464h306l-403 -464h-250z " />
<glyph unicode="&#xfe;" horiz-adv-x="1310" d="M150 -398v1925h247v-492q110 110 297 110q207 0 336.5 -163t129.5 -423t-129.5 -423t-336.5 -163q-187 0 -297 110v-481h-247zM397 559q0 -178 71 -276l-1 1q67 -93 185 -93t183 92q72 97 72 276q0 174 -68.5 271t-186.5 97q-115 0 -185 -94l1 1q-71 -98 -71 -275z" />
<glyph unicode="&#xff;" horiz-adv-x="1429" d="M150 1120h260l345 -567l265 567h259l-460 -1194q-47 -106 -90.5 -173.5t-92.5 -104.5t-98 -50.5t-118 -13.5h-193v302h157q56 0 86 24q39 34 77 83q6 13 34 66q17 31 33 66q-82 176 -114 244q-48 102 -236 507q-32 68 -114 244zM348 1260v277h278v-277h-278zM739 1260 v277h278v-277h-278z" />
<glyph unicode="&#x152;" horiz-adv-x="2222" d="M150 748q0 366 222 555q223 190 651 190h1032v-199h-705v-315h694v-238h-694v-399h722v-342h-1049q-429 0 -651 190t-222 558zM428 748q0 -148 139 -279q145 -127 431 -127h85v952h-85q-293 0 -431.5 -128.5t-138.5 -417.5z" />
<glyph unicode="&#x153;" horiz-adv-x="2124" d="M150 559q0 272 138 429t379 157q259 0 392 -178q149 178 420 178q108 0 205 -42.5t158 -105.5t96.5 -131t35.5 -123v-121h-788q8 -139 29 -211q23 -79 60 -104h-1q86 -58 245 -58q185 0 415 122v-306q-221 -92 -424 -92q-285 0 -448 180q-72 -98 -166 -139 q-92 -41 -229 -41q-244 0 -381 159q-136 154 -136 427zM406 619q0 -160 69.5 -247t191.5 -87q121 0 191 88.5t70 245.5q0 155 -70.5 244.5t-190.5 89.5q-121 0 -191 -88.5t-70 -245.5zM1209 820l506 1q-16 35 -57 79q-66 72 -177 72q-127 0 -204 -71h1q-46 -43 -69 -81z" />
<glyph unicode="&#x178;" horiz-adv-x="1619" d="M150 1493h291l370 -684l367 684h291l-497 -980v-513h-335v513zM539 1581v264h265v-264h-265zM904 1581v264h264v-264h-264z" />
<glyph unicode="&#x2c6;" horiz-adv-x="1034" d="M150 1178l277 425h180l277 -425h-218l-149 203q-5 -7 -33 -44.5t-43 -58.5q-31 -43 -73 -100h-218z" />
<glyph unicode="&#x2dc;" horiz-adv-x="992" d="M150 1222q2 162 59.5 250t160.5 88q44 0 78.5 -15.5t76.5 -52.5l54 -51h-1q29 -26 38 -26q18 0 25 34q9 40 10 111h191q-3 -163 -60 -250.5t-160 -87.5q-45 0 -80.5 15t-75.5 51l-53 52h1q-29 26 -38 26q-18 0 -25 -34q-9 -40 -10 -110h-191z" />
<glyph unicode="&#x2000;" horiz-adv-x="940" />
<glyph unicode="&#x2001;" horiz-adv-x="1880" />
<glyph unicode="&#x2002;" horiz-adv-x="940" />
<glyph unicode="&#x2003;" horiz-adv-x="1880" />
<glyph unicode="&#x2004;" horiz-adv-x="626" />
<glyph unicode="&#x2005;" horiz-adv-x="470" />
<glyph unicode="&#x2006;" horiz-adv-x="313" />
<glyph unicode="&#x2007;" horiz-adv-x="313" />
<glyph unicode="&#x2008;" horiz-adv-x="235" />
<glyph unicode="&#x2009;" horiz-adv-x="376" />
<glyph unicode="&#x200a;" horiz-adv-x="104" />
<glyph unicode="&#x2010;" horiz-adv-x="888" d="M150 446l9 228l579 11l-9 -229z" />
<glyph unicode="&#x2011;" horiz-adv-x="888" d="M150 446l9 228l579 11l-9 -229z" />
<glyph unicode="&#x2012;" horiz-adv-x="888" d="M150 446l9 228l579 11l-9 -229z" />
<glyph unicode="&#x2013;" horiz-adv-x="1330" d="M150 456v209h1030v-209h-1030z" />
<glyph unicode="&#x2014;" horiz-adv-x="2286" d="M150 456v209h1986v-209h-1986z" />
<glyph unicode="&#x2018;" horiz-adv-x="721" d="M150 853v245l202 394h219l-103 -408v-231h-318z" />
<glyph unicode="&#x2019;" horiz-adv-x="718" d="M150 876l104 404v204h314v-219l-200 -389h-218z" />
<glyph unicode="&#x201a;" horiz-adv-x="660" d="M150 -222l88 341v193h272v-207l-167 -327h-193z" />
<glyph unicode="&#x201c;" horiz-adv-x="1201" d="M150 822v248l204 398h221l-106 -414v-232h-319zM626 822v248l204 398h221l-106 -414v-232h-319z" />
<glyph unicode="&#x201d;" horiz-adv-x="1147" d="M150 860l99 389v219h304v-233l-192 -375h-211zM593 860l101 389v219h303v-233l-192 -375h-212z" />
<glyph unicode="&#x201e;" horiz-adv-x="1210" d="M150 -222l107 418v233h322v-248l-206 -403h-223zM631 -222l107 418v233h322v-248l-206 -403h-223z" />
<glyph unicode="&#x2022;" horiz-adv-x="929" d="M150 749q0 129 92.5 220.5t224.5 91.5q129 0 220.5 -91.5t91.5 -220.5q0 -132 -92 -223.5t-222 -91.5q-132 0 -223.5 91.5t-91.5 223.5z" />
<glyph unicode="&#x2026;" horiz-adv-x="1948" d="M150 0v414h376v-414h-376zM786 0v414h375v-414h-375zM1422 0v414h376v-414h-376z" />
<glyph unicode="&#x202f;" horiz-adv-x="376" />
<glyph unicode="&#x2039;" horiz-adv-x="813" d="M150 542v110l513 458v-279l-262 -234l262 -233v-279z" />
<glyph unicode="&#x203a;" horiz-adv-x="812" d="M150 85v279l261 233l-261 234v279l512 -458v-110z" />
<glyph unicode="&#x205f;" horiz-adv-x="470" />
<glyph unicode="&#x20ac;" horiz-adv-x="1485" d="M150 793l85 190h138q43 225 189 365q154 145 390 145q196 0 383 -152v-269q-145 167 -220 207q-67 37 -156 37q-122 0 -204.5 -93.5t-115.5 -239.5h552l-85 -190h-492q-2 -12 0 -27v-33v-21q-1 -5 -1 -11v-10q0 -9 1 -16h434l-77 -227h-308q19 -30 72 -84q83 -83 215 -83 q86 0 156 37q72 38 229 201v-392q-190 -154 -383 -154q-233 0 -391 146q-61 58 -112 152q-49 85 -67 177h-226l76 227h120v3v25q-1 9 -1 30q0 23 1 33v26v1h-202z" />
<glyph unicode="&#x2122;" horiz-adv-x="1627" d="M150 1306v162h558v-162h-187l29 -452h-243l28 452h-185zM708 854l43 614h219l131 -260q10 19 34 63.5t37 68.5q7 14 67 128h218l20 -614h-239l16 262q-30 -74 -44 -109l-42 -105h-140l-94 225q4 -72 9 -141q2 -51 8 -132h-243z" />
<glyph unicode="&#xe000;" horiz-adv-x="1120" d="M0 0v1120h1120v-1120h-1120z" />
</font>
</defs>
</svg>
