<?xml version="1.0" standalone="no"?>
<!DOCTYPE svg PUBLIC "-//W3C//DTD SVG 1.1//EN" "http://www.w3.org/Graphics/SVG/1.1/DTD/svg11.dtd" >
<svg xmlns="http://www.w3.org/2000/svg">
<metadata></metadata>
<defs>
<font id="opendyslexicregular" horiz-adv-x="1328" >
<font-face units-per-em="2048" ascent="1638" descent="-410" />
<missing-glyph horiz-adv-x="800" />
<glyph unicode="&#xfb01;" horiz-adv-x="1391" d="M150 987v133h176v78q0 178 88.5 267.5t273.5 120.5l185 20v-153l-176 -40q-176 0 -176 -194v-99h690l30 -1120h-235l20 987h-505l30 -987h-245l20 987h-176zM1026 1321v233h185v-233h-185z" />
<glyph unicode="&#xfb02;" horiz-adv-x="1462" d="M150 977v143h166l10 78q0 187 87 272.5t276 85.5h512v-1348l110 2l1 -210h-296v1423h-329q-99 0 -137.5 -40t-38.5 -144l10 -119h293v-143h-293l60 -977h-295l30 977h-166z" />
<glyph horiz-adv-x="0" />
<glyph unicode="&#xd;" horiz-adv-x="2048" />
<glyph horiz-adv-x="0" />
<glyph horiz-adv-x="0" />
<glyph unicode=" "  horiz-adv-x="800" />
<glyph unicode="&#x09;" horiz-adv-x="800" />
<glyph unicode="&#xa0;" horiz-adv-x="800" />
<glyph unicode="!" horiz-adv-x="572" d="M150 481l19 357l20 655h193l10 -655l30 -357h-272zM159 0l20 254h213l20 -254h-253z" />
<glyph unicode="&#x22;" horiz-adv-x="901" d="M150 906l11 587h179l11 -587h-201zM550 906l10 587h180l11 -587h-201z" />
<glyph unicode="#" horiz-adv-x="1701" d="M150 414v153h352l84 334h-322v154h361l102 415h162l-104 -415h292l105 415h160l-103 -415h312v-154h-351l-82 -334h318v-153h-357l-104 -414h-160l103 414h-293l-103 -414h-161l104 414h-315zM664 567h293l82 334h-291z" />
<glyph unicode="$" horiz-adv-x="1268" d="M150 109l4 240q203 -132 410 -137l7 395q-209 39 -304 126.5t-102 239.5q3 163 113.5 255t314.5 102l4 235l100 -2l-4 -232q189 -11 349 -68l-3 -155q-161 87 -348 98l-8 -466q228 -39 328 -121.5t107 -237.5q-3 -166 -116 -263t-302 -109l15 -303l-180 3l24 301 q-203 6 -409 99zM307 973q0 -86 66.5 -144t191.5 -79l10 450q-124 -13 -196 -75.5t-72 -151.5zM675 578l10 -373q41 7 59 10t49.5 10t45.5 13.5t33.5 18.5t27.5 26t14.5 34t6.5 45q0 87 -61 139.5t-185 76.5z" />
<glyph unicode="%" horiz-adv-x="2020" d="M150 1114q0 186 93 296t251 110t252 -110t94 -296q0 -189 -93.5 -298t-252.5 -109t-251.5 109.5t-92.5 297.5zM309 1120q0 -129 49 -201.5t136 -72.5t136.5 72.5t49.5 201.5q0 126 -50 199.5t-136 73.5t-135.5 -73t-49.5 -200zM463 -29l943 1549h161l-943 -1549h-161z M1180 377q0 188 93.5 297.5t252.5 109.5q158 0 251 -110t93 -297q0 -186 -93.5 -296t-250.5 -110q-160 0 -253 109.5t-93 296.5zM1340 397q0 -121 49.5 -190.5t136.5 -69.5q85 0 134.5 69.5t49.5 190.5t-49.5 190.5t-134.5 69.5q-87 0 -136.5 -69t-49.5 -191z" />
<glyph unicode="&#x26;" horiz-adv-x="1705" d="M150 461q0 254 268 452q-98 129 -98 248q0 162 111 260.5t295 98.5q164 0 333 -72l-70 -142q-177 96 -313 96q-105 0 -170.5 -55.5t-65.5 -143.5q0 -51 30 -102q27 -50 120 -146l548 -540q55 82 74.5 168t26.5 218h186q-17 -186 -34 -259q-33 -145 -115 -257l279 -285 h-252l-143 147q-206 -176 -463 -176q-241 0 -394 137.5t-153 352.5zM293 510q0 -147 107 -245t268 -98q191 0 337 128l-534 548q-178 -158 -178 -333z" />
<glyph unicode="'" horiz-adv-x="470" d="M150 938v555h170v-555h-170z" />
<glyph unicode="(" horiz-adv-x="724" d="M150 680q37 440 377 881l160 -14q-314 -443 -333 -884q12 -276 51.5 -495.5t142.5 -437.5l-210 14q-188 469 -188 936z" />
<glyph unicode=")" horiz-adv-x="724" d="M37 -230q301 429 343 887q0 257 -40 481.5t-144 448.5l159 -14q121 -232 169.5 -460t49.5 -473q0 -107 -23.5 -218t-72.5 -230.5t-94 -210t-118 -225.5z" />
<glyph unicode="*" horiz-adv-x="1272" d="M150 1207l88 139l336 -203l-40 337l154 40v-377l376 243l18 -139l-359 -194l399 -155l-98 -138l-336 203l40 -347l-154 -30v377l-296 -243l-98 138l359 195z" />
<glyph unicode="+" horiz-adv-x="1582" d="M150 557v170h557v557h168v-557h557v-170h-557v-557h-168v557h-557z" />
<glyph unicode="," horiz-adv-x="653" d="M150 -288l102 320v212h251v-212l-224 -320h-129z" />
<glyph unicode="-" horiz-adv-x="846" d="M150 479l7 164l539 10l-7 -165z" />
<glyph unicode="." horiz-adv-x="599" d="M150 0v323h299v-323h-299z" />
<glyph unicode="/" horiz-adv-x="1028" d="M150 -190l578 1664l150 -5l-498 -1667z" />
<glyph unicode="0" horiz-adv-x="1332" d="M150 745q10 380 143 577.5t383 197.5t378 -197.5t128 -577.5q-10 -379 -143 -576.5t-383 -197.5t-378 197.5t-128 576.5zM363 890q0 -286 69 -417.5t224 -131.5q154 0 233.5 135t100.5 414q0 550 -314 550q-313 0 -313 -550z" />
<glyph unicode="1" horiz-adv-x="1189" d="M150 1237v184l357 72h202v-1213h330v-280h-860v280h330v1029z" />
<glyph unicode="2" horiz-adv-x="1248" d="M150 0v290q161 133 335 265q165 126 243 210t121 168q38 76 38 148q0 119 -83.5 194t-217.5 75q-187 0 -426 -133v204q248 99 422 99q232 0 370 -116t138 -310q0 -94 -35.5 -176.5t-124.5 -192.5q-31 -35 -159 -167q-134 -140 -168 -268h495v-290h-948z" />
<glyph unicode="3" horiz-adv-x="1283" d="M150 45v315q171 -99 393 -99q190 0 290 85q99 86 99 138q0 106 -95 178.5t-255 72.5h-174v166h182q149 0 228 59.5t79 171.5q0 115 -81.5 176.5t-233.5 61.5q-166 0 -387 -74v160q228 64 405 64q230 0 364 -104.5t134 -282.5q0 -124 -71 -209.5t-202 -118.5 q143 -11 225.5 -108t82.5 -243q0 -238 -150.5 -360.5t-433.5 -122.5q-186 0 -399 74z" />
<glyph unicode="4" horiz-adv-x="1388" d="M150 422v125l621 946h254l10 -903h203v-168h-203l20 -422h-271l20 422h-654zM314 590h500l10 797z" />
<glyph unicode="5" horiz-adv-x="1266" d="M150 35v313q179 -97 389 -97q82 0 153.5 26t116 65.5t70 83.5t25.5 83q0 154 -94.5 231t-270.5 77q-163 0 -326 -74v750h793v-150h-628v-386q128 30 196 30q250 0 396 -137t146 -371q0 -241 -150 -374.5t-423 -133.5q-186 0 -393 64z" />
<glyph unicode="6" horiz-adv-x="1331" d="M150 745q0 354 168 564.5t451 210.5q147 0 315 -60v-184q-156 74 -307 74q-200 0 -305.5 -135t-120.5 -408q59 87 148 133.5t196 46.5q225 0 355.5 -136.5t130.5 -371.5q0 -230 -136 -369t-362 -139q-259 0 -396 198.5t-137 575.5zM388 479q0 -101 79.5 -159.5 t215.5 -58.5t215.5 58.5t79.5 159.5q0 162 -79.5 255t-215.5 93t-215.5 -93t-79.5 -255z" />
<glyph unicode="7" horiz-adv-x="1250" d="M150 1343v150h950v-86l-372 -1407h-361l550 1343h-767z" />
<glyph unicode="8" horiz-adv-x="1364" d="M150 420q0 141 90.5 241t239.5 134q-127 32 -191 119.5t-64 218.5q0 164 120.5 265.5t336.5 101.5q217 0 337 -101.5t120 -265.5q0 -131 -63.5 -218.5t-190.5 -119.5q149 -34 239 -134t90 -241q0 -215 -141.5 -332t-390.5 -117t-390.5 117t-141.5 332zM373 440 q0 -82 86.5 -150.5t222.5 -68.5t223 69t87 150q0 135 -82.5 212t-227.5 77q-144 0 -226.5 -77t-82.5 -212zM406 1174q0 -116 72.5 -181t203.5 -65q130 0 203.5 65t73.5 181q0 98 -75 162t-202 64q-128 0 -202 -63.5t-74 -162.5z" />
<glyph unicode="9" horiz-adv-x="1330" d="M150 1012q0 230 136 369t362 139q259 0 395.5 -198.5t136.5 -576.5q0 -353 -167.5 -563.5t-450.5 -210.5q-148 0 -316 60v304q156 -74 307 -74q72 0 123.5 6t100.5 22.5t82 46t59.5 76.5t41 114t19.5 158q-58 -86 -147 -132t-197 -46q-224 0 -354.5 135.5t-130.5 370.5z M271 1044q0 -53 10.5 -92.5t34 -65.5t52 -42t73 -24.5t86.5 -11t104 -2.5q74 0 122.5 4t97.5 17.5t77 39t45 70t17 107.5q0 161 -97 254.5t-262 93.5q-166 0 -263 -93.5t-97 -254.5z" />
<glyph unicode=":" horiz-adv-x="561" d="M150 0v306h261v-306h-261zM150 816v285h261v-285h-261z" />
<glyph unicode=";" horiz-adv-x="629" d="M150 -328l91 355v191h234v-191l-182 -355h-143zM236 803v293h243v-293h-243z" />
<glyph unicode="&#x3c;" horiz-adv-x="1637" d="M150 591l20 226l1317 351l-16 -181l-1060 -276l997 -453l-21 -241z" />
<glyph unicode="=" horiz-adv-x="1582" d="M150 352v200h1282v-200h-1282zM150 762v168h1282v-168h-1282z" />
<glyph unicode="&#x3e;" horiz-adv-x="1637" d="M150 137l21 241l1058 274l-994 455l16 182l1236 -575l-19 -226z" />
<glyph unicode="?" horiz-adv-x="1087" d="M150 1249v158q186 113 390 113q183 0 290 -96.5t107 -256.5q0 -70 -41 -136t-131 -163l-78 -86q-31 -53 -46 -73q-31 -43 -37 -103q-3 -30 -3 -82v-123h-261v154q0 105 29.5 174t116.5 153l100 89q85 70 117 105t41 81q0 93 -67 161t-172 68q-156 0 -355 -137zM334 -10 v284h263v-284h-263z" />
<glyph unicode="@" horiz-adv-x="2070" d="M150 543q0 182 68 347t194 290q129 127 298 194.5t358 67.5q212 0 393.5 -87t304.5 -247q154 -202 154 -451q0 -263 -159 -415t-439 -158v154q-117 -150 -318 -150q-172 0 -279.5 124.5t-107.5 324.5t108 325t279 125q200 0 318 -151v131h143v-736q146 22 228.5 133.5 t82.5 288.5q0 215 -127 375q-104 131 -253.5 200.5t-325.5 69.5q-251 0 -445 -129q-157 -102 -245.5 -267.5t-88.5 -358.5q0 -79 13 -139.5t46 -119.5t73.5 -109t111.5 -125q101 -100 226.5 -141.5t291.5 -41.5q279 0 482 158l90 -181q-125 -97 -272.5 -148.5t-299.5 -51.5 q-185 0 -349 65.5t-292 190.5t-195 289.5t-67 353.5zM747 619q0 -128 71 -201t195 -73q123 0 193.5 73.5t70.5 200.5q0 125 -72 199t-194 74q-121 0 -192.5 -73.5t-71.5 -199.5z" />
<glyph unicode="A" horiz-adv-x="1668" d="M150 0l590 1493h189l589 -1493h-290l-56 243h-673l-76 -243h-273zM560 481h549l-275 828z" />
<glyph unicode="B" horiz-adv-x="1379" d="M150 0v1493h466q231 0 356 -96t125 -273q0 -137 -64 -218t-188 -101q194 -32 289 -131.5t95 -255.5q0 -199 -145 -308.5t-398 -109.5h-536zM352 296h324q170 0 245 50t75 184q0 50 -78 117q-80 66 -242 66h-324v-417zM352 877h299q293 0 293 225q0 117 -74.5 186 t-218.5 69h-299v-480z" />
<glyph unicode="C" horiz-adv-x="1504" d="M150 745q0 360 195 567.5t534 207.5q267 0 475 -142v-213q-202 189 -463 189q-256 0 -392 -156.5t-136 -452.5q4 -254 133.5 -361t394.5 -107q261 0 463 189v-351q-212 -144 -475 -144q-339 0 -534 207.5t-195 566.5z" />
<glyph unicode="D" horiz-adv-x="1555" d="M150 0v1493h415q434 0 637 -180.5t203 -564.5q0 -386 -204 -567t-636 -181h-415zM362 376h244q158 0 258 17.5t169 65t105.5 119t63.5 190.5q0 282 -145 420.5t-451 138.5h-244v-951z" />
<glyph unicode="E" horiz-adv-x="1262" d="M150 0v1493h944v-170h-742v-442h711v-170h-711v-401h760v-310h-962z" />
<glyph unicode="F" horiz-adv-x="1158" d="M150 0l40 1493h818v-180h-616l-20 -430h582v-210h-572l20 -673h-252z" />
<glyph unicode="G" horiz-adv-x="1604" d="M150 745q0 366 197 570.5t548 204.5q294 0 520 -142v-195q-224 191 -503 191q-549 0 -549 -609q5 -137 39 -228t104.5 -144t167 -74.5t238.5 -21.5q240 0 312 76v161h-320v216h550v-611q-236 -168 -559 -168q-351 0 -548 204.5t-197 569.5z" />
<glyph unicode="H" horiz-adv-x="1458" d="M150 0l20 1493h212v-712h694v712h212l20 -1493h-232v501h-694v-501h-232z" />
<glyph unicode="I" horiz-adv-x="542" d="M150 0q11 174 18 381.5t9.5 356.5t6.5 390t6 365h172q1 -104 4 -455.5t8.5 -582t17.5 -455.5h-242z" />
<glyph unicode="J" horiz-adv-x="926" d="M150 -90l102 -22q125 6 190 61t68 127l54 1419l212 -14l-54 -1418q-5 -268 -108.5 -379.5t-342.5 -115.5l-117 12z" />
<glyph unicode="K" horiz-adv-x="1505" d="M150 0l40 1493h202l-20 -631l670 631h260l-741 -696l794 -797h-476l-507 719l40 -719h-262z" />
<glyph unicode="L" horiz-adv-x="1239" d="M150 0l20 1493h202l-10 -1183h727l-20 -310h-919z" />
<glyph unicode="M" horiz-adv-x="1706" d="M150 0l30 1493h301l371 -886l393 886h281l30 -1493h-257l40 1311l-365 -1074h-243l-365 1074l40 -1311h-256z" />
<glyph unicode="N" horiz-adv-x="1450" d="M150 0l40 1463h252l642 -1179l30 1209h186v-1493h-292l-662 1249l60 -1249h-256z" />
<glyph unicode="O" horiz-adv-x="1682" d="M150 745q0 354 188.5 564.5t503.5 210.5q314 0 502 -210.5t188 -564.5q0 -353 -188 -563.5t-502 -210.5q-315 0 -503.5 210t-188.5 564zM363 745q0 -113 32.5 -190.5t98 -120.5t149 -61t199.5 -18t199 18t148 61t97.5 120.5t32.5 190.5q0 282 -128.5 446.5t-348.5 164.5 t-349.5 -164.5t-129.5 -446.5z" />
<glyph unicode="P" horiz-adv-x="1314" d="M150 0l60 1493h446q251 0 379.5 -113.5t128.5 -332.5q0 -224 -129.5 -345.5t-378.5 -121.5h-244l-20 -580h-242zM402 846h273q151 0 233.5 73t82.5 208q0 134 -82.5 207t-233.5 73h-253z" />
<glyph unicode="Q" horiz-adv-x="1751" d="M150 745q0 354 188.5 564.5t503.5 210.5q314 0 502 -210.5t188 -564.5q0 -100 -15 -189.5t-37.5 -154t-57.5 -126.5t-65.5 -102t-71.5 -86l316 -351h-474l-211 239q-59 -4 -84 -4q-202 0 -356.5 94.5t-240 270.5t-85.5 409zM363 745q0 -88 25.5 -157.5t62 -110t87 -68.5 t91.5 -38.5t83 -15.5l94 -14l83 139q120 -55 242 -71q188 104 188 336q0 282 -128.5 446.5t-348.5 164.5t-349.5 -164.5t-129.5 -446.5z" />
<glyph unicode="R" horiz-adv-x="1463" d="M150 0v1493h456q229 0 353.5 -108.5t124.5 -321.5q0 -139 -59.5 -232.5t-166.5 -130.5q127 -42 250 -292l205 -408h-287l-151 383q-73 148 -142 198t-191 50h-150v-631h-242zM372 837h254q119 0 217 68.5t98 157.5q0 92 -26.5 157.5t-73.5 100.5t-99.5 50.5t-115.5 15.5 h-254v-550z" />
<glyph unicode="S" horiz-adv-x="1351" d="M150 1094q0 198 139.5 312t384.5 114q210 0 437 -76v-197q-228 109 -414 109q-165 0 -254.5 -64t-89.5 -182q0 -100 60.5 -150.5t224.5 -80.5l122 -25q225 -43 333 -151t108 -291q0 -217 -145.5 -329t-426.5 -112q-215 0 -473 95v318q248 -139 473 -139q161 0 261 64 t100 138q0 66 -72.5 126t-216.5 89l-123 24q-226 45 -327 141t-101 267z" />
<glyph unicode="T" horiz-adv-x="1563" d="M150 1323v170h1263v-170l-530 20l40 -1343h-283l40 1343z" />
<glyph unicode="U" horiz-adv-x="1443" d="M150 561v932h213l-20 -767v-28q-1 -214 87 -316q94 -108 292 -107q197 -1 290 107q87 101 87 316v28l-19 767h213v-932q0 -292 -144.5 -441t-426.5 -149q-283 0 -427.5 149t-144.5 441z" />
<glyph unicode="V" horiz-adv-x="1668" d="M150 1493h211l473 -1117l474 1117h210l-519 -1493h-329z" />
<glyph unicode="W" horiz-adv-x="2190" d="M150 1493h194l304 -1072l353 692h177l324 -712l343 1092h195l-375 -1493h-294l-275 806l-298 -806h-314z" />
<glyph unicode="X" horiz-adv-x="1578" d="M150 0l513 697l-445 796h217l371 -635l373 635h217l-460 -797l492 -696h-327l-310 535l-313 -535h-328z" />
<glyph unicode="Y" horiz-adv-x="1559" d="M150 1493h217l414 -764l411 764h217l-498 -982v-511h-273v511z" />
<glyph unicode="Z" horiz-adv-x="1519" d="M150 0v284l944 1039h-921v170h1173v-154l-944 -1039h967v-300h-1219z" />
<glyph unicode="[" horiz-adv-x="674" d="M150 -270v1826h424v-143h-240v-1460h240v-223h-424z" />
<glyph unicode="\" horiz-adv-x="931" d="M150 1492l170 -5l461 -1701l-210 8z" />
<glyph unicode="]" horiz-adv-x="674" d="M100 -57h239v1470h-239v143h424v-1826h-424v213z" />
<glyph unicode="^" horiz-adv-x="1582" d="M150 936l563 557h156l563 -557h-311l-330 455l-330 -455h-311z" />
<glyph unicode="_" horiz-adv-x="1364" d="M150 -264h1064v-179h-1064v179z" />
<glyph unicode="`" horiz-adv-x="779" d="M150 1718h197l282 -374h-273z" />
<glyph unicode="a" horiz-adv-x="1246" d="M150 326q0 381 504 381h258v18q0 129 -79.5 202.5t-238.5 83.5q-193 0 -362 -92v150q202 78 381 78q243 0 363 -126t120 -382v-639h-184v160q-129 -189 -387 -189q-172 0 -273.5 96.5t-101.5 258.5zM304 376q7 -41 27.5 -67t56 -38t72 -16t93.5 -4q74 0 118.5 10t78 40 t46.5 85t13 145v41h-166q-134 0 -208 -21t-102 -61.5t-29 -113.5z" />
<glyph unicode="b" horiz-adv-x="1302" d="M170 1556h185l-21 -586q56 96 143 136.5t216 40.5q204 0 331.5 -162.5t127.5 -425.5t-127.5 -425.5t-331.5 -162.5q-108 0 -183.5 15t-124 46.5t-77 71.5t-49.5 99q-18 39 -31 214.5t-29.5 551.5t-28.5 587zM423 592q6 -47 10 -73t12.5 -60t18 -51.5t25.5 -39t37.5 -32 t51.5 -20.5t69 -13.5t89 -3.5q66 5 112.5 20t86 48t64 91t36.5 143q-6 199 -81 307t-218 108q-147 0 -230 -111t-83 -313z" />
<glyph unicode="c" horiz-adv-x="1186" d="M150 559q0 274 150.5 431t412.5 157q173 0 323 -70v-162q-157 86 -315 86q-177 0 -272 -117t-95 -325q14 -142 95.5 -201.5t263.5 -69.5q13 0 61 -1q24 0 42 -0.5t28 0.5q21 1 59 5t68.5 14t60.5 26l4 -289q-154 -72 -335 -72q-253 0 -402 159t-149 429z" />
<glyph unicode="d" horiz-adv-x="1321" d="M150 559q0 263 127 425.5t331 162.5q245 0 359 -197l20 606h184l-20 -1556h-184v168q-114 -197 -359 -197q-204 0 -331 162.5t-127 425.5zM282 579q23 -147 93 -210t215 -63q79 0 128.5 10.5t88.5 40.5t57 87t21 149q-11 420 -290 420q-146 0 -229.5 -115.5t-83.5 -318.5 z" />
<glyph unicode="e" d="M150 549q10 278 154.5 438t395.5 160q228 -10 343.5 -122t134.5 -349v-70h-836q1 -88 20 -151t50 -102t83.5 -62t107.5 -33t135 -14q75 0 108.5 1t93.5 6.5t107.5 20t94.5 39.5l4 -254q-204 -86 -415 -86q-270 10 -425.5 162t-155.5 416zM362 766l656 1q-8 48 -33.5 97 t-64.5 91t-96.5 68.5t-122.5 26.5q-74 0 -139 -25.5t-108 -66t-67.5 -91t-24.5 -101.5z" />
<glyph unicode="f" horiz-adv-x="964" d="M150 937v183h166l10 78q0 90 24.5 157t68 105.5t98.5 57t122 18.5l164 -20v-153l-166 20q-72 0 -99 -32t-27 -132l10 -99h293v-183h-293l30 -937h-265l30 937h-166z" />
<glyph unicode="g" horiz-adv-x="1321" d="M150 573q0 260 125.5 417t332.5 157q246 0 359 -197l20 170h184l-30 -981q-6 -193 -39 -323t-99.5 -208t-159.5 -111t-228 -33q-191 0 -350 59v328q157 -86 321 -86q69 0 128 23t99 58.5t71 82.5t47.5 90.5t25.5 86.5v61q-51 -74 -141 -120.5t-208 -46.5q-206 0 -332 157 t-126 416zM260 584q7 -67 17.5 -113.5t29 -78.5t38.5 -50.5t55.5 -28.5t69.5 -12.5t89 -2.5q69 0 112 4t88.5 20.5t70.5 46.5t41 83.5t16 131.5q0 200 -82.5 310t-231.5 110q-148 0 -230.5 -110t-82.5 -310z" />
<glyph unicode="h" horiz-adv-x="1278" d="M150 0l40 1556h185l-20 -610q131 201 362 201q193 0 292 -119.5t99 -351.5l20 -676h-234l30 670q1 21 1 40q1 152 -55 220q-62 77 -194 77q-147 0 -234 -103.5t-87 -270.5l20 -633h-225z" />
<glyph unicode="i" horiz-adv-x="534" d="M150 0q31 448 31 970q0 74 -1 150h164q-5 -132 -4 -267q0 -417 44 -853h-234zM170 1323l10 233h164l10 -233h-184z" />
<glyph unicode="j" horiz-adv-x="734" d="M50 -456l5 276l79 -1q46 4 72.5 11t49.5 23t34 47.5t18.5 77t10.5 117.5l48 1020l174 -3l-40 -1140q-4 -215 -87.5 -319t-263.5 -111zM400 1323l10 233h164l10 -233h-184z" />
<glyph unicode="k" horiz-adv-x="1324" d="M150 0l40 1556h185l-10 -879l379 443h235l-424 -524l619 -596h-380l-429 527l30 -527h-245z" />
<glyph unicode="l" horiz-adv-x="638" d="M150 0q9 682 50 1466h174q-36 -700 -40 -1238l154 -1v-227h-338z" />
<glyph unicode="m" horiz-adv-x="1985" d="M150 0l50 1120h185l-20 -174q123 201 360 201q124 0 218.5 -63t135.5 -179q70 126 157 184t214 58q175 0 270 -122.5t95 -348.5l20 -676h-275l70 700q0 168 -44 242.5t-157 74.5q-138 0 -214.5 -106t-84.5 -278l-30 -633h-255l90 710q0 162 -57 239.5t-176 77.5 q-139 0 -228 -114t-89 -280l20 -633h-255z" />
<glyph unicode="n" horiz-adv-x="1308" d="M150 0l30 1130h185v-134q41 32 73.5 53.5t80 46.5t100.5 38t108 13q381 0 401 -471l30 -676h-264l40 680q0 162 -53.5 239.5t-174.5 77.5q-165 0 -248 -93t-83 -261l30 -643h-255z" />
<glyph unicode="o" d="M150 559q0 276 136.5 432t377.5 156q240 0 377 -156t137 -432q0 -275 -137 -431.5t-377 -156.5q-241 0 -377.5 156.5t-136.5 431.5zM344 591q0 -77 15 -131.5t40 -87.5t67 -51.5t87.5 -25t110.5 -6.5q64 0 109 6.5t87 25t67.5 51.5t40.5 87.5t15 131.5q0 193 -86 306.5 t-233 113.5q-148 0 -234 -112.5t-86 -307.5z" />
<glyph unicode="p" horiz-adv-x="1360" d="M150 -426l89 686v843h185l-31 -153q114 197 358 197q204 0 331.5 -162.5t127.5 -425.5t-127.5 -425.5t-331.5 -162.5q-244 0 -358 197l-8 -594h-235zM466 591q0 -99 22 -163.5t67.5 -97t99.5 -44.5t134 -12q79 0 130.5 11.5t93 45t60.5 97t19 163.5q0 203 -83.5 318.5 t-229.5 115.5t-229.5 -115.5t-83.5 -318.5z" />
<glyph unicode="q" horiz-adv-x="1488" d="M150 559q0 263 127 425.5t331 162.5q245 0 359 -197l30 170h178l-63 -1186l226 -216l-167 -141l-260 -3l56 594q-114 -197 -359 -197q-204 0 -331 162.5t-127 425.5zM272 585q0 -99 19.5 -161.5t63 -94t94 -41.5t131.5 -10q65 0 109 6t87 24.5t68 51.5t40 89t15 136 q0 203 -84 318.5t-230 115.5t-229.5 -115.5t-83.5 -318.5z" />
<glyph unicode="r" horiz-adv-x="979" d="M150 0q62 342 76 544q7 111 7 271q0 131 -5 295h170v-114q167 131 347 131q30 0 83 -10l1 -189q-28 16 -57 20.5t-81 4.5q-293 0 -293 -393l40 -560h-288z" />
<glyph unicode="s" horiz-adv-x="1156" d="M150 41v270q203 -106 397 -106q250 0 250 150q-32 59 -57 88q-23 26 -195 64l-64 15q-175 37 -249 102.5t-74 192.5q0 158 112 244t318 86t358 -60v-154q-157 80 -336 80q-136 0 -210 -47t-74 -131q0 -75 54.5 -116t201.5 -74l63 -14q198 -42 279.5 -114t81.5 -208 q0 -156 -124 -247t-339 -91q-179 0 -393 70z" />
<glyph unicode="t" horiz-adv-x="999" d="M150 977v143h135l10 278h195l-10 -278h259v-143h-259l-10 -488q0 -93 16.5 -138t55 -61t118.5 -16h189v-274h-189q-215 0 -300 80.5t-85 288.5l10 608h-135z" />
<glyph unicode="u" horiz-adv-x="1248" d="M150 442v678h154v-511q10 -162 68.5 -240t179.5 -78q147 0 229.5 93.5t92.5 260.5l20 475h204l-20 -1120h-184l10 172q-132 -201 -361 -201q-193 0 -293 120t-100 351z" />
<glyph unicode="v" horiz-adv-x="1390" d="M150 1120h195l350 -820l350 820h195l-410 -1120h-270z" />
<glyph unicode="w" horiz-adv-x="1803" d="M150 1120h184l230 -784l209 414h257l210 -414l229 784h184l-293 -1120h-257l-201 508l-212 -508h-247z" />
<glyph unicode="x" horiz-adv-x="1426" d="M150 0l445 536l-388 584h197l307 -459l337 459h187l-395 -595l436 -525h-297l-256 390l-276 -390h-297z" />
<glyph unicode="y" horiz-adv-x="1390" d="M150 1120h195l396 -651l304 651h195l-472 -1224q-49 -109 -92 -177t-91 -104t-94 -48.5t-113 -12.5h-167v244h128q37 0 65 8t54 29.5t43 40t49 58.5l79 159z" />
<glyph unicode="z" horiz-adv-x="1209" d="M150 0v268l712 715h-667v137h864v-168l-632 -705h622v-247h-899z" />
<glyph unicode="{" horiz-adv-x="1059" d="M150 541l2 143l61 -1q99 5 151.5 28t77 76.5t26.5 154.5l4 240q1 76 9.5 129t29.5 94t50.5 65.5t79.5 40.5t109.5 23t146.5 9l62 -1l-3 -143l-68 1q-53 -2 -86.5 -6t-61.5 -14.5t-42 -24.5t-24 -40.5t-13 -58t-4 -81.5l-4 -248q-3 -156 -49 -226.5t-158 -93.5 q107 -28 147.5 -97.5t47.5 -211.5l-4 -248q4 -45 9.5 -72t19.5 -52.5t38 -38.5t62 -21t94 -9l68 -1l-2 -204l-62 1q-128 3 -204 19.5t-123 61.5t-64.5 112.5t-20.5 183.5l4 238q-7 154 -56.5 211.5t-188.5 60.5z" />
<glyph unicode="|" horiz-adv-x="510" d="M150 -483l90 2048h170l-40 -1038l-30 -1010h-190z" />
<glyph unicode="}" horiz-adv-x="911" d="M117 -180h70q73 0 114.5 8.5t67.5 35t34.5 68.5t8.5 117v248q0 146 45 217t156 98q-111 25 -156 96.5t-45 227.5v248q0 142 -42.5 185.5t-182.5 43.5h-70v143h63q129 0 206 -15.5t126 -58.5t66.5 -111.5t17.5 -182.5v-240q0 -149 54 -206.5t196 -57.5h62v-143h-62 q-142 0 -196 -58t-54 -209v-239q0 -114 -17.5 -182.5t-66.5 -112t-126 -59t-206 -15.5h-63v154z" />
<glyph unicode="~" horiz-adv-x="1582" d="M150 437v208q105 79 194.5 113.5t186.5 34.5q110 0 257 -60q23 -9 37 -14q156 -62 249 -62q86 0 170.5 38t187.5 122v-158q-142 -106 -189 -135q-105 -62 -192 -62q-110 0 -256 89q-7 3 -16 6q-14 6 -22 8q-154 82 -249 82q-52 0 -115.5 -32t-98.5 -59t-123 -102 q-14 -11 -21 -17z" />
<glyph unicode="&#xa1;" horiz-adv-x="601" d="M150 1259l30 274h183l30 -274h-243zM174 651l9 357l202 7l32 -356l34 -655l-263 -8z" />
<glyph unicode="&#xa2;" horiz-adv-x="1196" d="M150 559q5 258 140 408.5t377 168.5l5 287l102 -2l-4 -287q147 -11 276 -73l-2 -142q-142 84 -277 91l-15 -814q135 7 281 81l-5 -250q-130 -55 -280 -67l-5 -284l-102 2l5 288q-240 24 -370 179.5t-126 413.5zM345 555q-2 -145 78.5 -239t226.5 -114l14 806 q-148 -15 -231.5 -132.5t-87.5 -320.5z" />
<glyph unicode="&#xa3;" horiz-adv-x="1313" d="M150 0l6 220l236 -4l12 435l-199 3l3 123l199 -3l7 238q7 259 116 374.5t344 121.5q124 -2 289 -65l-5 -182q-153 86 -271 87q-103 -6 -158.5 -37t-83.5 -107.5t-32 -218.5l-6 -215l391 -7l-3 -123l-391 7l-12 -435l557 -9l-6 -220z" />
<glyph unicode="&#xa4;" horiz-adv-x="1418" d="M150 197l207 206q-74 125 -74 238q0 124 76 236l-207 206l115 115l207 -207q107 76 235 76q120 0 238 -74l207 209l114 -115l-206 -206q73 -118 73 -240q0 -123 -78 -235l209 -207l-114 -113l-207 207q-116 -78 -236 -78q-117 0 -239 74l-207 -207zM439 643 q0 -112 77 -181t193 -69q115 0 192 69.5t77 180.5q0 112 -77.5 189t-191.5 77q-112 0 -191 -77.5t-79 -188.5z" />
<glyph unicode="&#xa5;" horiz-adv-x="1457" d="M150 1493h210l369 -700l367 700h211l-318 -586h264v-123h-331l-84 -155v-51h415v-163h-413l20 -415h-261l30 415h-416v163h416v51l-104 155h-332v123h264z" />
<glyph unicode="&#xa6;" horiz-adv-x="470" d="M150 -483l50 1009h170l-30 -1009h-190zM201 633l39 932h170l-39 -932h-170z" />
<glyph unicode="&#xa7;" horiz-adv-x="1138" d="M150 723q0 184 184 283q-118 88 -118 225q0 130 100.5 209.5t265.5 79.5q149 0 305 -58v-164q-167 78 -282 78q-97 0 -151 -40t-54 -111q0 -89 206 -205q24 -14 40 -23q209 -117 277 -196q65 -77 65 -178q0 -177 -185 -283q119 -99 119 -225q0 -142 -102 -226t-275 -84 q-141 0 -315 58v214q174 -78 293 -78q108 0 161.5 29t53.5 101q0 82 -221 205l-25 14q-212 118 -278 197q-64 76 -64 178zM312 778q0 -76 70 -142q68 -67 319 -202q125 89 125 182q0 75 -71 143q-72 67 -318 201q-125 -91 -125 -182z" />
<glyph unicode="&#xa8;" horiz-adv-x="937" d="M150 1350v217h218v-217h-218zM569 1350v217h218v-217h-218z" />
<glyph unicode="&#xa9;" horiz-adv-x="1782" d="M150 741q0 308 217 525q219 219 524 219t524 -219q217 -217 217 -525q0 -305 -217 -522q-219 -219 -524 -219t-524 219q-217 217 -217 522zM250 741q0 -250 190 -420q204 -139 451 -139q249 0 453 139q186 145 186 420q0 265 -186 453q-188 188 -453 188 q-263 0 -451 -188q-190 -190 -190 -453zM449 741q0 209 125.5 330t341.5 121q141 0 274 -55v-99q-130 65 -262 65q-146 0 -231 -101t-85 -261q0 -107 89.5 -190t236.5 -83q125 0 252 65v-187q-130 -57 -274 -57q-216 0 -341.5 122t-125.5 330z" />
<glyph unicode="&#xaa;" horiz-adv-x="1012" d="M150 946q0 273 379 273h182v4q0 182 -234 182q-128 0 -266 -68v127q147 56 287 56q183 0 272.5 -88t89.5 -267v-448h-149v112q-92 -131 -281 -131q-128 0 -204 67.5t-76 180.5zM174 469v123h688v-123h-688zM287 1023q0 -64 49 -102.5t131 -38.5q104 0 169 72t65 186v29 h-127q-161 0 -224 -33q-63 -34 -63 -113z" />
<glyph unicode="&#xab;" horiz-adv-x="1261" d="M150 519l44 120l484 402l-7 -191l-310 -257l291 -279l-48 -229zM584 504l44 120l483 402l-6 -191l-311 -258l292 -278l-48 -229z" />
<glyph unicode="&#xac;" horiz-adv-x="1612" d="M150 672v190h1282l30 -575h-248l50 405z" />
<glyph unicode="&#xad;" horiz-adv-x="839" d="M150 479v164h539v-164h-539z" />
<glyph unicode="&#xae;" horiz-adv-x="1782" d="M150 741q0 308 217 525q219 219 524 219t524 -219q217 -217 217 -525q0 -305 -217 -522q-219 -219 -524 -219t-524 219q-217 217 -217 522zM250 790q0 -240 190 -416q189 -175 451 -175q264 0 453 175q186 172 186 416t-186 418q-188 174 -453 174q-264 0 -451 -174 q-190 -176 -190 -418zM586 338v836h285q350 0 350 -240q0 -86 -52.5 -142t-148.5 -73q22 -7 58 -46q32 -38 79 -112l137 -223h-172l-129 209q-59 96 -95 122q-37 25 -51 25h-56v-356h-205zM791 845h123q110 0 153.5 31t43.5 106q0 76 -44.5 107.5t-152.5 31.5h-123v-276z " />
<glyph unicode="&#xaf;" horiz-adv-x="898" d="M150 1378v148h598v-148h-598z" />
<glyph unicode="&#xb0;" horiz-adv-x="934" d="M150 1200q0 134 92 227t225 93q136 0 225 -95q92 -90 92 -225q0 -132 -92.5 -223.5t-226.5 -91.5q-135 0 -225 90t-90 225zM277 1267q0 -72 55 -121.5t135 -49.5t135 49.5t55 121.5t-55.5 123t-134.5 51q-80 0 -135 -50.5t-55 -123.5z" />
<glyph unicode="&#xb1;" horiz-adv-x="1582" d="M150 0v190h1282v-190h-1282zM150 727v170h557v387h168v-387h557v-170h-557v-387h-168v387h-557z" />
<glyph unicode="&#xb2;" horiz-adv-x="898" d="M150 668v161q48 44 97 87q41 36 90.5 79t78.5 68t62 54.5t50.5 47.5t33.5 37.5t22.5 34t6.5 27.5q0 66 -52 106.5t-137 40.5q-103 0 -246 -70v123q156 56 267 56q144 0 231.5 -66t87.5 -174q0 -61 -63.5 -129.5t-240.5 -219.5q-18 -15 -27 -23q-55 -48 -87 -75h424v-165 h-598z" />
<glyph unicode="&#xb3;" horiz-adv-x="919" d="M150 694l9 165q102 -53 238 -53q120 0 170 20t50 85q0 150 -219 150h-86v108h94q94 0 142.5 31.5t48.5 91.5q0 58 -50 88.5t-145 30.5q-80 0 -223 -41v115q148 35 256 35q144 0 228.5 -59t84.5 -158q0 -69 -45 -117t-127 -66q92 -18 142.5 -72.5t50.5 -136.5 q0 -124 -95 -191t-272 -67q-111 0 -252 41z" />
<glyph unicode="&#xb4;" horiz-adv-x="833" d="M150 1320l312 418h221l-363 -418h-170z" />
<glyph unicode="&#xb5;" horiz-adv-x="1429" d="M150 1120l184 10l10 -496q0 -145 69 -219t204 -74q297 0 297 336l10 443h184l-10 -862q0 -60 112 -67q8 0 25 6q10 3 44 17v-148q-42 -23 -97 -59q-57 -36 -92 -36q-136 0 -166 158q-101 -158 -293 -158q-203 0 -287 156l10 -553h-184z" />
<glyph unicode="&#xb6;" horiz-adv-x="1433" d="M150 1071q0 190 130 306t345 116h438l220 -1690h-361l10 1567h-190v-1567h-322l70 846q-55 9 -112.5 42t-109.5 85t-85 130t-33 165z" />
<glyph unicode="&#xb7;" horiz-adv-x="511" d="M150 584v254h211v-254h-211z" />
<glyph unicode="&#xb8;" horiz-adv-x="714" d="M150 -240q63 -32 155 -32q119 0 119 94q0 59 -88 178h119q109 -124 109 -215q0 -180 -238 -180q-90 0 -176 24v131z" />
<glyph unicode="&#xb9;" horiz-adv-x="872" d="M150 1348v116l230 39h137v-651h205v-184h-553v184h204v537z" />
<glyph unicode="&#xba;" horiz-adv-x="1072" d="M150 1108q0 191 104 301.5t283 110.5t282 -110.5t103 -301.5t-103 -300.5t-282 -109.5t-283 110t-104 300zM193 469v123h688v-123h-688zM306 1191q0 -113 63 -180.5t168 -67.5t167.5 67.5t62.5 180.5q0 116 -62 183.5t-168 67.5q-105 0 -168 -68t-63 -183z" />
<glyph unicode="&#xbb;" horiz-adv-x="1251" d="M150 357l315 252l-287 283l10 191l447 -442l33 -124l-490 -393zM583 334l315 252l-287 283l10 191l447 -442l33 -124l-490 -393z" />
<glyph unicode="&#xbc;" horiz-adv-x="1972" d="M150 1348v116l230 39h137v-725h205v-110h-553v110h204v611zM499 -29l932 1549h160l-932 -1549h-160zM1129 188v121l392 528h166v-540h135v-109h-135v-186h-144v186h-414zM1234 297h309v419z" />
<glyph unicode="&#xbd;" horiz-adv-x="1981" d="M150 1348v116l230 39h137v-725h205v-110h-553v110h204v611zM449 -29l932 1549h160l-932 -1549h-160zM1233 2v110q48 44 97 87q344 305 344 399q0 66 -52 106.5t-137 40.5q-103 0 -246 -70v123q156 56 267 56q144 0 231.5 -66t87.5 -174q0 -140 -331 -423q-56 -48 -87 -75 h424v-114h-598z" />
<glyph unicode="&#xbe;" horiz-adv-x="1960" d="M150 694v121q102 -53 238 -53q108 0 168.5 39.5t60.5 109.5q0 150 -219 150h-86v108h94q94 0 142.5 31.5t48.5 91.5q0 58 -50 88.5t-145 30.5q-80 0 -223 -41v115q148 35 256 35q144 0 228.5 -59t84.5 -158q0 -69 -45 -117t-127 -66q92 -18 142.5 -72.5t50.5 -136.5 q0 -124 -95 -191t-272 -67q-111 0 -252 41zM527 -29l932 1549h160l-932 -1549h-160zM1117 188v121l392 528h166v-540h135v-109h-135v-186h-144v186h-414zM1222 297h309v419z" />
<glyph unicode="&#xbf;" horiz-adv-x="1097" d="M150 324q0 76 37 145t125 154l88 86q78 77 94 125q13 40 13 135v123h160v-156q0 -52 -3.5 -81.5t-21 -61t-32 -49t-58.5 -66.5l-90 -88q-109 -101 -109 -196q0 -89 66 -144t174 -55q157 0 354 137v-248q-186 -113 -389 -113q-184 0 -296 97t-112 256zM501 1239v254h202 v-254h-202z" />
<glyph unicode="&#xc0;" horiz-adv-x="1668" d="M150 0l590 1493h189l589 -1493h-290l-56 243h-673l-76 -243h-273zM515 1948h197l282 -374h-273zM560 481h549l-275 828z" />
<glyph unicode="&#xc1;" horiz-adv-x="1668" d="M150 0l590 1493h189l589 -1493h-290l-56 243h-673l-76 -243h-273zM560 481h549l-275 828zM728 1550l312 418h221l-363 -418h-170z" />
<glyph unicode="&#xc2;" horiz-adv-x="1668" d="M150 0l590 1493h189l589 -1493h-290l-56 243h-673l-76 -243h-273zM526 1492l245 376h148l245 -376h-139l-180 245l-180 -245h-139zM560 481h549l-275 828z" />
<glyph unicode="&#xc3;" horiz-adv-x="1668" d="M150 0l590 1493h189l589 -1493h-290l-56 243h-673l-76 -243h-273zM515 1539q2 135 53 208.5t142 73.5q71 0 139 -61l57 -55q42 -39 68 -39q38 0 56 37q19 37 20 118h125q-2 -135 -53 -208.5t-142 -73.5q-71 0 -139 61l-57 55q-42 39 -68 39q-38 0 -56 -36 q-19 -39 -20 -119h-125zM560 481h549l-275 828z" />
<glyph unicode="&#xc4;" horiz-adv-x="1668" d="M150 0l590 1493h189l589 -1493h-290l-56 243h-673l-76 -243h-273zM526 1580v217h218v-217h-218zM560 481h549l-275 828zM945 1580v217h218v-217h-218z" />
<glyph unicode="&#xc5;" horiz-adv-x="1668" d="M150 0l590 1493h189l589 -1493h-290l-56 243h-673l-76 -243h-273zM560 481h549l-275 828zM571 1754q0 115 79.5 194.5t194.5 79.5t194.5 -79.5t79.5 -194.5t-79.5 -195t-194.5 -80t-194.5 80t-79.5 195zM693 1754q0 -65 43.5 -108.5t108.5 -43.5q64 0 108 44t44 108 q0 63 -44 107t-108 44q-65 0 -108.5 -43.5t-43.5 -107.5z" />
<glyph unicode="&#xc6;" horiz-adv-x="2173" d="M103 0l625 1493h1212v-170h-741v-612h711v-170h-711v-281h760v-260h-963v263h-528l10 -263h-375zM537 431h459v904h-129z" />
<glyph unicode="&#xc7;" horiz-adv-x="1504" d="M150 745q0 360 195 567.5t534 207.5q267 0 475 -142v-213q-202 189 -463 189q-256 0 -392 -156.5t-136 -452.5q4 -254 133.5 -361t394.5 -107q261 0 463 189v-351q-212 -144 -475 -144q-339 0 -534 207.5t-195 566.5zM576 -240q63 -32 155 -32q119 0 119 94q0 59 -88 178 h119q109 -124 109 -215q0 -180 -238 -180q-90 0 -176 24v131z" />
<glyph unicode="&#xc8;" horiz-adv-x="1262" d="M150 0v1493h944v-170h-742v-442h711v-170h-711v-401h760v-310h-962zM269 2041h197l282 -374h-273z" />
<glyph unicode="&#xc9;" horiz-adv-x="1262" d="M150 0v1493h944v-170h-742v-442h711v-170h-711v-401h760v-310h-962zM482 1643l312 418h221l-363 -418h-170z" />
<glyph unicode="&#xca;" horiz-adv-x="1262" d="M150 0v1493h944v-170h-742v-442h711v-170h-711v-401h760v-310h-962zM280 1585l245 376h148l245 -376h-139l-180 245l-180 -245h-139z" />
<glyph unicode="&#xcb;" horiz-adv-x="1262" d="M150 0v1493h944v-170h-742v-442h711v-170h-711v-401h760v-310h-962zM280 1673v217h218v-217h-218zM699 1673v217h218v-217h-218z" />
<glyph unicode="&#xcc;" horiz-adv-x="542" d="M-49 2091h197l282 -374h-273zM150 0q11 174 18 381.5t9.5 356.5t6.5 390t6 365h172q1 -104 4 -455.5t8.5 -582t17.5 -455.5h-242z" />
<glyph unicode="&#xcd;" horiz-adv-x="542" d="M150 0q11 174 18 381.5t9.5 356.5t6.5 390t6 365h172q1 -104 4 -455.5t8.5 -582t17.5 -455.5h-242zM164 1693l312 418h221l-363 -418h-170z" />
<glyph unicode="&#xce;" horiz-adv-x="542" d="M-38 1635l245 376h148l245 -376h-139l-180 245l-180 -245h-139zM150 0q11 174 18 381.5t9.5 356.5t6.5 390t6 365h172q1 -104 4 -455.5t8.5 -582t17.5 -455.5h-242z" />
<glyph unicode="&#xcf;" horiz-adv-x="542" d="M-38 1723v217h218v-217h-218zM150 0q11 174 18 381.5t9.5 356.5t6.5 390t6 365h172q1 -104 4 -455.5t8.5 -582t17.5 -455.5h-242zM381 1723v217h218v-217h-218z" />
<glyph unicode="&#xd0;" horiz-adv-x="1771" d="M134 700v144h201v649h416q433 0 636 -180.5t203 -564.5q0 -386 -203.5 -567t-635.5 -181h-416v700h-201zM538 306h243q67 0 117 1.5t103 6t91 12t76.5 20t65 30.5t52 42.5t41 56.5t27.5 72.5t17.5 90.5t5.5 110q0 300 -143.5 439.5t-452.5 139.5h-243v-483h336v-144h-336 v-394z" />
<glyph unicode="&#xd1;" horiz-adv-x="1450" d="M150 0l40 1463h252l642 -1179l30 1209h186v-1493h-292l-662 1249l60 -1249h-256zM407 1682q2 135 53 208.5t142 73.5q71 0 139 -61l57 -55q42 -39 68 -39q38 0 56 37q19 37 20 118h125q-2 -135 -53 -208.5t-142 -73.5q-71 0 -139 61l-57 55q-42 39 -68 39q-38 0 -56 -36 q-19 -39 -20 -119h-125z" />
<glyph unicode="&#xd2;" horiz-adv-x="1682" d="M150 745q0 354 188.5 564.5t503.5 210.5q314 0 502 -210.5t188 -564.5q0 -353 -188 -563.5t-502 -210.5q-315 0 -503.5 210t-188.5 564zM363 745q0 -113 32.5 -190.5t98 -120.5t149 -61t199.5 -18t199 18t148 61t97.5 120.5t32.5 190.5q0 282 -128.5 446.5t-348.5 164.5 t-349.5 -164.5t-129.5 -446.5zM511 2091h197l282 -374h-273z" />
<glyph unicode="&#xd3;" horiz-adv-x="1682" d="M150 745q0 354 188.5 564.5t503.5 210.5q314 0 502 -210.5t188 -564.5q0 -353 -188 -563.5t-502 -210.5q-315 0 -503.5 210t-188.5 564zM363 745q0 -113 32.5 -190.5t98 -120.5t149 -61t199.5 -18t199 18t148 61t97.5 120.5t32.5 190.5q0 282 -128.5 446.5t-348.5 164.5 t-349.5 -164.5t-129.5 -446.5zM724 1693l312 418h221l-363 -418h-170z" />
<glyph unicode="&#xd4;" horiz-adv-x="1682" d="M150 745q0 354 188.5 564.5t503.5 210.5q314 0 502 -210.5t188 -564.5q0 -353 -188 -563.5t-502 -210.5q-315 0 -503.5 210t-188.5 564zM363 745q0 -113 32.5 -190.5t98 -120.5t149 -61t199.5 -18t199 18t148 61t97.5 120.5t32.5 190.5q0 282 -128.5 446.5t-348.5 164.5 t-349.5 -164.5t-129.5 -446.5zM522 1635l245 376h148l245 -376h-139l-180 245l-180 -245h-139z" />
<glyph unicode="&#xd5;" horiz-adv-x="1682" d="M150 745q0 354 188.5 564.5t503.5 210.5q314 0 502 -210.5t188 -564.5q0 -353 -188 -563.5t-502 -210.5q-315 0 -503.5 210t-188.5 564zM363 745q0 -113 32.5 -190.5t98 -120.5t149 -61t199.5 -18t199 18t148 61t97.5 120.5t32.5 190.5q0 282 -128.5 446.5t-348.5 164.5 t-349.5 -164.5t-129.5 -446.5zM511 1682q2 135 53 208.5t142 73.5q71 0 139 -61l57 -55q42 -39 68 -39q38 0 56 37q19 37 20 118h125q-2 -135 -53 -208.5t-142 -73.5q-71 0 -139 61l-57 55q-42 39 -68 39q-38 0 -56 -36q-19 -39 -20 -119h-125z" />
<glyph unicode="&#xd6;" horiz-adv-x="1682" d="M150 745q0 354 188.5 564.5t503.5 210.5q314 0 502 -210.5t188 -564.5q0 -353 -188 -563.5t-502 -210.5q-315 0 -503.5 210t-188.5 564zM363 745q0 -113 32.5 -190.5t98 -120.5t149 -61t199.5 -18t199 18t148 61t97.5 120.5t32.5 190.5q0 282 -128.5 446.5t-348.5 164.5 t-349.5 -164.5t-129.5 -446.5zM522 1723v217h218v-217h-218zM941 1723v217h218v-217h-218z" />
<glyph unicode="&#xd7;" horiz-adv-x="1405" d="M150 284l376 377l-356 359l168 171l359 -359l389 389l169 -171l-387 -389l377 -377l-169 -171l-379 379l-379 -379z" />
<glyph unicode="&#xd8;" horiz-adv-x="1682" d="M150 745q0 354 188.5 564.5t503.5 210.5q314 0 502 -210.5t188 -564.5q0 -353 -188 -563.5t-502 -210.5q-315 0 -503.5 210t-188.5 564zM363 745q0 -113 32.5 -190.5t98 -120.5t149 -61t199.5 -18t199 18t148 61t97.5 120.5t32.5 190.5q0 282 -128.5 446.5t-348.5 164.5 t-349.5 -164.5t-129.5 -446.5zM512 -76l578 1664l150 -5l-498 -1667z" />
<glyph unicode="&#xd9;" horiz-adv-x="1443" d="M150 561v932h213l-20 -767q-6 -236 87.5 -343.5t291.5 -107.5q197 0 290 107.5t87 343.5l-19 767h213v-932q0 -292 -144.5 -441t-426.5 -149q-283 0 -427.5 149t-144.5 441zM391 2091h197l282 -374h-273z" />
<glyph unicode="&#xda;" horiz-adv-x="1443" d="M150 561v932h213l-20 -767q-6 -236 87.5 -343.5t291.5 -107.5q197 0 290 107.5t87 343.5l-19 767h213v-932q0 -292 -144.5 -441t-426.5 -149q-283 0 -427.5 149t-144.5 441zM604 1693l312 418h221l-363 -418h-170z" />
<glyph unicode="&#xdb;" horiz-adv-x="1443" d="M150 561v932h213l-20 -767q-6 -236 87.5 -343.5t291.5 -107.5q197 0 290 107.5t87 343.5l-19 767h213v-932q0 -292 -144.5 -441t-426.5 -149q-283 0 -427.5 149t-144.5 441zM402 1635l245 376h148l245 -376h-139l-180 245l-180 -245h-139z" />
<glyph unicode="&#xdc;" horiz-adv-x="1443" d="M150 561v932h213l-20 -767q-6 -236 87.5 -343.5t291.5 -107.5q197 0 290 107.5t87 343.5l-19 767h213v-932q0 -292 -144.5 -441t-426.5 -149q-283 0 -427.5 149t-144.5 441zM402 1723v217h218v-217h-218zM821 1723v217h218v-217h-218z" />
<glyph unicode="&#xdd;" horiz-adv-x="1559" d="M150 1493h217l414 -764l411 764h217l-498 -982v-511h-273v511zM661 1693l312 418h221l-363 -418h-170z" />
<glyph unicode="&#xde;" horiz-adv-x="1264" d="M150 0v1493h202v-264h254q251 0 379.5 -112.5t128.5 -332.5t-128.5 -333t-379.5 -113h-254v-338h-202zM352 504h254q141 0 218 73t77 207t-76.5 206.5t-218.5 72.5h-254v-559z" />
<glyph unicode="&#xdf;" horiz-adv-x="1422" d="M213 0l60 1137q0 200 119.5 309.5t337.5 109.5q208 0 317.5 -116t112.5 -340q-151 -8 -235 -65.5t-84 -153.5q0 -47 29 -87.5t94 -82.5l57 -37q83 -53 134 -94.5t79.5 -83t38.5 -79.5t10 -91q0 -172 -112.5 -263.5t-323.5 -91.5q-124 0 -273 49v244q158 -59 285 -59 q116 0 176 32.5t60 93.5q0 42 -29 85q-30 42 -131 104l-82 55q-72 93 -94 135q-39 75 -39 150q0 68 14 118t49 94t101 73t164 43q-22 52 -43 91t-39.5 66.5t-41 45.5t-41 28.5t-46.5 15.5t-50.5 6.5t-60.5 1.5q-132 0 -199 -70.5t-87 -239.5l50 -1133h-277z" />
<glyph unicode="&#xe0;" horiz-adv-x="1246" d="M150 326q0 381 504 381h258v18q0 129 -79.5 202.5t-238.5 83.5q-193 0 -362 -92v150q202 78 381 78q243 0 363 -126t120 -382v-639h-184v160q-129 -189 -387 -189q-172 0 -273.5 96.5t-101.5 258.5zM304 376q7 -41 27.5 -67t56 -38t72 -16t93.5 -4q74 0 118.5 10t78 40 t46.5 85t13 145v41h-166q-134 0 -208 -21t-102 -61.5t-29 -113.5zM321 1718h197l282 -374h-273z" />
<glyph unicode="&#xe1;" horiz-adv-x="1246" d="M150 326q0 381 504 381h258v18q0 129 -79.5 202.5t-238.5 83.5q-193 0 -362 -92v150q202 78 381 78q243 0 363 -126t120 -382v-639h-184v160q-129 -189 -387 -189q-172 0 -273.5 96.5t-101.5 258.5zM304 376q7 -41 27.5 -67t56 -38t72 -16t93.5 -4q74 0 118.5 10t78 40 t46.5 85t13 145v41h-166q-134 0 -208 -21t-102 -61.5t-29 -113.5zM534 1320l312 418h221l-363 -418h-170z" />
<glyph unicode="&#xe2;" horiz-adv-x="1246" d="M150 326q0 381 504 381h258v18q0 129 -79.5 202.5t-238.5 83.5q-193 0 -362 -92v150q202 78 381 78q243 0 363 -126t120 -382v-639h-184v160q-129 -189 -387 -189q-172 0 -273.5 96.5t-101.5 258.5zM304 376q7 -41 27.5 -67t56 -38t72 -16t93.5 -4q74 0 118.5 10t78 40 t46.5 85t13 145v41h-166q-134 0 -208 -21t-102 -61.5t-29 -113.5zM332 1262l245 376h148l245 -376h-139l-180 245l-180 -245h-139z" />
<glyph unicode="&#xe3;" horiz-adv-x="1246" d="M150 326q0 381 504 381h258v18q0 129 -79.5 202.5t-238.5 83.5q-193 0 -362 -92v150q202 78 381 78q243 0 363 -126t120 -382v-639h-184v160q-129 -189 -387 -189q-172 0 -273.5 96.5t-101.5 258.5zM304 376q7 -41 27.5 -67t56 -38t72 -16t93.5 -4q74 0 118.5 10t78 40 t46.5 85t13 145v41h-166q-134 0 -208 -21t-102 -61.5t-29 -113.5zM321 1309q2 135 53 208.5t142 73.5q71 0 139 -61l57 -55q42 -39 68 -39q38 0 56 37q19 37 20 118h125q-2 -135 -53 -208.5t-142 -73.5q-71 0 -139 61l-57 55q-42 39 -68 39q-38 0 -56 -36q-19 -39 -20 -119 h-125z" />
<glyph unicode="&#xe4;" horiz-adv-x="1246" d="M150 326q0 381 504 381h258v18q0 129 -79.5 202.5t-238.5 83.5q-193 0 -362 -92v150q202 78 381 78q243 0 363 -126t120 -382v-639h-184v160q-129 -189 -387 -189q-172 0 -273.5 96.5t-101.5 258.5zM304 376q7 -41 27.5 -67t56 -38t72 -16t93.5 -4q74 0 118.5 10t78 40 t46.5 85t13 145v41h-166q-134 0 -208 -21t-102 -61.5t-29 -113.5zM332 1350v217h218v-217h-218zM751 1350v217h218v-217h-218z" />
<glyph unicode="&#xe5;" horiz-adv-x="1246" d="M150 326q0 381 504 381h258v18q0 129 -79.5 202.5t-238.5 83.5q-193 0 -362 -92v150q202 78 381 78q243 0 363 -126t120 -382v-639h-184v160q-129 -189 -387 -189q-172 0 -273.5 96.5t-101.5 258.5zM304 376q7 -41 27.5 -67t56 -38t72 -16t93.5 -4q74 0 118.5 10t78 40 t46.5 85t13 145v41h-166q-134 0 -208 -21t-102 -61.5t-29 -113.5zM377 1524q0 115 79.5 194.5t194.5 79.5t194.5 -79.5t79.5 -194.5t-79.5 -195t-194.5 -80t-194.5 80t-79.5 195zM499 1524q0 -65 43.5 -108.5t108.5 -43.5q64 0 108 44t44 108q0 63 -44 107t-108 44 q-65 0 -108.5 -43.5t-43.5 -107.5z" />
<glyph unicode="&#xe6;" horiz-adv-x="2218" d="M224 326q0 242 122 341.5t382 99.5h258v18q0 35 -22 76.5t-61 80t-101.5 64t-133.5 25.5q-193 0 -362 -92v130q202 78 381 78q142 0 248.5 -48t160.5 -136q152 184 418 184q146 0 259.5 -68t172 -176.5t58.5 -236.5v-90h-846q13 -139 118.5 -235t280.5 -96q205 0 404 106 v-264q-92 -39 -140 -57.5t-128 -38.5t-146 -20q-337 0 -492 240q-145 -240 -432 -240q-189 0 -294 93.5t-105 261.5zM408 395q0 -78 64.5 -124t175.5 -46q159 0 248.5 89.5t89.5 275.5v33h-183q-95 0 -156 -5t-110.5 -19t-75.5 -40t-39.5 -65.5t-13.5 -98.5zM1164 719l655 1 q0 55 -22.5 112t-60.5 104.5t-96 78t-124 30.5q-74 0 -138 -29t-108 -76t-71.5 -104t-34.5 -117z" />
<glyph unicode="&#xe7;" horiz-adv-x="1186" d="M150 559q0 274 150.5 431t412.5 157q173 0 323 -70v-162q-157 86 -315 86q-177 0 -272 -117t-95 -325q14 -142 95.5 -201.5t263.5 -69.5q13 0 61.5 -1t69.5 0t59 5t68.5 14t60.5 26l4 -289q-154 -72 -335 -72q-253 0 -402 159t-149 429zM428 -240q63 -32 155 -32 q119 0 119 94q0 59 -88 178h119q109 -124 109 -215q0 -180 -238 -180q-90 0 -176 24v131z" />
<glyph unicode="&#xe8;" d="M150 549q10 278 154.5 438t395.5 160q228 -10 343.5 -122t134.5 -349v-70h-836q1 -88 20 -151t50 -102t83.5 -62t107.5 -33t135 -14q75 0 108.5 1t93.5 6.5t107.5 20t94.5 39.5l4 -254q-204 -86 -415 -86q-270 10 -425.5 162t-155.5 416zM343 1718h197l282 -374h-273z M362 766l656 1q-8 48 -33.5 97t-64.5 91t-96.5 68.5t-122.5 26.5q-74 0 -139 -25.5t-108 -66t-67.5 -91t-24.5 -101.5z" />
<glyph unicode="&#xe9;" d="M150 549q10 278 154.5 438t395.5 160q228 -10 343.5 -122t134.5 -349v-70h-836q1 -88 20 -151t50 -102t83.5 -62t107.5 -33t135 -14q75 0 108.5 1t93.5 6.5t107.5 20t94.5 39.5l4 -254q-204 -86 -415 -86q-270 10 -425.5 162t-155.5 416zM362 766l656 1q-8 48 -33.5 97 t-64.5 91t-96.5 68.5t-122.5 26.5q-74 0 -139 -25.5t-108 -66t-67.5 -91t-24.5 -101.5zM556 1320l312 418h221l-363 -418h-170z" />
<glyph unicode="&#xea;" d="M150 549q10 278 154.5 438t395.5 160q228 -10 343.5 -122t134.5 -349v-70h-836q1 -88 20 -151t50 -102t83.5 -62t107.5 -33t135 -14q75 0 108.5 1t93.5 6.5t107.5 20t94.5 39.5l4 -254q-204 -86 -415 -86q-270 10 -425.5 162t-155.5 416zM354 1262l245 376h148l245 -376 h-139l-180 245l-180 -245h-139zM362 766l656 1q-8 48 -33.5 97t-64.5 91t-96.5 68.5t-122.5 26.5q-74 0 -139 -25.5t-108 -66t-67.5 -91t-24.5 -101.5z" />
<glyph unicode="&#xeb;" d="M150 549q10 278 154.5 438t395.5 160q228 -10 343.5 -122t134.5 -349v-70h-836q1 -88 20 -151t50 -102t83.5 -62t107.5 -33t135 -14q75 0 108.5 1t93.5 6.5t107.5 20t94.5 39.5l4 -254q-204 -86 -415 -86q-270 10 -425.5 162t-155.5 416zM354 1350v217h218v-217h-218z M362 766l656 1q-8 48 -33.5 97t-64.5 91t-96.5 68.5t-122.5 26.5q-74 0 -139 -25.5t-108 -66t-67.5 -91t-24.5 -101.5zM773 1350v217h218v-217h-218z" />
<glyph unicode="&#xec;" horiz-adv-x="785" d="M150 1638h197l282 -374h-273zM451 0v1120h184v-1120h-184z" />
<glyph unicode="&#xed;" horiz-adv-x="833" d="M150 1220l312 418h221l-363 -418h-170zM259 0v1120h184v-1120h-184z" />
<glyph unicode="&#xee;" horiz-adv-x="938" d="M150 1262l245 376h148l245 -376h-139l-180 245l-180 -245h-139zM432 0v1120h184v-1120h-184z" />
<glyph unicode="&#xef;" horiz-adv-x="937" d="M150 1350v217h218v-217h-218zM375 0v1120h184v-1120h-184zM569 1350v217h218v-217h-218z" />
<glyph unicode="&#xf0;" d="M150 537q0 250 138 405.5t359 155.5q32 0 112 -10l-159 180l-319 -107l-33 99l281 92l-181 204h228l127 -145l333 111l33 -97l-295 -98l164 -186q126 -143 183 -287t57 -317q0 -255 -141.5 -410.5t-372.5 -155.5t-372.5 155.5t-141.5 410.5zM344 537q0 -41 5 -75 t12.5 -59.5t22.5 -45t29 -33t37.5 -23t43.5 -14.5t51.5 -8t56 -3.5t62.5 -0.5q49 0 79 1.5t68 7t60.5 16t46.5 29.5t36.5 46.5t20.5 68t8 93.5q0 241 -108 378q-96 33 -179 33q-167 0 -259.5 -108t-92.5 -303z" />
<glyph unicode="&#xf1;" horiz-adv-x="1308" d="M150 0l30 1130h185v-134q41 32 73.5 53.5t80 46.5t100.5 38t108 13q381 0 401 -471l30 -676h-264l40 680q0 162 -53.5 239.5t-174.5 77.5q-165 0 -248 -93t-83 -261l30 -643h-255zM305 1309q2 135 53 208.5t142 73.5q71 0 139 -61l57 -55q42 -39 68 -39q38 0 56 37 q19 37 20 118h125q-2 -135 -53 -208.5t-142 -73.5q-71 0 -139 61l-57 55q-42 39 -68 39q-38 0 -56 -36q-19 -39 -20 -119h-125z" />
<glyph unicode="&#xf2;" d="M150 559q0 276 136.5 432t377.5 156q240 0 377 -156t137 -432q0 -275 -137 -431.5t-377 -156.5q-241 0 -377.5 156.5t-136.5 431.5zM334 1718h197l282 -374h-273zM344 591q0 -77 15 -131.5t40 -87.5t67 -51.5t87.5 -25t110.5 -6.5q64 0 109 6.5t87 25t67.5 51.5 t40.5 87.5t15 131.5q0 193 -86 306.5t-233 113.5q-148 0 -234 -112.5t-86 -307.5z" />
<glyph unicode="&#xf3;" d="M150 559q0 276 136.5 432t377.5 156q240 0 377 -156t137 -432q0 -275 -137 -431.5t-377 -156.5q-241 0 -377.5 156.5t-136.5 431.5zM344 591q0 -77 15 -131.5t40 -87.5t67 -51.5t87.5 -25t110.5 -6.5q64 0 109 6.5t87 25t67.5 51.5t40.5 87.5t15 131.5q0 193 -86 306.5 t-233 113.5q-148 0 -234 -112.5t-86 -307.5zM547 1320l312 418h221l-363 -418h-170z" />
<glyph unicode="&#xf4;" d="M150 559q0 276 136.5 432t377.5 156q240 0 377 -156t137 -432q0 -275 -137 -431.5t-377 -156.5q-241 0 -377.5 156.5t-136.5 431.5zM344 591q0 -77 15 -131.5t40 -87.5t67 -51.5t87.5 -25t110.5 -6.5q64 0 109 6.5t87 25t67.5 51.5t40.5 87.5t15 131.5q0 193 -86 306.5 t-233 113.5q-148 0 -234 -112.5t-86 -307.5zM345 1262l245 376h148l245 -376h-139l-180 245l-180 -245h-139z" />
<glyph unicode="&#xf5;" d="M150 559q0 276 136.5 432t377.5 156q240 0 377 -156t137 -432q0 -275 -137 -431.5t-377 -156.5q-241 0 -377.5 156.5t-136.5 431.5zM334 1309q2 135 53 208.5t142 73.5q71 0 139 -61l57 -55q42 -39 68 -39q38 0 56 37q19 37 20 118h125q-2 -135 -53 -208.5t-142 -73.5 q-71 0 -139 61l-57 55q-42 39 -68 39q-38 0 -56 -36q-19 -39 -20 -119h-125zM344 591q0 -77 15 -131.5t40 -87.5t67 -51.5t87.5 -25t110.5 -6.5q64 0 109 6.5t87 25t67.5 51.5t40.5 87.5t15 131.5q0 193 -86 306.5t-233 113.5q-148 0 -234 -112.5t-86 -307.5z" />
<glyph unicode="&#xf6;" d="M150 559q0 276 136.5 432t377.5 156q240 0 377 -156t137 -432q0 -275 -137 -431.5t-377 -156.5q-241 0 -377.5 156.5t-136.5 431.5zM344 591q0 -77 15 -131.5t40 -87.5t67 -51.5t87.5 -25t110.5 -6.5q64 0 109 6.5t87 25t67.5 51.5t40.5 87.5t15 131.5q0 193 -86 306.5 t-233 113.5q-148 0 -234 -112.5t-86 -307.5zM345 1350v217h218v-217h-218zM764 1350v217h218v-217h-218z" />
<glyph unicode="&#xf7;" horiz-adv-x="1632" d="M150 507v220h1332v-220h-1332zM668 50v295h296v-295h-296zM668 889v296h296v-296h-296z" />
<glyph unicode="&#xf8;" horiz-adv-x="1410" d="M150 -16l149 182q-108 154 -108 393q0 276 136.5 432t377.5 156q186 0 319 -103l139 168l95 -79l-146 -179q107 -155 107 -395q0 -275 -137 -431.5t-377 -156.5q-193 0 -320 103l-139 -168zM385 545q0 -140 39 -228l488 592q-83 82 -207 82q-151 0 -235.5 -117.5 t-84.5 -328.5zM496 209q81 -82 209 -82q147 0 233 116t86 316q0 153 -41 242z" />
<glyph unicode="&#xf9;" horiz-adv-x="1248" d="M150 442v678h154v-511q10 -162 68.5 -240t179.5 -78q147 0 229.5 93.5t92.5 260.5l20 475h204l-20 -1120h-184l10 172q-132 -201 -361 -201q-193 0 -293 120t-100 351zM301 1718h197l282 -374h-273z" />
<glyph unicode="&#xfa;" horiz-adv-x="1248" d="M150 442v678h154v-511q10 -162 68.5 -240t179.5 -78q147 0 229.5 93.5t92.5 260.5l20 475h204l-20 -1120h-184l10 172q-132 -201 -361 -201q-193 0 -293 120t-100 351zM514 1320l312 418h221l-363 -418h-170z" />
<glyph unicode="&#xfb;" horiz-adv-x="1248" d="M150 442v678h154v-511q10 -162 68.5 -240t179.5 -78q147 0 229.5 93.5t92.5 260.5l20 475h204l-20 -1120h-184l10 172q-132 -201 -361 -201q-193 0 -293 120t-100 351zM312 1262l245 376h148l245 -376h-139l-180 245l-180 -245h-139z" />
<glyph unicode="&#xfc;" horiz-adv-x="1248" d="M150 442v678h154v-511q10 -162 68.5 -240t179.5 -78q147 0 229.5 93.5t92.5 260.5l20 475h204l-20 -1120h-184l10 172q-132 -201 -361 -201q-193 0 -293 120t-100 351zM312 1350v217h218v-217h-218zM731 1350v217h218v-217h-218z" />
<glyph unicode="&#xfd;" horiz-adv-x="1390" d="M150 1120h195l396 -651l304 651h195l-472 -1224q-49 -109 -92 -177t-91 -104t-94 -48.5t-113 -12.5h-167v244h128q37 0 65 8t54 29.5t43 40t49 58.5l79 159zM490 1320l312 418h221l-363 -418h-170z" />
<glyph unicode="&#xfe;" horiz-adv-x="1278" d="M275 -426v1982h185v-606q114 197 358 197q204 0 331.5 -162.5t127.5 -425.5t-127.5 -425.5t-331.5 -162.5q-244 0 -358 197v-594h-185zM460 559q0 -203 83.5 -318.5t229.5 -115.5t229.5 115.5t83.5 318.5t-83.5 318.5t-229.5 115.5t-229.5 -115.5t-83.5 -318.5z" />
<glyph unicode="&#xff;" horiz-adv-x="1390" d="M150 1120h195l396 -651l304 651h195l-472 -1224q-49 -109 -92 -177t-91 -104t-94 -48.5t-113 -12.5h-167v244h128q37 0 65 8t54 29.5t43 40t49 58.5l79 159zM288 1350v217h218v-217h-218zM707 1350v217h218v-217h-218z" />
<glyph unicode="&#x152;" horiz-adv-x="2334" d="M194 748q0 366 224 555.5t656 189.5h1047v-130h-742v-412h731v-170h-731v-501h760v-280h-1065q-433 0 -656.5 190t-223.5 558zM407 748q0 -73 25 -140.5t77.5 -127.5t127.5 -104.5t180.5 -70t230.5 -25.5h129v1083h-129q-326 0 -483.5 -146t-157.5 -469z" />
<glyph unicode="&#x153;" horiz-adv-x="2306" d="M220 559q0 276 136.5 432t377.5 156q283 0 417 -219q78 107 194 163t259 56q86 0 166 -28t137 -71.5t100.5 -96t65 -103.5t21.5 -92v-90h-846q3 -84 11.5 -150.5t24 -115.5t33 -84.5t46 -59t55 -37.5t67 -21t75.5 -9t87 -2q207 0 404 104v-234q-204 -86 -414 -86 q-320 0 -483 219q-142 -219 -420 -219q-241 0 -377.5 156.5t-136.5 431.5zM414 623q0 -185 85.5 -291.5t234.5 -106.5q147 0 233 107t86 291q0 183 -86 290.5t-233 107.5q-148 0 -234 -106.5t-86 -291.5zM1254 799l655 1q-1 32 -23.5 72.5t-60 78.5t-96 64t-123.5 26 q-72 0 -137.5 -24.5t-108.5 -62.5t-70.5 -78.5t-35.5 -76.5z" />
<glyph unicode="&#x178;" horiz-adv-x="1559" d="M150 1493h217l414 -764l411 764h217l-498 -982v-511h-273v511zM459 1723v217h218v-217h-218zM878 1723v217h218v-217h-218z" />
<glyph unicode="&#x2c6;" horiz-adv-x="938" d="M150 1262l245 376h148l245 -376h-139l-180 245l-180 -245h-139z" />
<glyph unicode="&#x2dc;" horiz-adv-x="960" d="M150 1309q2 135 53 208.5t142 73.5q71 0 139 -61l57 -55q42 -39 68 -39q38 0 56 37q19 37 20 118h125q-2 -135 -53 -208.5t-142 -73.5q-71 0 -139 61l-57 55q-42 39 -68 39q-38 0 -56 -36q-19 -39 -20 -119h-125z" />
<glyph unicode="&#x2000;" horiz-adv-x="1055" />
<glyph unicode="&#x2001;" horiz-adv-x="2111" />
<glyph unicode="&#x2002;" horiz-adv-x="1055" />
<glyph unicode="&#x2003;" horiz-adv-x="2111" />
<glyph unicode="&#x2004;" horiz-adv-x="703" />
<glyph unicode="&#x2005;" horiz-adv-x="527" />
<glyph unicode="&#x2006;" horiz-adv-x="351" />
<glyph unicode="&#x2007;" horiz-adv-x="351" />
<glyph unicode="&#x2008;" horiz-adv-x="263" />
<glyph unicode="&#x2009;" horiz-adv-x="422" />
<glyph unicode="&#x200a;" horiz-adv-x="117" />
<glyph unicode="&#x2010;" horiz-adv-x="846" d="M150 479l7 164l539 10l-7 -165z" />
<glyph unicode="&#x2011;" horiz-adv-x="846" d="M150 479l7 164l539 10l-7 -165z" />
<glyph unicode="&#x2012;" horiz-adv-x="846" d="M150 479l7 164l539 10l-7 -165z" />
<glyph unicode="&#x2013;" horiz-adv-x="1324" d="M150 489v144h1024v-144h-1024z" />
<glyph unicode="&#x2014;" horiz-adv-x="2348" d="M150 489v144h2048v-144h-2048z" />
<glyph unicode="&#x2018;" horiz-adv-x="618" d="M150 914v212l201 393h159l-100 -393v-212h-260z" />
<glyph unicode="&#x2019;" horiz-adv-x="589" d="M150 939l99 386v185h256v-185l-199 -386h-156z" />
<glyph unicode="&#x201a;" horiz-adv-x="593" d="M150 -238l82 320v172h211v-172l-164 -320h-129z" />
<glyph unicode="&#x201c;" horiz-adv-x="1174" d="M150 881v215l204 397h160l-102 -397v-215h-262zM660 881v215l204 397h160l-102 -397v-215h-262z" />
<glyph unicode="&#x201d;" horiz-adv-x="1117" d="M150 921l95 372v200h246v-200l-191 -372h-150zM626 921l96 372v200h245v-200l-191 -372h-150z" />
<glyph unicode="&#x201e;" horiz-adv-x="1183" d="M150 -238l103 402v216h265v-216l-206 -402h-162zM665 -238l103 402v216h265v-216l-206 -402h-162z" />
<glyph unicode="&#x2022;" horiz-adv-x="894" d="M150 762q0 124 86.5 209.5t212.5 85.5q124 0 209.5 -85.5t85.5 -209.5q0 -125 -86 -211t-211 -86t-211 86t-86 211z" />
<glyph unicode="&#x2026;" horiz-adv-x="1986" d="M150 0v364h323v-364h-323zM832 0v364h322v-364h-322zM1513 0v364h323v-364h-323z" />
<glyph unicode="&#x202f;" horiz-adv-x="422" />
<glyph unicode="&#x2039;" horiz-adv-x="769" d="M150 559v82l469 418v-191l-301 -268l301 -268v-191z" />
<glyph unicode="&#x203a;" horiz-adv-x="769" d="M150 141v191l301 268l-301 268v191l469 -418v-82z" />
<glyph unicode="&#x205f;" horiz-adv-x="527" />
<glyph unicode="&#x20ac;" horiz-adv-x="1467" d="M150 480l55 163h139v47q-1 15 -1 55q0 43 1 59v46h-194l55 123h156q40 257 195 402t391 145q197 0 370 -142v-163q-90 104 -174.5 149.5t-187.5 45.5q-152 0 -254.5 -121.5t-136.5 -315.5h577l-55 -123h-538q-3 -32 -3 -105q0 -70 3 -102h446l-56 -163h-364q6 -31 36 -73 t76.5 -84.5t115.5 -72t143 -29.5q101 0 185.5 44.5t186.5 150.5v-301q-179 -144 -370 -144q-233 0 -389 142.5t-187 366.5h-221z" />
<glyph unicode="&#x2122;" horiz-adv-x="1641" d="M150 1399v94h518v-94h-203l30 -484h-174l30 484h-201zM751 915l40 578h172l164 -326l174 326h170l20 -578h-173l30 484l-175 -433h-95l-183 433l30 -484h-174z" />
<glyph unicode="&#xe000;" horiz-adv-x="1120" d="M0 0v1120h1120v-1120h-1120z" />
</font>
</defs>
</svg>
