<?xml version="1.0" standalone="no"?>
<!DOCTYPE svg PUBLIC "-//W3C//DTD SVG 1.1//EN" "http://www.w3.org/Graphics/SVG/1.1/DTD/svg11.dtd" >
<svg xmlns="http://www.w3.org/2000/svg">
<metadata></metadata>
<defs>
<font id="opendyslexicmonoregular" horiz-adv-x="1500" >
<font-face units-per-em="2048" ascent="1638" descent="-410" />
<missing-glyph horiz-adv-x="500" />
<glyph unicode="&#xfb01;" d="M205 1037q0 -50 50 -50h75q52 0 50 -51l-18 -885q-2 -51 50 -51h143q51 0 49 51l-26 885q-2 51 49 51h383q52 0 50 -51l-18 -885q-2 -51 50 -51h133q52 0 50 51l-28 1020q-2 49 -50 49h-571q-50 0 -50 50v49q0 176 145 192q50 7 61 9l102 23q44 10 44 55v55q0 53 -53 47 l-132 -14q-185 -31 -273.5 -120.5t-88.5 -267.5v-28q0 -50 -50 -50h-76q-50 0 -50 -50v-33zM1061 1371q0 -50 50 -50h85q50 0 50 50v133q0 50 -50 50h-85q-50 0 -50 -50v-133z" />
<glyph unicode="&#xfb02;" d="M169 1027q0 -50 50 -50h65q51 0 49 -51l-26 -875q-2 -51 49 -51h192q52 0 49 52l-54 873q-3 52 49 52h191q50 0 50 50v43q0 50 -50 50h-195q-48 0 -52 48l-6 71q0 104 38.5 144t137.5 40h279q50 0 50 -50v-1323q0 -50 50 -50h196q24 0 37 13t12 37v110q0 24 -8 37t-22 12 h-30q-24 -1 -37 12t-13 37v1248q0 50 -50 50h-462q-189 0 -276 -85.5t-87 -272.5l-4 -31q-6 -47 -53 -47h-69q-50 0 -50 -50v-43z" />
<glyph horiz-adv-x="0" />
<glyph unicode="&#xd;" horiz-adv-x="2048" />
<glyph />
<glyph />
<glyph unicode=" " />
<glyph unicode="!" d="M618 532q-3 -51 48 -51h169q51 0 48 52l-26 305l-9 605q-2 50 -51 50h-94q-49 0 -51 -49l-18 -606zM628 52q-2 -25 10.5 -38.5t37.5 -13.5h149q25 0 37.5 13.5t10.5 38.5l-12 154q-5 48 -52 48h-117q-48 0 -52 -48z" />
<glyph unicode="&#x22;" d="M451 956q-1 -24 12 -37t37 -13h101q24 0 37 13t12 37l-9 487q-2 50 -51 50h-79q-49 0 -51 -50zM851 956q-1 -24 12 -37t37 -13h101q24 0 37 13t12 37l-9 487q-2 50 -51 50h-80q-49 0 -51 -50z" />
<glyph unicode="#" d="M-26 464q0 -50 50 -50h259q26 0 38 -15t5 -41l-76 -302q-7 -26 5 -41t38 -15h59q46 0 56 43l81 328q10 43 56 43h241q26 0 38 -15t5 -41l-75 -302q-7 -26 5 -41t38 -15h58q46 0 56 43l82 328q10 43 56 43h312q50 0 50 50v53q0 50 -50 50h-261q-26 0 -38 15t-5 40l57 236 q12 43 56 43h306q50 0 50 50v54q0 50 -50 50h-255q-26 0 -38 15t-5 41l75 303q7 26 -5 41t-38 15h-59q-45 0 -55 -43l-83 -329q-10 -43 -55 -43h-241q-26 0 -38 15t-5 41l76 303q7 26 -5 41t-38 15h-60q-44 0 -56 -43l-80 -329q-12 -43 -56 -43h-317q-50 0 -50 -50v-54 q0 -50 50 -50h266q26 0 38 -15t5 -41l-59 -235q-10 -43 -55 -43h-309q-50 0 -50 -50v-53zM553 623l59 235q10 43 55 43h240q26 0 38 -15t5 -40l-57 -236q-12 -43 -56 -43h-241q-26 0 -38 15t-5 41z" />
<glyph unicode="$" d="M267 151q-1 -43 38 -59q161 -65 320 -79q51 -5 46 -53l-16 -200q-5 -50 48 -53h76q25 -1 38 12t11 39l-10 202q-1 48 47 54q169 22 267.5 117t101.5 250q-7 148 -96.5 228.5t-291.5 121.5q-47 11 -46 55l6 368q2 53 53 48q127 -15 238 -65q26 -12 42.5 -2.5t17.5 37.5v48 q2 44 -40 57q-120 38 -259 50q-50 5 -48 53l2 133q1 49 -49 51q-49 2 -51 -49l-2 -137q-1 -46 -50 -52q-181 -19 -278.5 -109.5t-100.5 -243.5q6 -143 91 -228.5t269 -127.5q46 -10 45 -56l-5 -298q-2 -53 -52 -48q-151 15 -300 98q-26 15 -42.5 6t-17.5 -39zM423 973 q0 78 56.5 137t156.5 81q25 6 40 -7t14 -39l-8 -340q-1 -26 -16 -38t-40 -5q-99 26 -151 80t-52 131zM793 520q-1 27 14 39t42 5q188 -54 188 -202q0 -72 -43 -101.5t-139 -46.5q-53 -9 -55 45z" />
<glyph unicode="%" d="M119 1352q0 -188 93 -297.5t252 -109.5t252.5 109t93.5 298q0 186 -94 296t-252 110t-251.5 -110t-93.5 -296zM181.5 -11.5q9.5 -17.5 39.5 -17.5h53q39 0 59 34l886 1455q16 26 6.5 43t-39.5 17h-52q-39 0 -59 -34l-887 -1455q-16 -25 -6.5 -42.5zM279 1358 q0 127 49.5 200t135.5 73t136 -73.5t50 -199.5q0 -122 -46 -168.5t-140 -46.5t-139.5 46.5t-45.5 168.5zM691 296q0 -187 93 -296.5t253 -109.5q157 0 250.5 110t93.5 296q0 187 -93 297t-251 110q-159 0 -252.5 -109.5t-93.5 -297.5zM851 316q0 122 49.5 191t136.5 69 q85 0 134.5 -69.5t49.5 -190.5q0 -114 -46 -157.5t-138 -43.5q-94 0 -140 43.5t-46 157.5z" />
<glyph unicode="&#x26;" d="M100 461q0 -212 150 -343.5t397 -146.5q80 -5 175.5 30.5t188.5 107.5q38 30 71 -3l85 -87q26 -26 61 -26h130q33 0 41 19t-15 43l-187 190q-30 32 -6 71q59 94 82.5 191.5t35.5 234.5q2 25 -10 38.5t-37 13.5h-85q-49 0 -52 -49q-14 -181 -68 -285q-12 -25 -31.5 -26.5 t-38.5 19.5l-447 502q-11 13 -32.5 37t-30.5 34.5t-22.5 26.5t-21.5 27t-13 21q-30 51 -30 102q0 88 65.5 143.5t170.5 55.5q12 0 23 -1t20 -2t20.5 -5t18 -5t20 -7.5t18 -8.5t20 -10.5t19.5 -10.5t23.5 -13t23.5 -14q46 -27 69 20l24 49q24 48 -26 67q-122 45 -223 59 q-116 16 -210 -29.5t-145 -133.5t-51 -196q0 -100 70 -208q26 -41 -11 -70q-229 -187 -229 -422zM243 510q0 157 140 297q37 37 71 -3l407 -477q34 -41 -7 -71q-64 -47 -127.5 -70.5t-108.5 -18.5q-166 17 -270.5 108.5t-104.5 234.5z" />
<glyph unicode="'" d="M621 992q-5 -26 7 -40t38 -14h165q50 0 50 50v455q0 50 -50 50h-74q-47 0 -54 -45z" />
<glyph unicode="(" d="M496 680q0 -448 173 -898q15 -38 56 -41l102 -7q29 -2 40 14t-1 44q-87 203 -121 408.5t-45 462.5q17 414 294 827q16 26 8 43.5t-37 19.5l-53 5q-39 3 -63 -28q-317 -426 -353 -850z" />
<glyph unicode=")" d="M498.5 -215q8.5 -17 38.5 -19l118 -7q41 -3 61 33q67 125 110.5 215.5t88.5 203t67 219.5t22 210q-1 235 -46 454.5t-155 443.5q-17 35 -57 38l-52 5q-30 3 -41 -13t1 -44q88 -208 122 -418.5t34 -448.5q-39 -429 -304 -829q-16 -26 -7.5 -43z" />
<glyph unicode="*" d="M295 1254q-30 -48 22 -67l263 -105q30 -11 31 -31.5t-27 -35.5l-242 -132q-48 -25 -16 -68l37 -53q29 -42 70 -9l195 160q25 20 43 11.5t18 -40.5v-242q0 -26 14.5 -38t39.5 -7l53 10q46 9 42 57l-26 222q-4 32 13 42.5t44 -5.5l229 -138q42 -25 69 14l37 52q15 22 10 40 t-30 28l-271 105q-30 12 -31 32t27 35l251 136q37 21 31 62l-4 32q-4 29 -21 37.5t-42 -7.5l-261 -169q-25 -17 -42.5 -7.5t-17.5 40.5v247q0 27 -15 38.5t-41 5.5l-53 -14q-45 -12 -39 -58l25 -214q4 -32 -13 -42.5t-44 5.5l-228 137q-41 26 -68 -16z" />
<glyph unicode="+" d="M109 607q0 -50 50 -50h457q50 0 50 -50v-457q0 -50 50 -50h68q50 0 50 50v457q0 50 50 50h457q50 0 50 50v70q0 50 -50 50h-457q-50 0 -50 50v457q0 50 -50 50h-68q-50 0 -50 -50v-457q0 -50 -50 -50h-457q-50 0 -50 -50v-70z" />
<glyph unicode="," d="M584 -231q-8 -26 3 -41.5t39 -15.5h31q39 0 60 31l182 261q20 27 20 62v128q0 50 -50 50h-151q-50 0 -50 -50v-131q0 -28 -9 -61z" />
<glyph unicode="-" d="M475 533l12 75q7 45 53 46l438 8q26 1 38.5 -13t8.5 -40l-12 -75q-7 -46 -53 -47l-438 -7q-26 -1 -38.5 13t-8.5 40z" />
<glyph unicode="." d="M593 51q-3 -51 49 -51h198q49 0 52 48l14 233q3 51 -49 51h-198q-49 0 -52 -48z" />
<glyph unicode="/" d="M404 -134q-8 -26 2.5 -41.5t37.5 -16.5l127 -4q44 -1 57 40l469 1570q8 26 -3.5 41t-38.5 16l-49 2q-44 2 -57 -40z" />
<glyph unicode="0" d="M234 745q0 -379 128 -576.5t378 -197.5t383 197.5t143 576.5q0 380 -128 577.5t-378 197.5t-383 -197.5t-143 -577.5zM447 890q0 550 313 550q314 0 314 -550q-21 -279 -100.5 -414t-233.5 -135q-155 0 -224 131.5t-69 417.5zM644 839q0 51 3.5 87t14 72t32.5 55t56 19 q60 0 82.5 -57.5t22.5 -175.5q0 -70 -24 -123t-81 -53t-81.5 53t-24.5 123z" />
<glyph unicode="1" d="M306 1293q0 -26 14.5 -38t40.5 -7l249 50q26 5 40.5 -7t14.5 -38v-923q0 -50 -50 -50h-230q-50 0 -50 -50v-180q0 -50 50 -50h760q50 0 50 50v180q0 50 -50 50h-230q-50 0 -50 50v1113q0 50 -50 50h-122q-27 0 -60 -6l-282 -57q-45 -9 -45 -54v-83z" />
<glyph unicode="2" d="M276 50q0 -50 50 -50h848q50 0 50 50v190q0 50 -50 50h-384q-28 0 -40 16t-1 41q44 102 148 211q128 132 159 167q89 110 124.5 192.5t35.5 176.5q0 194 -138 310t-370 116q-159 0 -382 -84q-40 -15 -40 -57v-95q0 -29 16.5 -38.5t43.5 3.5q204 101 366 101 q134 0 217.5 -75t83.5 -194q0 -72 -38 -148q-43 -84 -121 -168t-243 -210q-170 -129 -306 -241q-29 -23 -29 -61v-203z" />
<glyph unicode="3" d="M259 88q0 -44 41 -57q189 -60 358 -60q283 0 433.5 122.5t150.5 360.5q0 132 -68 225t-188 118q-25 6 -25 10.5t23 13.5q108 39 165.5 120t57.5 192q0 178 -134 282.5t-364 104.5q-161 0 -362 -52q-43 -12 -43 -56v-57q0 -27 15.5 -38t41.5 -3q182 56 330 56 q152 0 233.5 -61.5t81.5 -176.5q0 -112 -79 -171.5t-228 -59.5h-132q-50 0 -50 -50v-66q0 -50 50 -50h124q160 0 255 -72.5t95 -178.5q0 -52 -99 -138q-100 -85 -290 -85q-182 0 -335 69q-26 12 -42 2.5t-16 -38.5v-206z" />
<glyph unicode="4" d="M206 472q0 -50 50 -50h553q51 0 49 -51l-16 -320q-2 -51 49 -51h169q51 0 49 51l-16 320q-2 51 49 51h102q50 0 50 50v68q0 50 -50 50h-103q-45 0 -59 50v803q-2 50 -51 50h-165q-38 0 -60 -33l-581 -885q-19 -27 -19 -62v-41zM401.5 607q-9.5 17 7.5 43l409 640 q20 32 40.5 25.5t20.5 -43.5l-8 -632q-2 -50 -51 -50h-378q-31 0 -40.5 17z" />
<glyph unicode="5" d="M267 79q0 -44 42 -56q183 -52 351 -52q273 0 423 133.5t150 374.5q0 234 -146 371t-396 137q-57 0 -140 -17q-26 -6 -41 5.5t-15 37.5v280q0 50 50 50h528q50 0 50 50v50q0 50 -50 50h-693q-50 0 -50 -50v-637q0 -28 15.5 -38.5t42.5 -0.5q134 50 268 50q176 0 270.5 -77 t94.5 -231q0 -39 -25.5 -83t-70 -83.5t-116 -65.5t-153.5 -26q-176 0 -330 68q-27 12 -43 2t-16 -38v-204z" />
<glyph unicode="6" d="M234 745q0 -377 137.5 -575.5t396.5 -198.5q226 0 362 139t136 369q0 235 -130.5 371.5t-355.5 136.5q-179 0 -297 -123q-22 -23 -33 -18t-8 37q26 235 130 351t290 116q122 0 249 -49q26 -11 42 -0.5t16 38.5v78q0 44 -41 57q-142 46 -274 46q-283 0 -451.5 -210.5 t-168.5 -564.5zM473 479q0 162 79.5 255t215.5 93t215.5 -93t79.5 -255q0 -101 -79.5 -159.5t-215.5 -58.5t-215.5 58.5t-79.5 159.5z" />
<glyph unicode="7" d="M275 1393q0 -50 50 -50h654q29 0 40 -16t-1 -42l-562 -1227q-12 -26 -1 -42t40 -16h254q42 0 55 43l413 1334q8 25 8 61v5q0 50 -50 50h-850q-50 0 -50 -50v-50z" />
<glyph unicode="8" d="M218 420q0 -215 141.5 -332t390.5 -117t390.5 117t141.5 332q0 127 -74.5 221.5t-200.5 138.5q-25 8 -25 15t24 17q201 80 201 321q0 164 -120 265.5t-337 101.5q-216 0 -336.5 -101.5t-120.5 -265.5q0 -241 201 -321q25 -10 25 -17t-25 -16q-127 -43 -201.5 -137.5 t-74.5 -221.5zM441 440q0 135 82.5 212t226.5 77q145 0 227.5 -77t82.5 -212q0 -81 -87 -150t-223 -69t-222.5 68.5t-86.5 150.5zM474 1174q0 99 74 162.5t202 63.5q127 0 202 -64t75 -162q0 -116 -73.5 -181t-203.5 -65q-131 0 -203.5 65t-72.5 181z" />
<glyph unicode="9" d="M266 1012q0 -91 22 -158.5t58 -107.5t92.5 -64t115 -32t135.5 -8q97 0 188.5 20t144.5 61q26 20 35 16.5t5 -35.5q-10 -90 -49.5 -164t-99.5 -126t-138.5 -88t-167 -53t-185.5 -17q-27 0 -42.5 -18.5t-15.5 -47.5v-167q0 -44 41 -57q190 0 341 46.5t260.5 140.5 t168.5 244t59 348q0 380 -136 577.5t-396 197.5q-184 0 -310 -141.5t-126 -366.5zM387 1044q0 170 69.5 259t228.5 89q165 0 262 -93.5t97 -254.5q0 -99 -90 -136.5t-269 -37.5q-165 0 -231.5 39t-66.5 135z" />
<glyph unicode=":" d="M620 50q0 -50 50 -50h161q50 0 50 50v206q0 50 -50 50h-161q-50 0 -50 -50v-206zM620 866q0 -50 50 -50h161q50 0 50 50v185q0 50 -50 50h-161q-50 0 -50 -50v-185z" />
<glyph unicode=";" d="M594 -272q-7 -26 5 -41t38 -15h46q41 0 58 36l149 290q15 29 15 62v108q0 50 -50 50h-134q-50 0 -50 -50v-110q0 -32 -8 -61zM666 853q0 -50 50 -50h143q50 0 50 50v193q0 50 -50 50h-143q-50 0 -50 -50v-193z" />
<glyph unicode="&#x3c;" d="M86 633q-5 -42 35 -60l1143 -530q25 -12 41.5 -2.5t18.5 37.5l12 137q4 43 -35 61l-869 395q-32 14 -30.5 35t35.5 30l925 240q41 12 45 53l7 78q2 28 -12.5 40t-41.5 5l-1217 -324q-41 -12 -45 -53z" />
<glyph unicode="=" d="M109 402q0 -50 50 -50h1182q50 0 50 50v100q0 50 -50 50h-1182q-50 0 -50 -50v-100zM109 812q0 -50 50 -50h1182q50 0 50 50v68q0 50 -50 50h-1182q-50 0 -50 -50v-68z" />
<glyph unicode="&#x3e;" d="M86 198q-2 -28 12.5 -40t41.5 -5l1218 324q41 12 45 54l12 141q3 43 -36 60l-1142 531q-25 12 -41.5 2.5t-18.5 -37.5l-7 -78q-4 -43 35 -61l866 -396q32 -15 30.5 -36t-35.5 -29l-923 -239q-41 -12 -45 -54z" />
<glyph unicode="?" d="M357 1320q0 -30 17 -39t44 7q162 98 294 98q96 0 160.5 -57.5t76.5 -141.5q4 -32 -6 -59q-14 -34 -45.5 -65.5t-104.5 -91.5l-100 -89q-87 -84 -116.5 -153t-29.5 -174v-104q0 -50 50 -50h161q50 0 50 50v73q0 52 3 82q6 60 37 103q10 14 30 46q18 29 36 49l58 64 q90 97 131 163t41 136q0 160 -107 256.5t-290 96.5t-356 -93q-34 -20 -34 -60v-47zM541 40q0 -50 50 -50h163q50 0 50 50v184q0 50 -50 50h-163q-50 0 -50 -50v-184z" />
<glyph unicode="@" d="M-135 543q0 -189 67 -353.5t195 -289.5t292 -190.5t349 -65.5q289 0 535 173q37 27 17 68l-46 91q-23 48 -68 17q-190 -126 -438 -126q-166 0 -291.5 41.5t-226.5 141.5q-71 75 -111.5 125t-73.5 109t-46 119.5t-13 139.5q0 193 88.5 358.5t245.5 267.5q194 129 445 129 q176 0 325.5 -69.5t253.5 -200.5q127 -160 127 -375q0 -159 -67 -266t-189 -144q-25 -7 -40 5t-15 39v630q0 50 -50 50h-43q-50 0 -50 -24v-24q0 -33 -16 -39t-41 16q-104 91 -261 91q-171 0 -279 -125t-108 -325t107.5 -324.5t279.5 -124.5q159 0 261 89q25 23 41 17 t16 -39v-35q0 -38 52 -33q257 19 401.5 169.5t144.5 400.5q0 249 -154 451q-123 160 -304.5 247t-393.5 87q-189 0 -358 -67.5t-298 -194.5q-126 -125 -194 -290t-68 -347zM462 619q0 126 71.5 199.5t192.5 73.5q122 0 194 -74t72 -199q0 -127 -70.5 -200.5t-193.5 -73.5 q-124 0 -195 73t-71 201z" />
<glyph unicode="A" d="M89 58q-5 -13 -5 -23q0 -11 6 -19q10 -16 38 -16h168q43 0 56 41l50 161q13 41 56 41h585q45 0 55 -44l36 -155q10 -44 55 -44h183q28 0 38 16q5 8 6 19q0 10 -5 23l-551 1396q-14 39 -57 39h-105q-43 0 -57 -39zM495 538l223 674q8 22 20 30q6 4 12 4l12 -4 q12 -8 20 -30l224 -674q4 -12 4 -21q0 -13 -6 -21q-11 -16 -39 -15h-429q-28 -1 -39 15q-6 9 -6 21q0 9 4 21z" />
<glyph unicode="B" d="M210 50q0 -50 51 -50h486q253 0 398 109.5t145 308.5q0 300 -331 377q-25 5 -25 10t24 12q200 61 200 307q0 177 -125 273t-356 96h-416q-51 0 -51 -50v-1393zM413 346v317q0 50 50 50h274q163 0 242 -66q78 -67 78 -117q0 -134 -75 -184t-245 -50h-274q-50 0 -50 50z M413 927v380q0 50 50 50h249q144 0 218.5 -69t74.5 -186q0 -225 -293 -225h-249q-50 0 -50 50z" />
<glyph unicode="C" d="M148 745q0 -359 195 -566.5t534 -207.5q244 0 442 123q33 20 33 60v233q0 32 -17 40t-43 -12q-180 -138 -403 -138q-265 0 -394.5 107t-133.5 361q0 296 136 452.5t392 156.5q223 0 403 -138q26 -20 43 -12t17 40v95q0 41 -33 60q-194 121 -442 121q-339 0 -534 -207.5 t-195 -567.5z" />
<glyph unicode="D" d="M174 50q0 -50 50 -50h366q737 0 737 748q0 745 -737 745h-366q-50 0 -50 -50v-1393zM387 426v851q0 50 50 50h194q227 0 356.5 -134t136.5 -394q0 -30 -7 -61q-51 -208 -156.5 -285t-329.5 -77h-194q-50 0 -50 50z" />
<glyph unicode="E" d="M269 50q0 -50 50 -50h862q50 0 50 50v210q0 50 -50 50h-660q-50 0 -50 50v301q0 50 50 50h611q50 0 50 50v70q0 50 -50 50h-611q-50 0 -50 50v342q0 50 50 50h642q50 0 50 50v70q0 50 -50 50h-844q-50 0 -50 -50v-1393z" />
<glyph unicode="F" d="M322 51q-2 -51 50 -51h150q50 0 50 51l-17 571q-2 51 49 51h471q50 0 50 50v110q0 50 -50 50h-481q-51 0 -49 51l16 330q2 49 51 49h517q50 0 50 50v80q0 50 -50 50h-719q-48 0 -50 -49z" />
<glyph unicode="G" d="M148 745q0 -152 18 -265.5t62 -208.5t117.5 -156t184.5 -98t263 -46q23 -1 47 -1q249 0 480 147q32 21 32 61v522q0 50 -50 50h-480q-50 0 -50 -50v-116q0 -50 50 -50h250q50 0 50 -50v-74q0 -42 -28 -60q-87 -53 -284 -53q-119 0 -198 21.5t-135.5 74.5t-83.5 143.5 t-32 228.5q0 293 125 451t324 158q242 0 443 -144q25 -19 42.5 -10.5t17.5 39.5v80q0 39 -34 59q-215 122 -486 122q-134 0 -251.5 -53t-205 -150.5t-138 -245t-50.5 -326.5z" />
<glyph unicode="H" d="M172 50q-1 -24 12 -37t37 -13h132q50 0 50 50v401q0 50 50 50h594q50 0 50 -50v-401q0 -50 50 -50h132q24 0 37 13t12 37l-18 1393q-2 50 -51 50h-112q-50 0 -50 -50v-612q0 -50 -50 -50h-594q-50 0 -50 50v612q0 50 -50 50h-112q-49 0 -51 -50z" />
<glyph unicode="I" d="M632 51v-5q0 -46 49 -46h139q48 0 48 45v6q-10 210 -14.5 423t-8 546t-3.5 423q-2 50 -51 50h-73q-48 0 -50 -49q-2 -112 -5.5 -340t-6 -365t-9 -331t-15.5 -357z" />
<glyph unicode="J" d="M240 -147v-226q2 -48 48 -52l70 -7q240 4 349.5 116t121.5 379l62 1369q2 49 -47 52l-112 8h-5q-45 0 -48 -48l-82 -1368q-4 -67 -60.5 -120t-165.5 -66q-27 -2 -62 4l-17 4q-26 5 -40 -6q-12 -11 -12 -32v-7z" />
<glyph unicode="K" d="M170 51q-2 -51 50 -51h160q48 0 48 45v6l-31 554q-2 37 18 44t42 -23l419 -595q21 -31 60 -31h351q33 0 41 19q2 5 2 10q0 15 -17 33l-697 699q-18 18 -18 35q0 18 19 36l638 599q25 24 18 43t-42 19h-134q-36 0 -62 -25l-581 -546q-24 -23 -42.5 -15t-17.5 42l15 493 q2 51 -49 51h-102q-48 0 -50 -49z" />
<glyph unicode="L" d="M282 50q-1 -24 12 -37t37 -13h821q48 0 51 48l14 210v6q0 46 -49 46h-625q-25 0 -36 13.5t-4 36.5v1083q0 50 -50 50h-102q-49 0 -51 -50z" />
<glyph unicode="M" d="M98 51q-2 -51 50 -51h174q51 0 49 51l-32 1071q-1 21 10.5 31.5t25.5 4.5t19 -26l220 -874q10 -41 57 -41h157q47 0 57 41l220 874q5 20 19 26t25.5 -4.5t10.5 -31.5l-32 -1071q-2 -51 49 -51h175q52 0 50 51l-28 1393q-2 49 -50 49h-191q-43 0 -58 -38l-292 -771 q-11 -30 -33.5 -30t-33.5 31l-272 769q-14 39 -58 39h-210q-48 0 -50 -49z" />
<glyph unicode="N" d="M176 51q-2 -51 50 -51h154q51 0 49 51l-51 1060q-2 37 19 43t39 -27l578 -1091q19 -36 59 -36h202q50 0 50 50v1393q0 50 -50 50h-87q-48 0 -50 -49l-26 -1040q-1 -37 -22 -42t-39 28l-565 1038q-19 35 -59 35h-163q-48 0 -50 -49z" />
<glyph unicode="O" d="M109 745q0 -352 177.5 -563t464.5 -211q286 0 463 211.5t177 562.5q0 352 -177 563.5t-463 211.5q-287 0 -464.5 -211.5t-177.5 -563.5zM322 745q0 280 118.5 445.5t310.5 165.5t309.5 -165.5t117.5 -445.5q0 -91 -20.5 -159t-56.5 -112t-91 -71t-117 -37.5t-142 -10.5 q-100 0 -174.5 18t-134 60.5t-90 120.5t-30.5 191z" />
<glyph unicode="P" d="M244 51q-2 -51 49 -51h142q49 0 51 49l16 482q2 49 51 49h195q249 0 378.5 121.5t129.5 345.5q0 219 -128.5 332.5t-379.5 113.5h-397q-49 0 -51 -49zM496 897l16 461q2 49 51 49h204q151 0 233.5 -73t82.5 -207q0 -135 -82.5 -208t-233.5 -73h-222q-51 0 -49 51z" />
<glyph unicode="Q" d="M74 745q0 -355 174.5 -564.5t477.5 -209.5q26 0 45 2h3q37 0 61 -26l162 -183q24 -28 61 -28h324q33 0 42 18q2 6 2 11q0 15 -16 32l-229 255q-16 18 -16 36q0 17 14 34q46 54 80.5 108.5t67.5 130t51 173t18 211.5q0 353 -180 564t-480 211q-301 0 -481.5 -211 t-180.5 -564zM287 745q0 282 122 446.5t327 164.5t326 -164.5t121 -446.5q0 -109 -26 -167t-102 -109q-29 -20 -61 -20q-1 0 -2 1q-32 0 -51.5 8.5t-60 33.5t-55.5 33q-14 7 -27 7q-24 0 -41 -26q-16 -25 -30 -48t-20 -35.5t-13.5 -23.5t-10.5 -15t-11 -6q-7 -2 -13 -2h-3 q-8 1 -25 4l-53 8q-45 5 -77.5 12t-76 30.5t-70.5 59t-47 101t-20 154.5z" />
<glyph unicode="R" d="M180 50q0 -50 50 -50h142q50 0 50 50v531q0 50 50 50h100q122 0 191 -50t142 -198l136 -344q14 -39 57 -39h179q29 0 39 16q4 7 4 17q0 12 -7 26l-175 349q-102 205 -202 269q-22 13 -21.5 22.5t23.5 21.5q84 45 130 132.5t46 209.5q0 213 -124.5 321.5t-353.5 108.5 h-406q-50 0 -50 -50v-1393zM402 887v450q0 50 50 50h204q63 0 115.5 -15.5t99.5 -50.5t73.5 -100.5t26.5 -157.5q0 -89 -98 -157.5t-217 -68.5h-204q-50 0 -50 50z" />
<glyph unicode="S" d="M224 1094q0 -171 101.5 -267t327.5 -141l123 -24q144 -29 216.5 -89t72.5 -126q0 -74 -100 -138t-261 -64q-199 0 -413 107q-27 14 -44 4t-17 -39v-208q0 -43 42 -57q232 -81 432 -81q281 0 426.5 112t145.5 329q0 183 -108 291t-333 151l-122 25q-164 30 -224.5 80.5 t-60.5 150.5q0 118 89.5 182t254.5 64q163 0 355 -82q26 -12 42.5 -1.5t16.5 38.5v90q0 44 -41 56q-205 63 -396 63q-245 0 -385 -114t-140 -312z" />
<glyph unicode="T" d="M118 1374q0 -49 47 -49h4l428 16q25 1 38 -11.5t12 -38.5l-46 -1240q-2 -51 49 -51h201q51 0 49 51l-46 1240q-1 26 11.5 38.5t38.5 11.5l427 -16h4q47 0 47 49v69q0 50 -50 50h-1164q-50 0 -50 -50v-69z" />
<glyph unicode="U" d="M168 1443l10 -882q3 -292 147 -441t426 -149q281 0 424.5 149t146.5 441l10 882q0 50 -50 50h-112q-50 0 -50 -51l8 -716v-15q0 -225 -88 -329q-92 -107 -289 -107q-198 0 -290 107q-89 104 -89 329v15l9 716q0 51 -50 51h-113q-50 0 -50 -50z" />
<glyph unicode="V" d="M156 1436l416 -1396q12 -40 57 -40h243q45 0 57 40l415 1396q3 11 3 21q0 13 -6 21q-11 15 -38 15h-107q-45 0 -58 -38l-355 -1000q-11 -31 -33 -31t-33 31l-354 1000q-13 38 -58 38h-108q-27 0 -38 -15q-6 -9 -6 -21q0 -10 3 -21z" />
<glyph unicode="W" d="M101 1438l84 -1393q3 -45 55 -45h227q42 0 59 37l186 398q10 22 21.5 29.5t22.5 -0.5t21 -30l177 -396q18 -38 58 -38h208q51 0 55 44l133 1394v10q0 45 -44 45h-95q-52 0 -56 -43l-103 -961q-2 -21 -14.5 -30t-27 -2t-24.5 28l-198 422q-17 36 -59 36h-96q-41 0 -60 -35 l-222 -416q-11 -21 -26.5 -27.5t-27 3t-12.5 30.5l-48 952q-1 21 -16.5 32t-39.5 11h-93q-45 0 -45 -49v-6z" />
<glyph unicode="X" d="M145 18q9 -18 41 -18h212q40 0 60 34l258 442q15 26 35 25.5t34 -26.5l256 -441q20 -34 60 -34h213q31 0 40 18q3 6 3 13q0 14 -12 30l-425 601q-13 18 -13 37q0 16 10 33l404 701q15 26 5.5 43t-39.5 17h-108q-40 0 -60 -34l-318 -542q-15 -25 -35 -25t-35 25l-316 542 q-20 34 -60 34h-109q-29 0 -39 -17t4 -43l392 -700q9 -16 9 -32q0 -19 -13 -37l-444 -603q-13 -17 -13 -31q0 -6 3 -12z" />
<glyph unicode="Y" d="M148 1476q-5 -7 -5 -16q0 -12 7 -26l444 -894q15 -29 15 -62v-428q0 -50 50 -50h173q50 0 50 50v428q0 33 15 62l453 894q7 15 7 26q0 9 -4 16q-10 17 -39 17h-111q-40 0 -59 -35l-358 -665q-14 -27 -34 -27t-34 27l-361 665q-19 35 -59 35h-111q-29 0 -39 -17z" />
<glyph unicode="Z" d="M125 50q0 -50 50 -50h1130q50 0 50 50v200q0 50 -50 50h-844q-33 0 -41 18.5t14 42.5l844 952q24 29 24 62v68q0 50 -50 50h-1074q-50 0 -50 -50v-70q0 -50 50 -50h789q33 0 41 -18.5t-14 -42.5l-845 -952q-24 -28 -24 -62v-198z" />
<glyph unicode="[" d="M509 -219q-2 -51 49 -51h343q50 0 50 50v123q0 50 -50 50h-140q-52 0 -50 50l40 1360q2 50 50 50h140q50 0 50 50v43q0 50 -50 50h-325q-49 0 -51 -49z" />
<glyph unicode="\" d="M262 1436l741 -1602q11 -23 22.5 -33t32.5 -11l136 -5q29 -1 42 15t1 41l-807 1605q-11 23 -22.5 32.5t-32.5 10.5l-69 2q-28 1 -42 -14.5t-2 -40.5z" />
<glyph unicode="]" d="M481 1463q0 -50 50 -50h139q45 0 50 -50l116 -1370q2 -22 -33.5 -36t-66.5 -14h-139q-50 0 -50 -50v-113q0 -50 50 -50h372q52 0 49 52l-110 1726q-3 48 -51 48h-326q-50 0 -50 -50v-43z" />
<glyph unicode="^" d="M155 955q8 -19 41 -19h186q39 0 60 31l273 376q16 22 35 22t35 -22l273 -376q21 -31 60 -31h185q34 0 42 19t-16 43l-475 470q-26 25 -62 25h-84q-36 0 -62 -25l-475 -470q-24 -24 -16 -43z" />
<glyph unicode="_" d="M218 -314v-79q0 -50 50 -50h964q50 0 50 50v79q0 50 -50 50h-964q-50 0 -50 -50z" />
<glyph unicode="`" d="M544 1701q-10 -17 4 -43l154 -279q19 -35 59 -35h157q31 0 40 18t-10 43l-213 283q-23 30 -61 30h-91q-29 0 -39 -17z" />
<glyph unicode="a" d="M277 326q0 381 504 381h208q50 0 50 18q0 129 -79.5 202.5t-238.5 83.5q-161 0 -303 -63q-27 -12 -43 -2t-16 38v43q0 42 40 57q180 63 341 63q243 0 363 -126t120 -382v-589q0 -50 -50 -50h-84q-50 0 -50 50v22q0 34 -16 39.5t-40 -18.5q-122 -122 -331 -122 q-172 0 -273.5 96.5t-101.5 258.5zM432 406q-1 -8 -1 -15q0 -24 8 -44q21 -59 78.5 -77.5t162.5 -18.5q74 0 118 10t77.5 39t47 82.5t13.5 141.5q-2 48 -50 48h-116q-183 0 -256.5 -38t-81.5 -128z" />
<glyph unicode="b" d="M261 1503v6q0 47 49 47h82q51 0 49 -51l-15 -447q-1 -33 12.5 -37.5t36.5 20.5q102 106 306 106t331.5 -162.5t127.5 -425.5t-127.5 -425.5t-331.5 -162.5q-108 0 -183.5 15t-124 46.5t-77 71.5t-49.5 99q-18 38 -30 203t-28.5 533t-27.5 564zM511 592q6 -47 10 -73 t12.5 -60t18 -51.5t25.5 -39t37.5 -32t51.5 -20.5t69 -13.5t89 -3.5q63 4 108 18t83.5 44t64 81.5t38.5 127.5q4 26 4 52v10q-12 184 -86.5 284t-211.5 100q-147 0 -230 -111t-83 -313z" />
<glyph unicode="c" d="M307 559q0 -270 149 -429t402 -159q160 0 297 55q38 16 37 59l-2 185q-1 42 -33 42q-11 0 -25 -5q-30 -10 -67.5 -14.5t-59.5 -5.5q-11 0 -29 -0.5t-42 0.5q-50 1 -64 1q-182 10 -263.5 69.5t-95.5 201.5q0 208 95 325t272 117q134 0 256 -55q27 -12 43 -2t16 38v56 q0 42 -38 57q-130 52 -285 52q-262 0 -412.5 -157t-150.5 -431z" />
<glyph unicode="d" d="M240 559q0 263 127 425.5t331 162.5q196 0 307 -124q22 -26 38 -22t17 38l15 468q2 49 51 49h85q24 0 37 -13t12 -37l-18 -1456q-2 -50 -51 -50h-84q-50 0 -50 50v27q0 34 -15 38.5t-38 -21.5q-110 -123 -306 -123q-204 0 -331 162.5t-127 425.5zM373 610v-10 q0 -26 4 -51q26 -131 95.5 -187t207.5 -56q79 0 128.5 10.5t88.5 40.5t57 87t21 149q-11 420 -290 420q-141 0 -223.5 -107t-88.5 -296z" />
<glyph unicode="e" d="M236 527q0 -262 150.5 -404t422.5 -152q171 0 376 61q40 12 38 58l-2 149q-1 41 -35 41q-10 0 -23 -4q-53 -15 -117.5 -22.5t-107.5 -8.5t-122 -1q-56 3 -93 6.5t-79.5 11.5t-69.5 20.5t-55 33.5t-44 50.5t-28.5 70.5t-16.5 95v6q0 46 49 46h735q50 0 50 50v20 q-19 240 -136 361.5t-342 131.5q-248 0 -394 -169.5t-156 -450.5zM454 786q24 100 116 182t217 82q55 0 106 -24.5t88.5 -64t64.5 -83t43 -88.5q4 -10 4 -19q1 -13 -7 -21q-12 -16 -40 -16h-545q-25 0 -39 14q-9 10 -10 24q0 7 2 14z" />
<glyph unicode="f" d="M318 987q0 -50 50 -50h208q25 0 38 -13.5t11 -37.5l-71 -835q-2 -24 11 -37.5t38 -13.5h208q51 0 49 51l-26 835q-2 51 49 51h249q50 0 50 50v83q0 50 -50 50h-252q-48 0 -53 47l-5 52q1 125 8 197t24.5 108t38 45t59.5 9l113 -14q5 -1 10 -1q43 0 43 48v53q0 47 -47 53 l-117 14q-56 0 -99.5 -12.5t-85 -47.5t-69 -93t-45 -154t-18.5 -226l-4 -31q-6 -47 -53 -47h-212q-50 0 -50 -50v-83z" />
<glyph unicode="g" d="M240 573q0 -259 126 -416t332 -157q177 0 294 105q41 37 41 2q0 -14 -11 -86q-36 -235 -118.5 -341.5t-227.5 -106.5q-135 0 -262 57q-27 12 -43 2t-16 -38v-220q0 -44 40 -57q144 -45 310 -45q110 0 187.5 22.5t141.5 79t103.5 155.5t63.5 248.5t30 361.5l28 930 q2 51 -49 51h-86q-47 0 -52 -43l-5 -43q-4 -33 -20.5 -37t-38.5 22q-110 128 -310 128q-207 0 -332.5 -157t-125.5 -417zM350 584q0 200 82.5 310t230.5 110q149 0 231.5 -110t82.5 -310q0 -78 -16 -131.5t-41 -83.5t-70.5 -46.5t-88.5 -20.5t-112 -4q-55 0 -89 2.5 t-69.5 12.5t-55.5 28.5t-38.5 50.5t-29 78.5t-17.5 113.5z" />
<glyph unicode="h" d="M243 51v-5q0 -46 50 -46h163q51 0 49 51l-18 582q0 167 87 270.5t234 103.5q132 0 194 -77q55 -68 55 -220q0 -19 -1 -40l-28 -619q-2 -51 49 -51h132q51 0 49 51l-18 625q0 232 -99 351.5t-292 119.5q-184 0 -304 -127q-24 -26 -40 -20.5t-15 39.5l16 671q2 51 -49 51 h-85q-47 0 -50 -49z" />
<glyph unicode="i" d="M551 41q-2 -8 -2 -14q0 -15 10 -25q14 -14 41 -13h272q27 0 42 15q9 9 9 22q0 8 -3 16q-46 114 -63 290q-12 120 -12 243q0 57 3 115q8 182 35 369q4 23 -10 36.5t-39 13.5h-169q-26 0 -41.5 -12.5t-9.5 -32.5q27 -78 43.5 -145t25.5 -121q7 -45 7 -93v-22 q-2 -60 -7 -104.5t-20.5 -113.5t-29.5 -118.5t-39 -141.5t-43 -164zM646 1384q-2 -51 49 -51h102q51 0 49 51l-6 133q-2 49 -51 49h-86q-49 0 -51 -49z" />
<glyph unicode="j" d="M183 -667q0 -49 49 -52h50q118 4 233.5 86t192.5 213.5t87 271.5l88 1210v5q0 44 -48 46l-158 3h-4q-47 0 -47 -48l-13 -973q-1 -105 -25 -187t-58.5 -130t-83 -80t-91 -44t-89.5 -16h-29h-4q-47 0 -47 -49zM671 1374q-2 -51 49 -51h82q51 0 49 51l-6 133q-2 49 -51 49 h-66q-49 0 -51 -49z" />
<glyph unicode="k" d="M261 51q-2 -51 50 -51h143q48 0 48 45v6l-21 372q-2 36 17.5 43.5t42.5 -20.5l339 -417q25 -29 61 -29h254q34 0 42 19q2 5 2 10q0 15 -19 33l-520 501q-19 18 -19 37q0 16 14 33l344 426q20 25 11.5 43t-40.5 18h-119q-37 0 -61 -28l-293 -342q-23 -27 -42 -19.5 t-19 42.5l8 733q1 24 -12 37t-37 13h-86q-48 0 -50 -49z" />
<glyph unicode="l" d="M377 1462q31 -202 39 -400q3 -90 4 -168q0 -94 -5 -170q-9 -140 -11 -320v-49q0 -156 11 -304q5 -51 49 -51h475q50 0 50 50v127q0 49 -50 51h-214q-23 0 -34 12t-16 38q-19 100 -30 200.5t-15 225.5q-4 126 -4 214v50q0 83 2 215q2 176 1 277q0 51 -48 51h-152 q-26 -1 -41 -13q-12 -10 -12 -26q0 -5 1 -10z" />
<glyph unicode="m" d="M124 51v-6q0 -19 11 -31q13 -14 38 -14h166q51 0 49 51l-18 582v22q0 147 62 249q66 109 166 109q70 1 112 -77q26 -48 26 -123q0 -46 -10 -103l-83 -657q-1 -5 -1 -10q0 -43 47 -43h148q50 0 53 49v584q1 77 23 165t64.5 153.5t90.5 65.5q86 0 123.5 -76.5t37.5 -240.5 l-65 -648q-1 -17 -1.5 -28.5t6.5 -17.5t23 -6h133q48 0 51 51v625v6q0 224 -72 344q-72 122 -215 121q-84 0 -146.5 -54.5t-90.5 -133.5q-9 -26 -26.5 -24t-31.5 27q-25 46 -37 67t-32.5 49.5t-36.5 39.5t-39.5 20t-52.5 9q-45 0 -77.5 -9t-55 -29.5t-30.5 -31.5t-24 -37 q-23 -38 -40 -31q-10 7 -8 34l3 24q1 5 1 10q0 43 -48 43h-58q-46 0 -51 -49z" />
<glyph unicode="n" d="M247 51q-2 -51 50 -51h153q51 0 49 51l-28 592q0 168 83 261t248 93q121 0 174.5 -77.5t53.5 -239.5l-37 -629v-5q0 -46 49 -46h161q51 0 49 51l-28 625q-20 471 -401 471q-146 0 -302 -107q-25 -18 -42.5 -9t-17.5 40v9q0 50 -50 50h-86q-48 0 -50 -49z" />
<glyph unicode="o" d="M236 559q0 -275 136.5 -431.5t377.5 -156.5q240 0 377 156.5t137 431.5q0 276 -137 432t-377 156q-241 0 -377.5 -156t-136.5 -432zM430 591q0 195 86 307.5t234 112.5q147 0 233 -113.5t86 -306.5q0 -77 -15 -131.5t-40.5 -87.5t-67.5 -51.5t-87 -25t-109 -6.5 q-65 0 -110.5 6.5t-87.5 25t-67 51.5t-40 87.5t-15 131.5z" />
<glyph unicode="p" d="M224 -373q-1 -5 -1 -10q0 -43 48 -43h131q49 0 51 50l6 454q0 34 15.5 38.5t38.5 -21.5q109 -124 305 -124q204 0 331.5 162.5t127.5 425.5t-127.5 425.5t-331.5 162.5q-192 0 -302 -120q-24 -26 -34 -22t-3 38l1 5q5 26 -7 40.5t-38 14.5h-79q-50 0 -50 -50v-793z M533 591q0 203 83.5 318.5t229.5 115.5t229.5 -115.5t83.5 -318.5q0 -100 -19 -163.5t-60.5 -97t-93 -45t-130.5 -11.5q-80 0 -134 12t-99.5 44.5t-67.5 97t-22 163.5z" />
<glyph unicode="q" d="M184 559q0 -263 127 -425.5t331 -162.5q193 0 304 121q23 26 36.5 21t9.5 -39l-77 -652q-3 -25 9 -39q12 -13 36 -13h3l172 2q36 0 62 23l100 84q20 17 20 36q0 17 -18 35l-161 153q-25 23 -25 56v7l93 1303v6q0 45 -48 45h-81q-47 0 -54 -45l-8 -45q-5 -32 -22 -35.5 t-39 22.5q-112 130 -312 130q-204 0 -331 -162.5t-127 -425.5zM306 585q0 203 83.5 318.5t229.5 115.5t230 -115.5t84 -318.5q0 -80 -15 -136t-40 -89t-68 -51.5t-87 -24.5t-109 -6q-81 0 -131.5 10t-94 41.5t-63 94t-19.5 161.5z" />
<glyph unicode="r" d="M416 55q-1 -8 -1 -15q0 -40 46 -40h181q25 0 37.5 13.5t10.5 38.5l-36 508q0 393 293 393q59 0 84 -5q27 -5 40.5 4t12.5 35v84q0 47 -42 53q-22 3 -41 3q-148 0 -288 -89q-25 -17 -42 -8.5t-17 39.5q0 41 -50 41h-69q-49 0 -49 -48l3 -236q1 -166 -7 -282 q-12 -191 -66 -489z" />
<glyph unicode="s" d="M322 84q0 -44 42 -56q190 -57 351 -57q215 0 339 91t124 247q0 136 -81.5 208t-279.5 114l-63 14q-147 33 -201.5 74t-54.5 116q0 84 74 131t210 47q146 0 278 -53q26 -11 42 -1t16 38v47q0 44 -40 57q-137 46 -318 46q-206 0 -318 -86t-112 -244q0 -127 74 -192.5 t249 -102.5l64 -15q172 -38 195 -64q18 -21 40 -59q15 -25 15 -48q0 -7 -1 -14q-27 -117 -247 -117q-164 0 -338 77q-26 12 -42.5 2t-16.5 -38v-162z" />
<glyph unicode="t" d="M401 1027q0 -50 43 -50h42q24 0 37 -13t12 -37l-27 -558q-1 -19 -1 -37q-1 -176 87 -250q96 -82 317 -82h139q50 0 50 50v174q0 50 -50 50h-139q-80 0 -118.5 16t-55 61t-16.5 138l9 439q2 49 50 49h160q50 0 50 50v43q0 50 -50 50h-158q-51 0 -49 51l6 176q2 51 -49 51 h-95q-49 0 -51 -49l-6 -180q-2 -49 -51 -49h-36q-50 0 -50 -50v-43z" />
<glyph unicode="u" d="M276 442q0 -231 100 -351t293 -120q183 0 302 126q24 26 39.5 20t12.5 -40v-26q-2 -25 10.5 -38.5t37.5 -12.5l76 3q50 2 51 50l18 1020q1 23 -12 37q-12 13 -34 13h-3l-98 -3q-50 -2 -51 -49l-18 -426q-10 -167 -92.5 -260.5t-229.5 -93.5q-121 0 -179.5 78t-68.5 240 v461q0 50 -50 50h-54q-50 0 -50 -50v-628z" />
<glyph unicode="v" d="M226 1063l374 -1023q15 -40 58 -40h184q43 0 58 40l374 1023q5 12 5 22q0 11 -6 19q-11 16 -39 16h-92q-42 0 -58 -38l-301 -704q-13 -30 -33 -30t-33 30l-301 704q-16 38 -58 38h-92q-28 0 -39 -16q-6 -8 -6 -19q0 -10 5 -22z" />
<glyph unicode="w" d="M120 1064l181 -1021q7 -43 55 -43h162q42 0 58 37l141 320q9 21 21 28.5t24 -0.5t21 -29l132 -318q16 -38 58 -38h172q48 0 55 43l179 1021q1 8 1 15q0 41 -44 41h-82q-49 0 -56 -42l-104 -656q-3 -21 -15 -29.5t-26 -2t-25 25.5l-149 260q-21 34 -60 34h-147 q-42 0 -60 -35l-138 -259q-16 -31 -38.5 -29t-27.5 35l-107 656q-7 42 -56 42h-82q-44 0 -44 -41q0 -7 1 -15z" />
<glyph unicode="x" d="M206 18q8 -18 41 -18h199q38 0 61 30l217 289q18 24 36 24t34 -25l200 -286q21 -32 60 -32h199q33 0 41 18q2 5 3 11q0 14 -15 32l-377 430q-16 17 -15 36q0 16 11 34l331 498q17 26 7.5 43.5t-40.5 17.5h-76q-38 0 -61 -31l-278 -379q-17 -22 -35.5 -21.5t-34.5 23.5 l-251 376q-23 32 -61 32h-85q-31 0 -40.5 -17.5t7.5 -43.5l324 -487q12 -18 12 -34q0 -19 -16 -36l-386 -441q-15 -18 -15 -32q1 -6 3 -11z" />
<glyph unicode="y" d="M208 -353v-144q0 -50 50 -50h117q248 0 446 443l450 1166q5 12 5 22q0 12 -6 20q-11 16 -39 16h-92q-40 0 -58 -37l-256 -548q-14 -28 -33 -29t-36 25l-338 555q-20 34 -59 34h-91q-29 0 -39.5 -16.5t1.5 -42.5l436 -934q8 -16 8 -33t-9 -35l-48 -98q-12 -24 -33 -51 q-5 -7 -31 -39.5t-39.5 -48.5t-40.5 -44t-46 -42.5t-44 -26.5t-47 -12h-78q-50 0 -50 -50z" />
<glyph unicode="z" d="M276 50q0 -50 50 -50h849q50 0 50 50v147q0 50 -50 50h-539q-33 0 -41.5 18.5t13.5 42.5l573 618q24 25 24 62v82q0 50 -50 50h-764q-50 0 -50 -50v-37q0 -50 50 -50h530q34 0 42 -19.5t-16 -42.5l-645 -628q-26 -26 -26 -61v-182z" />
<glyph unicode="{" d="M343 593q-3 -51 27 -53h30q57 -1 94.5 -10.5t62 -29t35.5 -51t14.5 -76.5t-1.5 -105l-4 -238q3 -116 20.5 -183.5t64.5 -112.5t123 -61.5t204 -19.5h12q49 -2 51 49v134q1 49 -49 51h-18q-56 1 -94 9t-62 21t-38 38.5t-19.5 52.5t-9.5 72l4 218q1 15 3.5 45.5t3.5 42.5 t2 36.5t0 35t-3 29.5t-6 28t-10.5 22.5t-16 21.5t-22.5 16.5t-29 15.5q-22 9 -25 15t6 14q10 10 39.5 38t39.5 39t29.5 38t27 50t15 60t8.5 82l4 248q1 50 4 81.5t13 58t24 40.5t42 24.5t61.5 14.5t86.5 6h18q49 -1 52 49v43q2 49 -30 51h-31q-87 -2 -146.5 -9t-109.5 -23 t-79.5 -40.5t-50.5 -65.5t-29.5 -94t-9.5 -129l-4 -240q-2 -101 -26.5 -154.5t-77 -76.5t-151.5 -28h-13q-47 2 -52 -47z" />
<glyph unicode="|" d="M622 -602q-2 -51 49 -51h90q48 0 50 49l29 1131l39 1407q2 51 -50 51h-70q-49 0 -51 -49z" />
<glyph unicode="}" d="M355 1463q0 -50 35 -50h35q140 0 182.5 -43.5t42.5 -185.5v-248q0 -139 35 -210t119 -101q15 -5 20 -9t0 -8t-20 -10q-82 -31 -111 -99.5t-23 -201.5l10 -228q3 -74 -5 -117t-35 -69t-69 -34.5t-116 -8.5h-20q-50 0 -50 -50v-104q0 -50 32 -50h31q170 0 260.5 37.5 t127 127t28.5 254.5l-10 219q-7 152 41.5 209.5t188.5 57.5h12q50 0 50 50v43q0 50 -31 50h-31q-142 0 -196 57.5t-54 206.5v240q0 114 -17.5 182.5t-66.5 111.5t-126 58.5t-206 15.5h-13q-50 0 -50 -50v-43z" />
<glyph unicode="~" d="M109 517q0 -32 18.5 -40.5t43.5 12.5q94 79 161.5 118.5t134.5 39.5q87 0 222 -68q30 -15 38 -18q3 -1 7 -3l4 -1q23 -10 42 -21q130 -74 230 -74q56 0 119.5 27t106.5 56.5t124 90.5q31 23 31 61v44q0 31 -18 39.5t-44 -10.5q-154 -113 -296 -113q-93 0 -249 62l-37 14 q-147 60 -257 60q-90 0 -173 -29.5t-177 -95.5q-31 -23 -31 -61v-90z" />
<glyph unicode="&#xa0;" />
<glyph unicode="&#xa1;" d="M604 1312q-6 -53 47 -53h137q53 0 47 53l-19 174q-5 47 -52 47h-89q-47 0 -52 -47zM622 651l13 -605q2 -50 51 -48l162 5q51 0 48 52l-31 604l-28 308q-5 48 -53 46l-104 -3q-48 -2 -50 -51z" />
<glyph unicode="&#xa2;" d="M303 559q-4 -244 113.5 -397.5t335.5 -189.5q47 -8 46 -53l-3 -191q-1 -49 49 -51h2q49 -2 51 49l3 187q1 46 48 52q100 12 194 47q39 14 40 57l3 143q0 29 -16 39t-42 -2q-88 -36 -169 -48q-25 -4 -39 9t-13 39l13 709q1 25 15 38t38 9q81 -13 166 -55q26 -13 42.5 -3.5 t17.5 38.5v35q1 42 -37 58q-94 39 -190 51q-48 6 -47 53l2 189q1 49 -49 51h-2q-49 2 -51 -49l-3 -190q-1 -46 -48 -52q-221 -30 -343 -178.5t-127 -393.5zM498 555q4 183 72.5 297t192.5 146q24 7 39 -6t14 -40l-12 -695q-1 -26 -15.5 -38.5t-39.5 -5.5q-121 31 -187 121 t-64 221z" />
<glyph unicode="&#xa3;" d="M244 50q0 -49 49 -51l893 -15q49 -1 51 49l4 120q0 49 -49 51l-457 7q-51 2 -49 51l10 335q2 50 51 49l291 -5q49 -1 52 49v23q2 49 -49 51l-291 5q-51 2 -49 51l5 165q4 142 32 218.5t83.5 107.5t158.5 37q98 -2 213 -57q26 -13 42.5 -3t17.5 38l2 74q1 43 -40 58 q-141 48 -248 50q-235 -6 -344 -121.5t-116 -374.5l-6 -188q0 -51 -51 -48h-99q-49 1 -52 -49v-23q-2 -49 49 -52h99q51 -2 49 -51l-10 -335q-2 -50 -51 -49l-136 2q-49 1 -51 -49z" />
<glyph unicode="&#xa4;" d="M226 161l43 -43q35 -36 70 -1l141 141q30 30 70 9q104 -52 200 -52q99 0 198 54q39 23 70 -8l140 -140q35 -35 70 0l43 43q35 35 0 70l-141 140q-30 32 -8 70q54 92 54 197q0 102 -51 201q-21 40 9 70l140 140q35 35 0 70l-44 44q-35 35 -70 0l-141 -141q-30 -31 -70 -10 q-97 52 -199 52q-107 0 -197 -52q-39 -23 -70 8l-140 140q-35 35 -70 0l-45 -45q-35 -35 1 -70l139 -139q31 -31 8 -70q-52 -94 -52 -198q0 -96 53 -199q19 -40 -10 -70l-141 -140q-35 -35 0 -71zM480 643q0 111 79 188.5t191 77.5q114 0 191.5 -77t77.5 -189 q0 -194 -269 -194q-270 0 -270 194z" />
<glyph unicode="&#xa5;" d="M199.5 1476.5q-10.5 -16.5 3.5 -42.5l245 -468q14 -26 3.5 -42.5t-39.5 -16.5h-147q-50 0 -50 -50v-23q0 -50 50 -50h243q38 0 61 -32l63 -95q19 -27 19 -62q0 -17 -50 -17h-316q-50 0 -50 -50v-63q0 -50 50 -50h314q25 0 37.5 -13.5t10.5 -38.5l-22 -311 q-2 -25 10.5 -38.5t37.5 -13.5h158q51 0 48 51l-15 313q-2 51 49 51h312q50 0 50 50v63q0 50 -50 50h-315q-50 0 -50 50q0 2 16 31l49 90q19 35 59 35h241q50 0 50 50v23q0 50 -50 50h-146q-30 0 -40 17t4 43l254 466q14 26 4 43t-40 17h-103q-40 0 -59 -36l-314 -599 q-14 -27 -34 -27t-34 27l-316 599q-19 36 -59 36h-103q-29 0 -39.5 -16.5z" />
<glyph unicode="&#xa6;" d="M594 -769q-3 -51 48 -51h90q49 0 51 49l52 1246q2 51 -49 51h-70q-49 0 -52 -49zM680 880q-2 -51 49 -51h70q49 0 51 49l57 1187q2 51 -49 51h-70q-49 0 -51 -49z" />
<glyph unicode="&#xa7;" d="M331 723q0 -102 64 -178q66 -79 278 -197l25 -14q19 -11 50.5 -27t50 -26t39 -24t30 -28t9.5 -30q0 -72 -53.5 -101t-161.5 -29q-96 0 -234 53q-27 11 -46.5 0t-12.5 -38l42 -178q6 -26 14 -38.5t28 -17.5q149 -45 273 -45q173 0 275 84t102 226q0 105 -78 187 q-35 38 6 68q138 99 138 253q0 101 -65 178q-68 79 -277 196l-40 23q-206 116 -206 205q0 71 54 111t151 40q95 0 223 -52q27 -11 43 -1t16 38v58q0 44 -41 57q-132 44 -264 44q-165 0 -265.5 -79.5t-100.5 -209.5q0 -112 77 -189q35 -37 -6 -65q-137 -96 -137 -254z M493 808q0 79 92 156q32 27 70 6q213 -118 281 -181q71 -68 71 -143q0 -80 -92 -156q-32 -27 -70 -6q-221 121 -282 182q-70 66 -70 142z" />
<glyph unicode="&#xa8;" d="M432 1400q0 -50 50 -50h118q50 0 50 50v117q0 50 -50 50h-118q-50 0 -50 -50v-117zM851 1400q0 -50 50 -50h118q50 0 50 50v117q0 50 -50 50h-118q-50 0 -50 -50v-117z" />
<glyph unicode="&#xa9;" d="M9 741q0 -305 217 -522q219 -219 524 -219t524 219q217 217 217 522q0 308 -217 525q-219 219 -524 219t-524 -219q-217 -217 -217 -525zM109 741q0 263 190 453q188 188 451 188q265 0 453 -188q186 -188 186 -453q0 -275 -186 -420q-204 -139 -453 -139 q-247 0 -451 139q-190 170 -190 420zM308 741q0 -208 125.5 -330t341.5 -122q122 0 235 41q39 14 39 58v81q0 28 -16 38t-42 -1q-96 -38 -194 -38q-147 0 -236.5 83t-89.5 190q0 160 85 261t231 101q102 0 204 -39q26 -11 42 -2.5t16 33.5q0 43 -39 57q-115 40 -235 40 q-216 0 -341.5 -121t-125.5 -330z" />
<glyph unicode="&#xaa;" d="M394 946q0 273 379 273h132q50 0 50 4q0 182 -234 182q-100 0 -208 -42q-26 -11 -42 -1t-16 38v21q0 44 40 57q126 42 247 42q183 0 272.5 -88t89.5 -267v-398q0 -50 -50 -50h-49q-50 0 -50 33q0 65 -54 21q-90 -73 -227 -73q-128 0 -204 67.5t-76 180.5zM418 519v23 q0 50 50 50h588q50 0 50 -50v-23q0 -50 -50 -50h-588q-50 0 -50 50zM531 1023q0 -64 49 -102.5t131 -38.5q101 0 165 67.5t69 176.5q-5 43 -50 43h-77q-161 0 -224 -33q-63 -34 -63 -113z" />
<glyph unicode="&#xab;" d="M280 558q-13 -40 16 -68l373 -356q22 -21 40.5 -15t25.5 35l25 122q8 37 -20 65l-225 215q-37 37 3 71l241 199q28 23 29 61l3 71q1 33 -17.5 42t-43.5 -12l-394 -328q-25 -20 -37 -52zM714 543q-13 -40 16 -68l373 -356q22 -21 40.5 -15t25.5 35l25 122q8 37 -20 65 l-225 214q-38 37 2 71l242 200q28 23 29 61l2 72q1 32 -17 41t-43 -12l-394 -328q-25 -20 -37 -52z" />
<glyph unicode="&#xac;" d="M95 722q0 -24 13 -37t37 -12l1010 18q25 1 38 -13t9 -39l-37 -299q-6 -53 47 -53h144q51 0 48 51l-24 475q-3 49 -52 49h-1183q-50 0 -50 -50v-90z" />
<glyph unicode="&#xad;" d="M475 533l12 75q7 45 53 46l438 8q26 1 38.5 -13t8.5 -40l-12 -75q-7 -46 -53 -47l-438 -7q-26 -1 -38.5 13t-8.5 40z" />
<glyph unicode="&#xae;" d="M9 741q0 -305 217 -522q219 -219 524 -219t524 219q217 217 217 522q0 308 -217 525q-219 219 -524 219t-524 -219q-217 -217 -217 -525zM109 790q0 242 190 418q187 174 451 174q266 0 453 -174q186 -174 186 -418t-186 -416q-189 -175 -453 -175q-262 0 -451 175 q-190 176 -190 416zM445 388q0 -50 50 -50h105q50 0 50 50v256q0 50 50 50h6q14 0 51 -25q36 -26 95 -122l108 -176q22 -33 60 -33h62q31 0 40.5 17t-6.5 43l-100 163q-47 74 -79 112l-9 9q-20 20 -17.5 31.5t28.5 21.5q141 53 141 199q0 240 -350 240h-235q-50 0 -50 -50 v-736zM650 895v176q0 50 50 50h73q108 0 152.5 -31.5t44.5 -107.5q0 -75 -43.5 -106t-153.5 -31h-73q-50 0 -50 50z" />
<glyph unicode="&#xaf;" d="M451 1428q0 -50 50 -50h498q50 0 50 50v48q0 50 -50 50h-498q-50 0 -50 -50v-48z" />
<glyph unicode="&#xb0;" d="M433 1200q0 -135 90 -225t225 -90q134 0 226.5 91.5t92.5 223.5q0 135 -92 225q-89 95 -225 95q-133 0 -225 -93t-92 -227zM560 1267q0 73 55 123.5t135 50.5q79 0 134.5 -51t55.5 -123t-55 -121.5t-135 -49.5t-135 49.5t-55 121.5z" />
<glyph unicode="&#xb1;" d="M159 50q0 -50 50 -50h1082q50 0 50 50v90q0 50 -50 50h-1082q-50 0 -50 -50v-90zM159 777q0 -50 50 -50h407q50 0 50 -50v-287q0 -50 50 -50h68q50 0 50 50v287q0 50 50 50h407q50 0 50 50v70q0 50 -50 50h-407q-50 0 -50 50v287q0 50 -50 50h-68q-50 0 -50 -50v-287 q0 -50 -50 -50h-407q-50 0 -50 -50v-70z" />
<glyph unicode="&#xb2;" d="M451 718q0 -50 50 -50h498q50 0 50 50v65q0 50 -50 50h-280q-35 0 -42 19.5t19 42.5l16 13q194 166 244 217q87 90 87 155q0 108 -87.5 174t-231.5 66q-97 0 -226 -42q-41 -13 -41 -57v-16q0 -28 16 -38t43 1q105 43 187 43q85 0 137 -40.5t52 -106.5q0 -13 -6.5 -27.5 t-22.5 -34t-33.5 -37.5t-50.5 -47.5t-62 -54.5t-78.5 -68t-90.5 -79q-17 -14 -70 -62q-27 -26 -27 -62v-74z" />
<glyph unicode="&#xb3;" d="M442 739q-3 -45 41 -57q114 -29 208 -29q177 0 272 67t95 191q0 70 -37.5 120.5t-106.5 75.5q-16 6 -20.5 10t0 8t20.5 10q59 23 91 66.5t32 101.5q0 99 -84.5 158t-228.5 59q-89 0 -212 -25q-44 -9 -44 -55v-12q0 -27 15.5 -38t41.5 -4q104 25 166 25q95 0 145 -30.5 t50 -88.5q0 -60 -48.5 -91.5t-142.5 -31.5h-44q-50 0 -50 -50v-8q0 -50 43 -50h43q219 0 219 -150q0 -65 -50 -85t-170 -20q-102 0 -183 29q-55 19 -58 -37z" />
<glyph unicode="&#xb4;" d="M521.5 1338q8.5 -18 40.5 -18h57q37 0 61 28l286 329q21 24 12.5 42.5t-40.5 18.5h-102q-38 0 -61 -30l-243 -327q-19 -25 -10.5 -43z" />
<glyph unicode="&#xb5;" d="M184 1096l44 -1600q2 -50 51 -50h84q24 0 37 13t12 37l-28 547q-1 33 11.5 37t35.5 -21q84 -88 238 -88q164 0 262 115q16 20 26 18t19 -27q40 -106 152 -106q35 0 92 36q34 23 63 39q34 21 34 60v46q0 28 -6 42.5t-16 10.5q-6 -3 -22 -8q-4 -1 -9.5 -1.5t-21.5 -2 t-24 0.5q-82 13 -82 64l9 812q1 24 -12 37t-37 13h-85q-48 0 -50 -49l-9 -394q0 -336 -297 -336q-264 0 -273 293l-14 470q-2 51 -52 48l-84 -4q-50 -3 -48 -52z" />
<glyph unicode="&#xb6;" d="M187 1071q0 -79 27 -150t71 -122t94.5 -86.5t103.5 -52.5q44 -14 40 -57l-62 -748q-3 -52 48 -52h220q50 0 50 50v1467q0 50 50 50h90q25 0 36 -13.5t4 -36.5v-1467q0 -50 50 -50h257q53 0 47 53l-207 1590q-6 47 -53 47h-391q-215 0 -345 -116t-130 -306z" />
<glyph unicode="&#xb7;" d="M645 634q0 -50 50 -50h111q50 0 50 50v154q0 50 -50 50h-111q-50 0 -50 -50v-154z" />
<glyph unicode="&#xb8;" d="M543 -300v-26q0 -46 43 -56q62 -13 133 -13q238 0 238 180q0 82 -85 186q-22 29 -61 29h-22q-25 0 -30 -17.5t12 -44.5q46 -73 46 -116q0 -94 -119 -94q-59 0 -99 11q-56 14 -56 -39z" />
<glyph unicode="&#xb9;" d="M464 1403q0 -26 14 -38t40 -7l115 21q26 5 40 -7t14 -38v-432q0 -50 -50 -50h-104q-50 0 -50 -50v-84q0 -50 50 -50h453q50 0 50 50v84q0 50 -50 50h-105q-50 0 -50 50v551q0 50 -50 50h-57q-32 0 -60 -5l-155 -26q-45 -8 -45 -54v-15z" />
<glyph unicode="&#xba;" d="M364 1108q0 -190 104 -300t283 -110t282 109.5t103 300.5t-103 301.5t-282 110.5t-283 -110.5t-104 -301.5zM407 469h688v123h-688v-123zM520 1191q0 115 63 183t168 68q106 0 168 -67.5t62 -183.5q0 -113 -62.5 -180.5t-167.5 -67.5t-168 67.5t-63 180.5z" />
<glyph unicode="&#xbb;" d="M281 318l15 -123q3 -31 21.5 -38.5t41.5 11.5l403 323q33 27 21 66l-14 52q-8 31 -32 55l-365 361q-23 23 -41.5 15.5t-20.5 -39.5l-4 -72q-1 -38 24 -63l223 -220q39 -37 -4 -70l-242 -194q-32 -26 -26 -64zM714 295l15 -123q3 -31 21.5 -38.5t41.5 11.5l403 323 q33 27 21 66l-14 52q-8 31 -32 55l-365 361q-23 23 -41.5 15.5t-20.5 -39.5l-4 -72q-1 -38 24 -63l223 -220q39 -37 -4 -70l-242 -194q-32 -26 -26 -64z" />
<glyph unicode="&#xbc;" d="M-86 1403q0 -26 14 -38t40 -7l115 21q26 5 40 -7t14 -38v-506q0 -50 -50 -50h-104q-50 0 -50 -50v-10q0 -50 50 -50h453q50 0 50 50v10q0 50 -50 50h-105q-50 0 -50 50v625q0 50 -50 50h-57q-32 0 -60 -5l-155 -26q-45 -8 -45 -54v-15zM293 -11.5q10 -17.5 40 -17.5h51 q39 0 59 34l876 1455q16 26 6 43t-40 17h-51q-39 0 -59 -34l-876 -1455q-16 -25 -6 -42.5zM893 238q0 -50 50 -50h314q50 0 50 -50v-86q0 -50 50 -50h44q50 0 50 50v86q0 50 50 50h35q50 0 50 50v9q0 50 -43 50h-42q-50 0 -50 50v440q0 50 -50 50h-78q-38 0 -61 -31 l-348 -469q-21 -28 -21 -62v-37zM1033 314.5q-9 17.5 10 43.5l203 275q21 29 41 22.5t20 -42.5v-266q0 -50 -50 -50h-183q-32 0 -41 17.5z" />
<glyph unicode="&#xbd;" d="M-91 1403q0 -26 14 -38t40 -7l115 21q26 5 40 -7t14 -38v-506q0 -50 -50 -50h-104q-50 0 -50 -50v-10q0 -50 50 -50h454q50 0 50 50v10q0 50 -50 50h-105q-50 0 -50 50v625q0 50 -51 50h-56q-34 0 -61 -5l-155 -26q-45 -8 -45 -54v-15zM239 -11.5q10 -17.5 40 -17.5h51 q39 0 59 34l876 1455q16 26 6 43t-40 17h-51q-39 0 -59 -34l-876 -1455q-16 -25 -6 -42.5zM993 52q0 -50 50 -50h498q50 0 50 50v14q0 50 -50 50h-280q-35 0 -42 19.5t19 42.5l16 13q331 283 331 423q0 108 -87.5 174t-231.5 66q-97 0 -226 -42q-41 -13 -41 -57v-16 q0 -28 16 -38t43 1q105 43 187 43q85 0 137 -40.5t52 -106.5q0 -94 -344 -399q-17 -14 -70 -62q-27 -26 -27 -62v-23z" />
<glyph unicode="&#xbe;" d="M-80 738q0 -44 43 -56q116 -29 209 -29q177 0 272 67t95 191q0 70 -37.5 120.5t-106.5 75.5q-16 6 -20.5 10t0 8t20.5 10q59 23 91 66.5t32 101.5q0 99 -84.5 158t-228.5 59q-89 0 -212 -25q-44 -9 -44 -55v-12q0 -27 15.5 -38t41.5 -4q104 25 166 25q95 0 145 -30.5 t50 -88.5q0 -60 -48.5 -91.5t-142.5 -31.5h-44q-50 0 -50 -50v-8q0 -50 43 -50h43q219 0 219 -150q0 -70 -60.5 -109.5t-168.5 -39.5q-100 0 -181 28q-26 10 -41.5 1t-15.5 -36v-17zM327 -11.5q10 -17.5 40 -17.5h51q39 0 59 34l876 1455q16 26 6 43t-40 17h-51 q-39 0 -59 -34l-876 -1455q-16 -25 -6 -42.5zM887 238q0 -50 50 -50h314q50 0 50 -50v-86q0 -50 50 -50h44q50 0 50 50v86q0 50 50 50h35q50 0 50 50v9q0 50 -43 50h-42q-50 0 -50 50v440q0 50 -50 50h-78q-38 0 -61 -31l-348 -469q-21 -28 -21 -62v-37zM1027 314.5 q-9 17.5 10 43.5l203 275q21 29 41 22.5t20 -42.5v-266q0 -50 -50 -50h-183q-32 0 -41 17.5z" />
<glyph unicode="&#xbf;" d="M352 324q0 -159 112 -256t296 -97t355 93q34 20 34 60v137q0 30 -17 39t-44 -7q-161 -98 -293 -98q-108 0 -174 55t-66 144q0 95 109 196l90 88q44 49 58.5 66.5t32 49t21 61t3.5 81.5v106q0 50 -50 50h-60q-50 0 -50 -50v-73q0 -95 -13 -135q-16 -48 -94 -125l-88 -86 q-88 -85 -125 -154t-37 -145zM703 1289q0 -50 50 -50h102q50 0 50 50v154q0 50 -50 50h-102q-50 0 -50 -50v-154z" />
<glyph unicode="&#xc0;" d="M89 58q-10 -26 0.5 -42t38.5 -16h168q43 0 56 41l50 161q13 41 56 41h585q45 0 55 -44l36 -155q10 -44 55 -44h183q28 0 38.5 16t0.5 42l-551 1396q-14 39 -57 39h-105q-43 0 -57 -39zM460 2281q-10 -17 4 -43l154 -279q19 -35 59 -35h157q31 0 40 18t-10 43l-213 283 q-23 30 -61 30h-91q-29 0 -39 -17zM495 538l223 674q7 22 19.5 30t25 0t19.5 -30l224 -674q9 -26 -2 -41.5t-39 -15.5h-429q-28 0 -39 15.5t-2 41.5z" />
<glyph unicode="&#xc1;" d="M89 58q-10 -26 0.5 -42t38.5 -16h168q43 0 56 41l50 161q13 41 56 41h585q45 0 55 -44l36 -155q10 -44 55 -44h183q28 0 38.5 16t0.5 42l-551 1396q-14 39 -57 39h-105q-43 0 -57 -39zM495 538l223 674q7 22 19.5 30t25 0t19.5 -30l224 -674q9 -26 -2 -41.5t-39 -15.5 h-429q-28 0 -39 15.5t-2 41.5zM714.5 1920.5q8.5 -17.5 40.5 -17.5h57q37 0 61 28l286 329q21 24 12.5 42.5t-40.5 18.5h-102q-38 0 -61 -30l-243 -327q-19 -26 -10.5 -43.5z" />
<glyph unicode="&#xc2;" d="M89 58q-10 -26 0.5 -42t38.5 -16h168q43 0 56 41l50 161q13 41 56 41h585q45 0 55 -44l36 -155q10 -44 55 -44h183q28 0 38.5 16t0.5 42l-551 1396q-14 39 -57 39h-105q-43 0 -57 -39zM442 1502h139l145 197q16 22 35 22t35 -22l145 -197h139l-245 376h-148zM495 538 l223 674q7 22 19.5 30t25 0t19.5 -30l224 -674q9 -26 -2 -41.5t-39 -15.5h-429q-28 0 -39 15.5t-2 41.5z" />
<glyph unicode="&#xc3;" d="M89 58q-10 -26 0.5 -42t38.5 -16h168q43 0 56 41l50 161q13 41 56 41h585q45 0 55 -44l36 -155q10 -44 55 -44h183q28 0 38.5 16t0.5 42l-551 1396q-14 39 -57 39h-105q-43 0 -57 -39zM434 1938q-2 -25 10.5 -39t37.5 -14h25q46 0 52 49q4 43 17 70q18 36 56 36 q26 0 68 -39l57 -55q68 -61 139 -61q82 0 131.5 59.5t60.5 169.5q2 25 -10.5 39t-37.5 14h-25q-46 0 -52 -49q-4 -44 -17 -69q-18 -37 -56 -37q-26 0 -68 39l-57 55q-68 61 -139 61q-82 0 -131.5 -59.5t-60.5 -169.5zM495 538l223 674q7 22 19.5 30t25 0t19.5 -30l224 -674 q9 -26 -2 -41.5t-39 -15.5h-429q-28 0 -39 15.5t-2 41.5z" />
<glyph unicode="&#xc4;" d="M89 58q-10 -26 0.5 -42t38.5 -16h168q43 0 56 41l50 161q13 41 56 41h585q45 0 55 -44l36 -155q10 -44 55 -44h183q28 0 38.5 16t0.5 42l-551 1396q-14 39 -57 39h-105q-43 0 -57 -39zM442 1675q0 -50 50 -50h118q50 0 50 50v117q0 50 -50 50h-118q-50 0 -50 -50v-117z M495 538l223 674q7 22 19.5 30t25 0t19.5 -30l224 -674q9 -26 -2 -41.5t-39 -15.5h-429q-28 0 -39 15.5t-2 41.5zM861 1675q0 -50 50 -50h118q50 0 50 50v117q0 50 -50 50h-118q-50 0 -50 -50v-117z" />
<glyph unicode="&#xc5;" d="M89 58q-10 -26 0.5 -42t38.5 -16h168q43 0 56 41l50 161q13 41 56 41h585q45 0 55 -44l36 -155q10 -44 55 -44h183q28 0 38.5 16t0.5 42l-551 1396q-14 39 -57 39h-105q-43 0 -57 -39zM487 1799q0 -115 79.5 -195t194.5 -80t194.5 80t79.5 195t-79.5 194.5t-194.5 79.5 t-194.5 -79.5t-79.5 -194.5zM495 538l223 674q7 22 19.5 30t25 0t19.5 -30l224 -674q9 -26 -2 -41.5t-39 -15.5h-429q-28 0 -39 15.5t-2 41.5zM609 1799q0 64 43.5 107.5t108.5 43.5q64 0 108 -44t44 -107q0 -64 -44 -108t-108 -44q-65 0 -108.5 43.5t-43.5 108.5z" />
<glyph unicode="&#xc6;" d="M86 58q-15 -58 39 -58h231q51 0 49 51l-6 161q-2 51 49 51h217q50 0 50 -50v-163q0 -50 50 -50h603q50 0 50 50v160q0 50 -50 50h-410q-50 0 -50 50v181q0 50 50 50h361q50 0 50 50v70q0 50 -50 50h-361q-50 0 -50 50v512q0 50 50 50h391q50 0 50 50v70q0 50 -50 50h-860 q-48 0 -58 -39zM427 488l144 807q7 40 58 40h36q50 0 50 -50v-804q0 -50 -50 -50h-198q-50 0 -40 57z" />
<glyph unicode="&#xc7;" d="M148 745q0 360 195 567.5t534 207.5q248 0 442 -121q33 -19 33 -60v-95q0 -32 -17 -40t-43 12q-180 138 -403 138q-256 0 -392 -156.5t-136 -452.5q4 -254 133.5 -361t394.5 -107q223 0 403 138q26 20 43 12t17 -40v-233q0 -40 -33 -60q-188 -117 -416 -123 q85 -104 85 -186q0 -180 -238 -180q-71 0 -133 13q-43 10 -43 56v26q0 53 56 39q40 -11 99 -11q119 0 119 94q0 43 -46 116q-13 20 -13 37q-300 27 -470.5 231t-170.5 539z" />
<glyph unicode="&#xc8;" d="M269 50q0 -50 50 -50h862q50 0 50 50v210q0 50 -50 50h-660q-50 0 -50 50v301q0 50 50 50h611q50 0 50 50v70q0 50 -50 50h-611q-50 0 -50 50v342q0 50 50 50h642q50 0 50 50v70q0 50 -50 50h-844q-50 0 -50 -50v-1393zM417 2329q-10 -17 4 -43l154 -279q19 -35 59 -35 h157q31 0 40 18t-10 43l-213 283q-23 30 -61 30h-91q-29 0 -39 -17z" />
<glyph unicode="&#xc9;" d="M269 50q0 -50 50 -50h862q50 0 50 50v210q0 50 -50 50h-660q-50 0 -50 50v301q0 50 50 50h611q50 0 50 50v70q0 50 -50 50h-611q-50 0 -50 50v342q0 50 50 50h642q50 0 50 50v70q0 50 -50 50h-844q-50 0 -50 -50v-1393zM671.5 1968.5q8.5 -17.5 40.5 -17.5h57q37 0 61 28 l286 329q21 24 12.5 42.5t-40.5 18.5h-102q-38 0 -61 -30l-243 -327q-19 -26 -10.5 -43.5z" />
<glyph unicode="&#xca;" d="M269 50q0 -50 50 -50h862q50 0 50 50v210q0 50 -50 50h-660q-50 0 -50 50v301q0 50 50 50h611q50 0 50 50v70q0 50 -50 50h-611q-50 0 -50 50v342q0 50 50 50h642q50 0 50 50v70q0 50 -50 50h-844q-50 0 -50 -50v-1393zM399 1550h139l145 197q16 22 35 22t35 -22 l145 -197h139l-245 376h-148z" />
<glyph unicode="&#xcb;" d="M269 50q0 -50 50 -50h862q50 0 50 50v210q0 50 -50 50h-660q-50 0 -50 50v301q0 50 50 50h611q50 0 50 50v70q0 50 -50 50h-611q-50 0 -50 50v342q0 50 50 50h642q50 0 50 50v70q0 50 -50 50h-844q-50 0 -50 -50v-1393zM399 1723q0 -50 50 -50h118q50 0 50 50v117 q0 50 -50 50h-118q-50 0 -50 -50v-117zM818 1723q0 -50 50 -50h118q50 0 50 50v117q0 50 -50 50h-118q-50 0 -50 -50v-117z" />
<glyph unicode="&#xcc;" d="M459 2379q-10 -17 4 -43l154 -279q19 -35 59 -35h157q31 0 40 18t-10 43l-213 283q-23 30 -61 30h-91q-29 0 -39 -17zM632 51q-3 -51 49 -51h139q51 0 48 51q-10 210 -15 423t-7.5 546t-3.5 423q-2 50 -51 50h-73q-48 0 -50 -49q-2 -112 -5.5 -340t-6 -365t-9 -331 t-15.5 -357z" />
<glyph unicode="&#xcd;" d="M632 51q-3 -51 49 -51h139q51 0 48 51q-10 210 -15 423t-7.5 546t-3.5 423q-2 50 -51 50h-73q-48 0 -50 -49q-2 -112 -5.5 -340t-6 -365t-9 -331t-15.5 -357zM713.5 2018.5q8.5 -17.5 40.5 -17.5h57q37 0 61 28l286 329q21 24 12.5 42.5t-40.5 18.5h-102q-38 0 -61 -30 l-243 -327q-19 -26 -10.5 -43.5z" />
<glyph unicode="&#xce;" d="M441 1600h139l145 197q16 22 35 22t35 -22l145 -197h139l-245 376h-148zM632 51q-3 -51 49 -51h139q51 0 48 51q-10 210 -15 423t-7.5 546t-3.5 423q-2 50 -51 50h-73q-48 0 -50 -49q-2 -112 -5.5 -340t-6 -365t-9 -331t-15.5 -357z" />
<glyph unicode="&#xcf;" d="M441 1773q0 -50 50 -50h118q50 0 50 50v117q0 50 -50 50h-118q-50 0 -50 -50v-117zM632 51q-3 -51 49 -51h139q51 0 48 51q-10 210 -15 423t-7.5 546t-3.5 423q-2 50 -51 50h-73q-48 0 -50 -49q-2 -112 -5.5 -340t-6 -365t-9 -331t-15.5 -357zM860 1773q0 -50 50 -50h118 q50 0 50 50v117q0 50 -50 50h-118q-50 0 -50 -50v-117z" />
<glyph unicode="&#xd0;" d="M101 750q0 -50 50 -50h101q50 0 50 -50v-600q0 -50 50 -50h336q344 0 527.5 185t183.5 563q0 376 -183.5 560.5t-527.5 184.5h-336q-50 0 -50 -50v-549q0 -50 -50 -50h-101q-50 0 -50 -50v-44zM505 356v294q0 50 50 50h206q50 0 50 50v44q0 50 -50 50h-206q-50 0 -50 50 v383q0 50 50 50h163q221 0 344.5 -144t123.5 -435q0 -85 -11.5 -151t-31 -112.5t-53 -79.5t-68.5 -52t-87.5 -29.5t-100.5 -14t-116 -3.5h-163q-50 0 -50 50z" />
<glyph unicode="&#xd1;" d="M176 51q-2 -51 50 -51h154q51 0 49 51l-51 1060q-2 37 19 43t39 -27l578 -1091q19 -36 59 -36h202q50 0 50 50v1393q0 50 -50 50h-87q-48 0 -50 -49l-26 -1040q-1 -37 -22 -42t-39 28l-565 1038q-19 35 -59 35h-163q-48 0 -50 -49zM435 2036q-2 -25 10.5 -39t37.5 -14h25 q46 0 52 49q4 43 17 70q18 36 56 36q26 0 68 -39l57 -55q68 -61 139 -61q82 0 131.5 59.5t60.5 169.5q2 25 -10.5 39t-37.5 14h-25q-46 0 -52 -49q-4 -44 -17 -69q-18 -37 -56 -37q-26 0 -68 39l-57 55q-68 61 -139 61q-82 0 -131.5 -59.5t-60.5 -169.5z" />
<glyph unicode="&#xd2;" d="M109 745q0 -352 177.5 -563t464.5 -211q286 0 463 211.5t177 562.5q0 352 -177 563.5t-463 211.5q-287 0 -464.5 -211.5t-177.5 -563.5zM322 745q0 280 118.5 445.5t310.5 165.5t309.5 -165.5t117.5 -445.5q0 -91 -20.5 -159t-56.5 -112t-91 -71t-117 -37.5t-142 -10.5 q-100 0 -174.5 18t-134 60.5t-90 120.5t-30.5 191zM449 2379q-10 -17 4 -43l154 -279q19 -35 59 -35h157q31 0 40 18t-10 43l-213 283q-23 30 -61 30h-91q-29 0 -39 -17z" />
<glyph unicode="&#xd3;" d="M109 745q0 -352 177.5 -563t464.5 -211q286 0 463 211.5t177 562.5q0 352 -177 563.5t-463 211.5q-287 0 -464.5 -211.5t-177.5 -563.5zM322 745q0 280 118.5 445.5t310.5 165.5t309.5 -165.5t117.5 -445.5q0 -91 -20.5 -159t-56.5 -112t-91 -71t-117 -37.5t-142 -10.5 q-100 0 -174.5 18t-134 60.5t-90 120.5t-30.5 191zM703.5 2018.5q8.5 -17.5 40.5 -17.5h57q37 0 61 28l286 329q21 24 12.5 42.5t-40.5 18.5h-102q-38 0 -61 -30l-243 -327q-19 -26 -10.5 -43.5z" />
<glyph unicode="&#xd4;" d="M109 745q0 -352 177.5 -563t464.5 -211q286 0 463 211.5t177 562.5q0 352 -177 563.5t-463 211.5q-287 0 -464.5 -211.5t-177.5 -563.5zM322 745q0 280 118.5 445.5t310.5 165.5t309.5 -165.5t117.5 -445.5q0 -91 -20.5 -159t-56.5 -112t-91 -71t-117 -37.5t-142 -10.5 q-100 0 -174.5 18t-134 60.5t-90 120.5t-30.5 191zM431 1600h139l145 197q16 22 35 22t35 -22l145 -197h139l-245 376h-148z" />
<glyph unicode="&#xd5;" d="M109 745q0 -352 177.5 -563t464.5 -211q286 0 463 211.5t177 562.5q0 352 -177 563.5t-463 211.5q-287 0 -464.5 -211.5t-177.5 -563.5zM322 745q0 280 118.5 445.5t310.5 165.5t309.5 -165.5t117.5 -445.5q0 -91 -20.5 -159t-56.5 -112t-91 -71t-117 -37.5t-142 -10.5 q-100 0 -174.5 18t-134 60.5t-90 120.5t-30.5 191zM423 2036q-2 -25 10.5 -39t37.5 -14h25q46 0 52 49q4 43 17 70q18 36 56 36q26 0 68 -39l57 -55q68 -61 139 -61q82 0 131.5 59.5t60.5 169.5q2 25 -10.5 39t-37.5 14h-25q-46 0 -52 -49q-4 -44 -17 -69q-18 -37 -56 -37 q-26 0 -68 39l-57 55q-68 61 -139 61q-82 0 -131.5 -59.5t-60.5 -169.5z" />
<glyph unicode="&#xd6;" d="M109 745q0 -352 177.5 -563t464.5 -211q286 0 463 211.5t177 562.5q0 352 -177 563.5t-463 211.5q-287 0 -464.5 -211.5t-177.5 -563.5zM322 745q0 280 118.5 445.5t310.5 165.5t309.5 -165.5t117.5 -445.5q0 -91 -20.5 -159t-56.5 -112t-91 -71t-117 -37.5t-142 -10.5 q-100 0 -174.5 18t-134 60.5t-90 120.5t-30.5 191zM431 1773q0 -50 50 -50h118q50 0 50 50v117q0 50 -50 50h-118q-50 0 -50 -50v-117zM850 1773q0 -50 50 -50h118q50 0 50 50v117q0 50 -50 50h-118q-50 0 -50 -50v-117z" />
<glyph unicode="&#xd7;" d="M222 289q-34 -35 1 -70l98 -100q35 -35 71 0l308 308q35 35 70 0l309 -309q35 -34 70 1l100 101q34 34 2 70l-290 336q-32 38 0 70l317 319q35 35 0 70l-99 100q-35 35 -70 1l-319 -319q-35 -35 -70 0l-288 288q-36 35 -71 0l-98 -100q-35 -35 0 -70l286 -289 q35 -35 0 -70z" />
<glyph unicode="&#xd8;" d="M109 745q0 352 177.5 563.5t464.5 211.5q59 0 119 -11l29 83q13 42 57 40l49 -2q27 -1 38.5 -16t3.5 -41l-33 -109q176 -83 276.5 -270.5t100.5 -448.5q0 -351 -177 -562.5t-463 -211.5q-93 0 -176 24q-15 -33 -54 -32l-127 4q-27 1 -37.5 16.5t-2.5 41.5l24 69 q-128 99 -198.5 266.5t-70.5 384.5zM322 745q0 -254 164 -339l329 945q-35 5 -64 5q-192 0 -310.5 -165.5t-118.5 -445.5zM684 357q44 -2 67 -2q80 0 142 10.5t117 37.5t91 71t56.5 112t20.5 159q0 191 -57 332t-159 213z" />
<glyph unicode="&#xd9;" d="M168 1443l10 -882q3 -292 147 -441t426 -149q281 0 424.5 149t146.5 441l10 882q0 50 -50 50h-112q-50 0 -50 -51l8 -716q3 -237 -88.5 -344t-288.5 -107q-198 0 -290 107t-89 344l9 716q0 51 -50 51h-113q-50 0 -50 -50zM449 2379q-10 -17 4 -43l154 -279q19 -35 59 -35 h157q31 0 40 18t-10 43l-213 283q-23 30 -61 30h-91q-29 0 -39 -17z" />
<glyph unicode="&#xda;" d="M168 1443l10 -882q3 -292 147 -441t426 -149q281 0 424.5 149t146.5 441l10 882q0 50 -50 50h-112q-50 0 -50 -51l8 -716q3 -237 -88.5 -344t-288.5 -107q-198 0 -290 107t-89 344l9 716q0 51 -50 51h-113q-50 0 -50 -50zM703.5 2018.5q8.5 -17.5 40.5 -17.5h57 q37 0 61 28l286 329q21 24 12.5 42.5t-40.5 18.5h-102q-38 0 -61 -30l-243 -327q-19 -26 -10.5 -43.5z" />
<glyph unicode="&#xdb;" d="M168 1443l10 -882q3 -292 147 -441t426 -149q281 0 424.5 149t146.5 441l10 882q0 50 -50 50h-112q-50 0 -50 -51l8 -716q3 -237 -88.5 -344t-288.5 -107q-198 0 -290 107t-89 344l9 716q0 51 -50 51h-113q-50 0 -50 -50zM431 1600h139l145 197q16 22 35 22t35 -22 l145 -197h139l-245 376h-148z" />
<glyph unicode="&#xdc;" d="M168 1443l10 -882q3 -292 147 -441t426 -149q281 0 424.5 149t146.5 441l10 882q0 50 -50 50h-112q-50 0 -50 -51l8 -716q3 -237 -88.5 -344t-288.5 -107q-198 0 -290 107t-89 344l9 716q0 51 -50 51h-113q-50 0 -50 -50zM431 1773q0 -50 50 -50h118q50 0 50 50v117 q0 50 -50 50h-118q-50 0 -50 -50v-117zM850 1773q0 -50 50 -50h118q50 0 50 50v117q0 50 -50 50h-118q-50 0 -50 -50v-117z" />
<glyph unicode="&#xdd;" d="M147.5 1476.5q-10.5 -16.5 2.5 -42.5l444 -894q15 -29 15 -62v-428q0 -50 50 -50h173q50 0 50 50v428q0 33 15 62l453 894q13 26 3 42.5t-39 16.5h-111q-40 0 -59 -35l-358 -665q-14 -27 -34 -27t-34 27l-361 665q-19 35 -59 35h-111q-29 0 -39.5 -16.5zM702.5 2018.5 q8.5 -17.5 40.5 -17.5h57q37 0 61 28l286 329q21 24 12.5 42.5t-40.5 18.5h-102q-38 0 -61 -30l-243 -327q-19 -26 -10.5 -43.5z" />
<glyph unicode="&#xde;" d="M268 0h202v288q0 50 50 50h204q251 0 379.5 113t128.5 333t-128.5 332.5t-379.5 112.5h-204q-50 0 -50 50v214h-202v-1493zM470 554v459q0 50 50 50h204q142 0 218.5 -72.5t76.5 -206.5t-77 -207t-218 -73h-204q-50 0 -50 50z" />
<glyph unicode="&#xdf;" d="M215 0h277l-49 1103q-1 28 3 61q23 151 89.5 215t192.5 64q49 0 76.5 -2.5t61 -13t57 -31.5t49.5 -58.5t53 -94.5q12 -26 3 -43t-37 -22q-154 -34 -211.5 -112t-57.5 -206q0 -53 20.5 -106.5t41.5 -84t60 -80.5q7 -9 11 -14l82 -55q101 -62 131 -104q29 -43 29 -85 q0 -61 -60 -93.5t-176 -32.5q-127 0 -285 59v-244q149 -49 273 -49q211 0 323.5 91.5t112.5 263.5q0 53 -10 91t-38.5 79.5t-79.5 83t-134 94.5l-57 37q-65 42 -94 82.5t-29 87.5q0 96 84 153.5t235 65.5q-3 224 -112.5 340t-317.5 116q-218 0 -337.5 -109.5t-119.5 -309.5z " />
<glyph unicode="&#xe0;" d="M277 326q0 381 504 381h208q50 0 50 18q0 129 -79.5 202.5t-238.5 83.5q-161 0 -303 -63q-27 -12 -43 -2t-16 38v43q0 42 40 57q180 63 341 63q243 0 363 -126t120 -382v-589q0 -50 -50 -50h-84q-50 0 -50 50v22q0 34 -16 39.5t-40 -18.5q-122 -122 -331 -122 q-172 0 -273.5 96.5t-101.5 258.5zM432 406q-3 -33 7 -59q21 -59 78.5 -77.5t162.5 -18.5q74 0 118 10t77.5 39t47 82.5t13.5 141.5q-2 48 -50 48h-116q-183 0 -256.5 -38t-81.5 -128zM477 2006q10 17 39 17h91q38 0 61 -30l213 -283q19 -26 10 -43.5t-40 -17.5h-157 q-40 0 -59 35l-154 279q-14 26 -4 43z" />
<glyph unicode="&#xe1;" d="M277 326q0 381 504 381h208q50 0 50 18q0 129 -79.5 202.5t-238.5 83.5q-161 0 -303 -63q-27 -12 -43 -2t-16 38v43q0 42 40 57q180 63 341 63q243 0 363 -126t120 -382v-589q0 -50 -50 -50h-84q-50 0 -50 50v22q0 34 -16 39.5t-40 -18.5q-122 -122 -331 -122 q-172 0 -273.5 96.5t-101.5 258.5zM432 406q-3 -33 7 -59q21 -59 78.5 -77.5t162.5 -18.5q74 0 118 10t77.5 39t47 82.5t13.5 141.5q-2 48 -50 48h-116q-183 0 -256.5 -38t-81.5 -128zM731.5 1646q-8.5 18 10.5 43l243 327q23 30 61 30h102q32 0 40.5 -18.5t-12.5 -42.5 l-286 -329q-24 -28 -61 -28h-57q-32 0 -40.5 18z" />
<glyph unicode="&#xe2;" d="M277 326q0 381 504 381h208q50 0 50 18q0 129 -79.5 202.5t-238.5 83.5q-161 0 -303 -63q-27 -12 -43 -2t-16 38v43q0 42 40 57q180 63 341 63q243 0 363 -126t120 -382v-589q0 -50 -50 -50h-84q-50 0 -50 50v22q0 34 -16 39.5t-40 -18.5q-122 -122 -331 -122 q-172 0 -273.5 96.5t-101.5 258.5zM432 406q-3 -33 7 -59q21 -59 78.5 -77.5t162.5 -18.5q74 0 118 10t77.5 39t47 82.5t13.5 141.5q-2 48 -50 48h-116q-183 0 -256.5 -38t-81.5 -128zM459 1227l245 376h148l245 -376h-139l-145 197q-16 22 -35 22t-35 -22l-145 -197h-139z " />
<glyph unicode="&#xe3;" d="M277 326q0 381 504 381h208q50 0 50 18q0 129 -79.5 202.5t-238.5 83.5q-161 0 -303 -63q-27 -12 -43 -2t-16 38v43q0 42 40 57q180 63 341 63q243 0 363 -126t120 -382v-589q0 -50 -50 -50h-84q-50 0 -50 50v22q0 34 -16 39.5t-40 -18.5q-122 -122 -331 -122 q-172 0 -273.5 96.5t-101.5 258.5zM432 406q-3 -33 7 -59q21 -59 78.5 -77.5t162.5 -18.5q74 0 118 10t77.5 39t47 82.5t13.5 141.5q-2 48 -50 48h-116q-183 0 -256.5 -38t-81.5 -128zM451 1663q11 110 60.5 169.5t131.5 59.5q71 0 139 -61l57 -55q42 -39 68 -39q38 0 56 37 q13 25 17 69q6 49 52 49h25q25 0 37.5 -14t10.5 -39q-11 -110 -60.5 -169.5t-131.5 -59.5q-71 0 -139 61l-57 55q-42 39 -68 39q-38 0 -56 -36q-13 -27 -17 -70q-6 -49 -52 -49h-25q-25 0 -37.5 14t-10.5 39z" />
<glyph unicode="&#xe4;" d="M277 326q0 381 504 381h208q50 0 50 18q0 129 -79.5 202.5t-238.5 83.5q-161 0 -303 -63q-27 -12 -43 -2t-16 38v43q0 42 40 57q180 63 341 63q243 0 363 -126t120 -382v-589q0 -50 -50 -50h-84q-50 0 -50 50v22q0 34 -16 39.5t-40 -18.5q-122 -122 -331 -122 q-172 0 -273.5 96.5t-101.5 258.5zM432 406q-3 -33 7 -59q21 -59 78.5 -77.5t162.5 -18.5q74 0 118 10t77.5 39t47 82.5t13.5 141.5q-2 48 -50 48h-116q-183 0 -256.5 -38t-81.5 -128zM459 1400v117q0 50 50 50h118q50 0 50 -50v-117q0 -50 -50 -50h-118q-50 0 -50 50z M878 1400v117q0 50 50 50h118q50 0 50 -50v-117q0 -50 -50 -50h-118q-50 0 -50 50z" />
<glyph unicode="&#xe5;" d="M277 326q0 381 504 381h208q50 0 50 18q0 129 -79.5 202.5t-238.5 83.5q-161 0 -303 -63q-27 -12 -43 -2t-16 38v43q0 42 40 57q180 63 341 63q243 0 363 -126t120 -382v-589q0 -50 -50 -50h-84q-50 0 -50 50v22q0 34 -16 39.5t-40 -18.5q-122 -122 -331 -122 q-172 0 -273.5 96.5t-101.5 258.5zM432 406q-3 -33 7 -59q21 -59 78.5 -77.5t162.5 -18.5q74 0 118 10t77.5 39t47 82.5t13.5 141.5q-2 48 -50 48h-116q-183 0 -256.5 -38t-81.5 -128zM504 1524q0 115 79.5 194.5t194.5 79.5t194.5 -79.5t79.5 -194.5t-79.5 -195t-194.5 -80 t-194.5 80t-79.5 195zM626 1524q0 -65 43.5 -108.5t108.5 -43.5q64 0 108 44t44 108q0 63 -44 107t-108 44q-65 0 -108.5 -43.5t-43.5 -107.5z" />
<glyph unicode="&#xe6;" d="M-140 326q0 242 122 341.5t382 99.5h208q50 0 50 18q0 35 -22 76.5t-61 80t-101.5 64t-133.5 25.5q-193 0 -362 -92v130q202 78 381 78q123 0 220.5 -36.5t157.5 -104.5q33 -38 67 -4q147 145 382 145q146 0 259.5 -68t172 -176.5t58.5 -236.5v-90h-791 q-27 0 -39.5 -14.5t-6.5 -39.5q29 -121 131 -199t259 -78q205 0 404 106v-264q-92 -39 -140 -57.5t-128 -38.5t-146 -20q-301 0 -458 193q-34 42 -67 -1q-142 -192 -399 -192q-189 0 -294 93.5t-105 261.5zM44 395q0 -78 64.5 -124t175.5 -46q157 0 246 86.5t92 265.5 q-3 46 -50 46h-133q-95 0 -156 -5t-110.5 -19t-75.5 -40t-39.5 -65.5t-13.5 -98.5zM811 773q-7 -25 6 -39.5t39 -13.5h547q25 0 38 14t9 38q-20 108 -101.5 190.5t-196.5 82.5q-127 0 -218 -79.5t-123 -192.5z" />
<glyph unicode="&#xe7;" d="M307 559q0 274 150.5 431t412.5 157q155 0 285 -52q38 -15 38 -57v-56q0 -28 -16 -38t-43 2q-122 55 -256 55q-177 0 -272 -117t-95 -325q14 -142 95.5 -201.5t263.5 -69.5q14 0 63.5 -1t71.5 0t59.5 5.5t67.5 14.5q57 19 58 -37l2 -185q1 -43 -37 -59q-112 -46 -242 -53 l1 -2q85 -104 85 -186q0 -180 -238 -180q-71 0 -133 13q-43 10 -43 56v26q0 53 56 39q40 -11 99 -11q119 0 119 94q0 43 -46 116q-13 21 -13 35q-228 19 -360.5 175.5t-132.5 410.5z" />
<glyph unicode="&#xe8;" d="M236 527q0 -262 150.5 -404t422.5 -152q171 0 376 61q40 12 38 58l-2 149q-1 53 -58 37q-53 -15 -117.5 -22.5t-107.5 -8.5t-122 -1q-56 3 -93 6.5t-79.5 11.5t-69.5 20.5t-55 33.5t-44 50.5t-28.5 70.5t-16.5 95q-3 52 49 52h735q50 0 50 50v20q-19 240 -136 361.5 t-342 131.5q-248 0 -394 -169.5t-156 -450.5zM450 2006q-10 -17 4 -43l154 -279q19 -35 59 -35h157q31 0 40 17.5t-10 43.5l-213 283q-23 30 -61 30h-91q-29 0 -39 -17zM454 786q24 100 116 182t217 82q55 0 106 -24.5t88.5 -64t64.5 -83t43 -88.5q9 -24 -3.5 -39.5 t-39.5 -16.5h-545q-26 0 -39.5 14t-7.5 38z" />
<glyph unicode="&#xe9;" d="M236 527q0 -262 150.5 -404t422.5 -152q171 0 376 61q40 12 38 58l-2 149q-1 53 -58 37q-53 -15 -117.5 -22.5t-107.5 -8.5t-122 -1q-56 3 -93 6.5t-79.5 11.5t-69.5 20.5t-55 33.5t-44 50.5t-28.5 70.5t-16.5 95q-3 52 49 52h735q50 0 50 50v20q-19 240 -136 361.5 t-342 131.5q-248 0 -394 -169.5t-156 -450.5zM454 786q24 100 116 182t217 82q55 0 106 -24.5t88.5 -64t64.5 -83t43 -88.5q9 -24 -3.5 -39.5t-39.5 -16.5h-545q-26 0 -39.5 14t-7.5 38zM704.5 1646q8.5 -18 40.5 -18h57q37 0 61 28l286 329q21 24 12.5 42.5t-40.5 18.5 h-102q-38 0 -61 -30l-243 -327q-19 -25 -10.5 -43z" />
<glyph unicode="&#xea;" d="M236 527q0 -262 150.5 -404t422.5 -152q171 0 376 61q40 12 38 58l-2 149q-1 53 -58 37q-53 -15 -117.5 -22.5t-107.5 -8.5t-122 -1q-56 3 -93 6.5t-79.5 11.5t-69.5 20.5t-55 33.5t-44 50.5t-28.5 70.5t-16.5 95q-3 52 49 52h735q50 0 50 50v20q-19 240 -136 361.5 t-342 131.5q-248 0 -394 -169.5t-156 -450.5zM432 1227h139l145 197q16 22 35 22t35 -22l145 -197h139l-245 376h-148zM454 786q24 100 116 182t217 82q55 0 106 -24.5t88.5 -64t64.5 -83t43 -88.5q9 -24 -3.5 -39.5t-39.5 -16.5h-545q-26 0 -39.5 14t-7.5 38z" />
<glyph unicode="&#xeb;" d="M236 527q0 -262 150.5 -404t422.5 -152q171 0 376 61q40 12 38 58l-2 149q-1 53 -58 37q-53 -15 -117.5 -22.5t-107.5 -8.5t-122 -1q-56 3 -93 6.5t-79.5 11.5t-69.5 20.5t-55 33.5t-44 50.5t-28.5 70.5t-16.5 95q-3 52 49 52h735q50 0 50 50v20q-19 240 -136 361.5 t-342 131.5q-248 0 -394 -169.5t-156 -450.5zM432 1400q0 -50 50 -50h118q50 0 50 50v117q0 50 -50 50h-118q-50 0 -50 -50v-117zM454 786q24 100 116 182t217 82q55 0 106 -24.5t88.5 -64t64.5 -83t43 -88.5q9 -24 -3.5 -39.5t-39.5 -16.5h-545q-26 0 -39.5 14t-7.5 38z M851 1400q0 -50 50 -50h118q50 0 50 50v117q0 50 -50 50h-118q-50 0 -50 -50v-117z" />
<glyph unicode="&#xec;" d="M524 1621q-10 -17 4 -43l154 -279q19 -35 59 -35h157q31 0 40 18t-10 43l-213 283q-23 30 -61 30h-91q-29 0 -39 -17zM723 50q-1 -24 12.5 -37t37.5 -13h157q50 0 50 50v1020q0 50 -50 50h-84q-47 0 -50 -50z" />
<glyph unicode="&#xed;" d="M521.5 1238q8.5 -18 40.5 -18h57q37 0 61 28l286 329q21 24 12.5 42.5t-40.5 18.5h-102q-38 0 -61 -30l-243 -327q-19 -25 -10.5 -43zM595 50q0 -50 50 -50h152q25 0 38 13t12 37l-68 1020q-3 50 -50 50h-84q-50 0 -50 -50v-1020z" />
<glyph unicode="&#xee;" d="M462 1279q9 -17 39 -17h31q38 0 61 31l122 166q16 22 35 22t35 -22l122 -166q23 -31 61 -31h29q31 0 40.5 17t-7.5 43l-185 283q-22 33 -60 33h-70q-38 0 -60 -33l-185 -283q-17 -26 -8 -43zM663 50q-1 -24 12.5 -37t37.5 -13h124q52 0 50 50l-20 1020q-2 50 -50 50h-84 q-48 0 -50 -50z" />
<glyph unicode="&#xef;" d="M432 1400q0 -50 50 -50h118q50 0 50 50v117q0 50 -50 50h-118q-50 0 -50 -50v-117zM637 50q-1 -24 12.5 -37t37.5 -13h104q50 0 50 50v1020q0 50 -50 50h-84q-48 0 -50 -50zM851 1400q0 -50 50 -50h118q50 0 50 50v117q0 50 -50 50h-118q-50 0 -50 -50v-117z" />
<glyph unicode="&#xf0;" d="M236 537q0 -255 141.5 -410.5t372.5 -155.5t372.5 155.5t141.5 410.5q0 173 -57 317t-183 287l-122 138q-19 22 -14 40.5t32 27.5l187 62q48 15 32 64l-1 2q-15 46 -63 31l-246 -82q-40 -13 -68 18l-75 86q-24 28 -61 28h-109q-32 0 -40.5 -18.5t13.5 -42.5l84 -95 q19 -22 14 -40.5t-32 -27.5l-173 -56q-47 -17 -32 -64l1 -3q15 -48 63 -32l232 78q40 13 68 -18l72 -82q34 -38 20 -55q-5 -6 -18 -5q-36 3 -55 3q-221 0 -359 -155.5t-138 -405.5zM430 537q0 195 92.5 303t259.5 108q70 0 146 -23q34 -10 53 -37q88 -131 88 -351 q0 -53 -8 -93.5t-20.5 -68t-36.5 -46.5t-46.5 -29.5t-60.5 -16t-68 -7t-79 -1.5q-38 0 -62.5 0.5t-56 3.5t-51.5 8t-43.5 14.5t-37.5 23t-29 33t-22.5 45t-12.5 59.5t-5 75z" />
<glyph unicode="&#xf1;" d="M247 51q-2 -51 50 -51h153q51 0 49 51l-28 592q0 168 83 261t248 93q121 0 174.5 -77.5t53.5 -239.5l-37 -629q-3 -51 49 -51h161q51 0 49 51l-28 625q-20 471 -401 471q-146 0 -302 -107q-25 -18 -42.5 -9t-17.5 40v9q0 50 -50 50h-86q-48 0 -50 -49zM404 1663 q-2 -25 10.5 -39t37.5 -14h25q46 0 52 49q4 43 17 70q18 36 56 36q26 0 68 -39l57 -55q68 -61 139 -61q82 0 131.5 59.5t60.5 169.5q2 25 -10.5 39t-37.5 14h-25q-46 0 -52 -49q-4 -44 -17 -69q-18 -37 -56 -37q-26 0 -68 39l-57 55q-68 61 -139 61q-82 0 -131.5 -59.5 t-60.5 -169.5z" />
<glyph unicode="&#xf2;" d="M236 559q0 -275 136.5 -431.5t377.5 -156.5q240 0 377 156.5t137 431.5q0 276 -137 432t-377 156q-241 0 -377.5 -156t-136.5 -432zM389 2006q-10 -17 4 -43l154 -279q19 -35 59 -35h157q31 0 40 17.5t-10 43.5l-213 283q-23 30 -61 30h-91q-29 0 -39 -17zM430 591 q0 195 86 307.5t234 112.5q147 0 233 -113.5t86 -306.5q0 -77 -15 -131.5t-40.5 -87.5t-67.5 -51.5t-87 -25t-109 -6.5q-65 0 -110.5 6.5t-87.5 25t-67 51.5t-40 87.5t-15 131.5z" />
<glyph unicode="&#xf3;" d="M236 559q0 -275 136.5 -431.5t377.5 -156.5q240 0 377 156.5t137 431.5q0 276 -137 432t-377 156q-241 0 -377.5 -156t-136.5 -432zM430 591q0 195 86 307.5t234 112.5q147 0 233 -113.5t86 -306.5q0 -77 -15 -131.5t-40.5 -87.5t-67.5 -51.5t-87 -25t-109 -6.5 q-65 0 -110.5 6.5t-87.5 25t-67 51.5t-40 87.5t-15 131.5zM643.5 1646q8.5 -18 40.5 -18h57q37 0 61 28l286 329q21 24 12.5 42.5t-40.5 18.5h-102q-38 0 -61 -30l-243 -327q-19 -25 -10.5 -43z" />
<glyph unicode="&#xf4;" d="M236 559q0 -275 136.5 -431.5t377.5 -156.5q240 0 377 156.5t137 431.5q0 276 -137 432t-377 156q-241 0 -377.5 -156t-136.5 -432zM371 1227h139l145 197q16 22 35 22t35 -22l145 -197h139l-245 376h-148zM430 591q0 195 86 307.5t234 112.5q147 0 233 -113.5t86 -306.5 q0 -77 -15 -131.5t-40.5 -87.5t-67.5 -51.5t-87 -25t-109 -6.5q-65 0 -110.5 6.5t-87.5 25t-67 51.5t-40 87.5t-15 131.5z" />
<glyph unicode="&#xf5;" d="M236 559q0 -275 136.5 -431.5t377.5 -156.5q240 0 377 156.5t137 431.5q0 276 -137 432t-377 156q-241 0 -377.5 -156t-136.5 -432zM363 1663q-2 -25 10.5 -39t37.5 -14h25q46 0 52 49q4 43 17 70q18 36 56 36q26 0 68 -39l57 -55q68 -61 139 -61q82 0 131.5 59.5 t60.5 169.5q2 25 -10.5 39t-37.5 14h-25q-46 0 -52 -49q-4 -44 -17 -69q-18 -37 -56 -37q-26 0 -68 39l-57 55q-68 61 -139 61q-82 0 -131.5 -59.5t-60.5 -169.5zM430 591q0 195 86 307.5t234 112.5q147 0 233 -113.5t86 -306.5q0 -77 -15 -131.5t-40.5 -87.5t-67.5 -51.5 t-87 -25t-109 -6.5q-65 0 -110.5 6.5t-87.5 25t-67 51.5t-40 87.5t-15 131.5z" />
<glyph unicode="&#xf6;" d="M236 559q0 -275 136.5 -431.5t377.5 -156.5q240 0 377 156.5t137 431.5q0 276 -137 432t-377 156q-241 0 -377.5 -156t-136.5 -432zM371 1400q0 -50 50 -50h118q50 0 50 50v117q0 50 -50 50h-118q-50 0 -50 -50v-117zM430 591q0 195 86 307.5t234 112.5q147 0 233 -113.5 t86 -306.5q0 -77 -15 -131.5t-40.5 -87.5t-67.5 -51.5t-87 -25t-109 -6.5q-65 0 -110.5 6.5t-87.5 25t-67 51.5t-40 87.5t-15 131.5zM790 1400q0 -50 50 -50h118q50 0 50 50v117q0 50 -50 50h-118q-50 0 -50 -50v-117z" />
<glyph unicode="&#xf7;" d="M84 567q0 -50 50 -50h1232q50 0 50 50v120q0 50 -50 50h-1232q-50 0 -50 -50v-120zM602 100q0 -50 50 -50h196q50 0 50 50v195q0 50 -50 50h-196q-50 0 -50 -50v-195zM602 949q0 -50 50 -50h196q50 0 50 50v196q0 24 -11.5 32t-38.5 8h-196q-27 0 -38.5 -8t-11.5 -32 v-196z" />
<glyph unicode="&#xf8;" d="M236 559q0 276 136.5 432t377.5 156q54 0 97 -7l102 293q13 42 57 40l49 -2q27 -1 38.5 -16t3.5 -41l-97 -324q127 -66 195.5 -202t68.5 -329q0 -275 -137 -431.5t-377 -156.5q-38 0 -83 5l-39 -132q-13 -41 -57 -40l-127 4q-27 1 -37.5 16.5t-2.5 41.5l63 180 q-112 71 -171.5 202t-59.5 311zM430 591q0 -118 32.5 -183t98.5 -92l240 691q-21 4 -51 4q-148 0 -234 -112.5t-86 -307.5zM761 289q78 1 129.5 12.5t94.5 43t63.5 92.5t20.5 154q0 227 -116 341z" />
<glyph unicode="&#xf9;" d="M276 442q0 -231 100 -351t293 -120q183 0 302 126q24 26 39.5 20t12.5 -40v-26q-2 -25 10.5 -38.5t37.5 -12.5l76 3q50 2 51 50l18 1020q1 24 -12 37.5t-37 12.5l-98 -3q-50 -2 -51 -49l-18 -426q-10 -167 -92.5 -260.5t-229.5 -93.5q-121 0 -179.5 78t-68.5 240v461 q0 50 -50 50h-54q-50 0 -50 -50v-628zM456 2006q-10 -17 4 -43l154 -279q19 -35 59 -35h157q31 0 40 17.5t-10 43.5l-213 283q-23 30 -61 30h-91q-29 0 -39 -17z" />
<glyph unicode="&#xfa;" d="M276 442q0 -231 100 -351t293 -120q183 0 302 126q24 26 39.5 20t12.5 -40v-26q-2 -25 10.5 -38.5t37.5 -12.5l76 3q50 2 51 50l18 1020q1 24 -12 37.5t-37 12.5l-98 -3q-50 -2 -51 -49l-18 -426q-10 -167 -92.5 -260.5t-229.5 -93.5q-121 0 -179.5 78t-68.5 240v461 q0 50 -50 50h-54q-50 0 -50 -50v-628zM710.5 1646q8.5 -18 40.5 -18h57q37 0 61 28l286 329q21 24 12.5 42.5t-40.5 18.5h-102q-38 0 -61 -30l-243 -327q-19 -25 -10.5 -43z" />
<glyph unicode="&#xfb;" d="M276 442q0 -231 100 -351t293 -120q183 0 302 126q24 26 39.5 20t12.5 -40v-26q-2 -25 10.5 -38.5t37.5 -12.5l76 3q50 2 51 50l18 1020q1 24 -12 37.5t-37 12.5l-98 -3q-50 -2 -51 -49l-18 -426q-10 -167 -92.5 -260.5t-229.5 -93.5q-121 0 -179.5 78t-68.5 240v461 q0 50 -50 50h-54q-50 0 -50 -50v-628zM438 1227h139l145 197q16 22 35 22t35 -22l145 -197h139l-245 376h-148z" />
<glyph unicode="&#xfc;" d="M276 442q0 -231 100 -351t293 -120q183 0 302 126q24 26 39.5 20t12.5 -40v-26q-2 -25 10.5 -38.5t37.5 -12.5l76 3q50 2 51 50l18 1020q1 24 -12 37.5t-37 12.5l-98 -3q-50 -2 -51 -49l-18 -426q-10 -167 -92.5 -260.5t-229.5 -93.5q-121 0 -179.5 78t-68.5 240v461 q0 50 -50 50h-54q-50 0 -50 -50v-628zM438 1400q0 -50 50 -50h118q50 0 50 50v117q0 50 -50 50h-118q-50 0 -50 -50v-117zM857 1400q0 -50 50 -50h118q50 0 50 50v117q0 50 -50 50h-118q-50 0 -50 -50v-117z" />
<glyph unicode="&#xfd;" d="M208 -353v-144q0 -50 50 -50h117q248 0 446 443l450 1166q10 26 -1 42t-39 16h-92q-40 0 -58 -37l-256 -548q-14 -28 -33 -29t-36 25l-338 555q-20 34 -59 34h-91q-29 0 -39.5 -16.5t1.5 -42.5l436 -934q16 -34 -1 -68l-48 -98q-12 -24 -33 -51q-5 -7 -31 -39.5 t-39.5 -48.5t-40.5 -44t-46 -42.5t-44 -26.5t-47 -12h-78q-50 0 -50 -50zM613.5 1646q8.5 -18 40.5 -18h57q37 0 61 28l286 329q21 24 12.5 42.5t-40.5 18.5h-102q-38 0 -61 -30l-243 -327q-19 -25 -10.5 -43z" />
<glyph unicode="&#xfe;" d="M259 -466q0 -50 50 -50h85q52 0 50 50l-10 543q-1 34 14.5 38.5t38.5 -21.5q110 -123 305 -123q204 0 331.5 162.5t127.5 425.5t-127.5 425.5t-331.5 162.5q-195 0 -305 -123q-15 -17 -27 -21t-19 5.5t-7 32.5v465q0 50 -50 50h-85q-25 0 -36 -13t-4 -37v-1972zM434 559 q0 203 83.5 318.5t229.5 115.5t229.5 -115.5t83.5 -318.5q0 -99 -20.5 -163.5t-64 -98t-96.5 -45.5t-132 -12t-132 12t-96.5 45.5t-64 98t-20.5 163.5z" />
<glyph unicode="&#xff;" d="M208 -353v-144q0 -50 50 -50h117q248 0 446 443l450 1166q10 26 -1 42t-39 16h-92q-40 0 -58 -37l-256 -548q-14 -28 -33 -29t-36 25l-338 555q-20 34 -59 34h-91q-29 0 -39.5 -16.5t1.5 -42.5l436 -934q16 -34 -1 -68l-48 -98q-12 -24 -33 -51q-5 -7 -31 -39.5 t-39.5 -48.5t-40.5 -44t-46 -42.5t-44 -26.5t-47 -12h-78q-50 0 -50 -50zM341 1400q0 -50 50 -50h118q50 0 50 50v117q0 50 -50 50h-118q-50 0 -50 -50v-117zM760 1400q0 -50 50 -50h118q50 0 50 50v117q0 50 -50 50h-118q-50 0 -50 -50v-117z" />
<glyph unicode="&#x152;" d="M-105 748q0 -368 223.5 -558t657.5 -190h779q50 0 50 50v180q0 50 -50 50h-424q-50 0 -50 50v401q0 50 50 50h395q50 0 50 50v70q0 50 -50 50h-395q-50 0 -50 50v312q0 50 50 50h406q50 0 50 50v30q0 50 -50 50h-761q-433 0 -657 -189.5t-224 -555.5zM108 748 q0 323 157.5 469t484.5 146h79q50 0 50 -50v-983q0 -50 -50 -50h-79q-155 0 -280 39t-202.5 105.5t-118.5 149.5t-41 174z" />
<glyph unicode="&#x153;" d="M3 559q0 -134 33.5 -246t90.5 -186t132 -115t158 -41q106 0 193.5 44.5t133.5 129.5q12 22 32 22.5t36 -20.5q61 -83 164 -129.5t194 -46.5q57 0 103 8t76.5 18.5t105.5 38.5q39 16 39 58v197q0 28 -16.5 38t-42.5 -2q-9 -4 -34 -15t-31.5 -14t-25.5 -11t-26 -10t-23 -7 t-25.5 -6t-25 -3.5t-31 -3t-33.5 -0.5q-108 0 -169 27.5t-98 105t-49 222.5q-2 26 10.5 40t37.5 14h535q50 0 50 50v40q0 41 -15 91.5t-46 103.5t-72.5 96.5t-101 71.5t-125.5 28q-115 0 -188.5 -42t-139.5 -133q-15 -21 -35 -21t-32 23q-43 83 -131 128t-194 45 q-73 0 -145.5 -41t-133 -114t-98 -186.5t-37.5 -246.5zM194 623q0 175 69 284t154 109q127 0 208 -106.5t81 -286.5q0 -177 -79 -267.5t-210 -90.5q-39 0 -77 22t-71.5 64t-54 113t-20.5 159zM878.5 815q-11.5 16 1.5 41q19 35 31 53.5t36 47.5t48 44.5t61.5 27.5t82.5 12 q56 0 123 -60t96 -127q10 -23 -2.5 -38.5t-40.5 -16.5h-396q-29 0 -40.5 16z" />
<glyph unicode="&#x178;" d="M147.5 1476.5q-10.5 -16.5 2.5 -42.5l444 -894q15 -29 15 -62v-428q0 -50 50 -50h173q50 0 50 50v428q0 33 15 62l453 894q13 26 3 42.5t-39 16.5h-111q-40 0 -59 -35l-358 -665q-14 -27 -34 -27t-34 27l-361 665q-19 35 -59 35h-111q-29 0 -39.5 -16.5zM430 1773 q0 -50 50 -50h118q50 0 50 50v117q0 50 -50 50h-118q-50 0 -50 -50v-117zM849 1773q0 -50 50 -50h118q50 0 50 50v117q0 50 -50 50h-118q-50 0 -50 -50v-117z" />
<glyph unicode="&#x2c6;" d="M431 1262h139l145 197q16 22 35 22t35 -22l145 -197h139l-245 376h-148z" />
<glyph unicode="&#x2dc;" d="M423 1362q-2 -25 10.5 -39t37.5 -14h25q46 0 52 49q4 43 17 70q18 36 56 36q26 0 68 -39l57 -55q68 -61 139 -61q82 0 131.5 59.5t60.5 169.5q2 25 -10.5 39t-37.5 14h-25q-46 0 -52 -49q-4 -44 -17 -69q-18 -37 -56 -37q-26 0 -68 39l-57 55q-68 61 -139 61 q-82 0 -131.5 -59.5t-60.5 -169.5z" />
<glyph unicode="&#x2000;" horiz-adv-x="1209" />
<glyph unicode="&#x2001;" horiz-adv-x="2419" />
<glyph unicode="&#x2002;" horiz-adv-x="1209" />
<glyph unicode="&#x2003;" horiz-adv-x="2419" />
<glyph unicode="&#x2004;" horiz-adv-x="806" />
<glyph unicode="&#x2005;" horiz-adv-x="604" />
<glyph unicode="&#x2006;" horiz-adv-x="403" />
<glyph unicode="&#x2007;" horiz-adv-x="403" />
<glyph unicode="&#x2008;" horiz-adv-x="302" />
<glyph unicode="&#x2009;" horiz-adv-x="483" />
<glyph unicode="&#x200a;" horiz-adv-x="134" />
<glyph unicode="&#x2010;" d="M475 533l12 75q7 45 53 46l438 8q26 1 38.5 -13t8.5 -40l-12 -75q-7 -46 -53 -47l-438 -7q-26 -1 -38.5 13t-8.5 40z" />
<glyph unicode="&#x2011;" d="M475 533l12 75q7 45 53 46l438 8q26 1 38.5 -13t8.5 -40l-12 -75q-7 -46 -53 -47l-438 -7q-26 -1 -38.5 13t-8.5 40z" />
<glyph unicode="&#x2012;" d="M475 533l12 75q7 45 53 46l438 8q26 1 38.5 -13t8.5 -40l-12 -75q-7 -46 -53 -47l-438 -7q-26 -1 -38.5 13t-8.5 40z" />
<glyph unicode="&#x2013;" d="M238 539q0 -50 50 -50h924q50 0 50 50v44q0 50 -50 50h-924q-50 0 -50 -50v-44z" />
<glyph unicode="&#x2014;" d="M-274 539q0 -50 50 -50h1948q50 0 50 50v44q0 50 -50 50h-1948q-50 0 -50 -50v-44z" />
<glyph unicode="&#x2018;" d="M576 964q0 -50 50 -50h160q50 0 50 50v131q0 32 8 61l78 307q7 26 -5 41t-38 15h-61q-42 0 -59 -36l-168 -328q-15 -29 -15 -62v-129z" />
<glyph unicode="&#x2019;" d="M581 995q-7 -26 5 -41t38 -15h59q40 0 59 36l165 321q15 29 15 62v102q0 50 -50 50h-156q-50 0 -50 -50v-104q0 -32 -8 -61z" />
<glyph unicode="&#x201a;" d="M612 -182q-7 -26 5 -41t38 -15h32q41 0 58 36l131 255q15 29 15 62v89q0 50 -50 50h-111q-50 0 -50 -50v-91q0 -32 -8 -61z" />
<glyph unicode="&#x201c;" d="M319 931q0 -50 50 -50h162q50 0 50 50v134q0 32 8 61l80 311q7 26 -5 41t-38 15h-63q-40 0 -59 -36l-170 -332q-15 -29 -15 -62v-132zM829 931q0 -50 50 -50h162q50 0 50 50v134q0 32 8 61l80 311q7 26 -5 41t-38 15h-63q-40 0 -59 -36l-170 -332q-15 -29 -15 -62v-132z " />
<glyph unicode="&#x201d;" d="M350 977q-7 -26 5 -41t38 -15h53q41 0 58 36l158 307q15 29 15 62v117q0 50 -50 50h-146q-50 0 -50 -50v-119q0 -32 -8 -61zM826 977q-7 -26 5 -41t39 -15h52q41 0 58 36l158 307q15 29 15 62v117q0 50 -50 50h-145q-50 0 -50 -50v-119q0 -32 -8 -61z" />
<glyph unicode="&#x201e;" d="M317 -182q-7 -26 5 -41t38 -15h65q41 0 58 36l173 337q15 29 15 62v133q0 50 -50 50h-165q-50 0 -50 -50v-135q0 -32 -8 -61zM832 -182q-7 -26 5 -41t38 -15h65q41 0 58 36l173 337q15 29 15 62v133q0 50 -50 50h-165q-50 0 -50 -50v-135q0 -32 -8 -61z" />
<glyph unicode="&#x2022;" d="M453 762q0 -125 86 -211t211 -86t211 86t86 211q0 124 -85.5 209.5t-209.5 85.5q-126 0 -212.5 -85.5t-86.5 -209.5z" />
<glyph unicode="&#x2026;" d="M-93 50q0 -50 50 -50h223q50 0 50 50v264q0 50 -50 50h-223q-50 0 -50 -50v-264zM589 50q0 -50 50 -50h222q50 0 50 50v264q0 50 -50 50h-222q-50 0 -50 -50v-264zM1270 50q0 -50 50 -50h223q50 0 50 50v264q0 50 -50 50h-223q-50 0 -50 -50v-264z" />
<glyph unicode="&#x202f;" horiz-adv-x="483" />
<glyph unicode="&#x2039;" d="M516 596q0 -37 28 -62l380 -338q24 -22 42.5 -13.5t18.5 40.5v72q0 36 -27 62l-234 208q-41 35 0 70l234 208q27 26 27 62v72q0 32 -18.5 40.5t-42.5 -13.5l-380 -338q-28 -25 -28 -62v-8z" />
<glyph unicode="&#x203a;" d="M516 223q0 -32 18.5 -40.5t42.5 13.5l380 338q28 25 28 62v8q0 37 -28 62l-380 338q-24 22 -42.5 13.5t-18.5 -40.5v-72q0 -36 27 -62l234 -208q41 -35 0 -70l-234 -208q-27 -26 -27 -62v-72z" />
<glyph unicode="&#x205f;" horiz-adv-x="604" />
<glyph unicode="&#x20ac;" d="M178 537l22 65q15 41 57 41h46q50 0 50 47q-1 15 -1 55q0 42 1 58q-2 47 -50 47h-80q-28 0 -38.5 16.5t0.5 42.5l12 26q18 38 58 38h69q45 0 54 46q49 237 201 369t377 132q181 0 340 -119q30 -22 30 -61v-38q0 -34 -18 -40.5t-43 17.5q-72 69 -144 100t-157 31 q-140 0 -239.5 -105t-140.5 -277q-6 -25 6.5 -40t38.5 -15h457q28 0 38.5 -16.5t-0.5 -42.5l-12 -26q-18 -38 -58 -38h-448q-50 0 -52 -48v-111q2 -48 52 -48h337q27 0 38 -15.5t2 -41.5l-22 -65q-15 -41 -57 -41h-257q-29 0 -40.5 -16.5t2.5 -41.5q47 -77 139.5 -139 t205.5 -62q86 0 158 31.5t152 103.5q26 23 44 16t18 -40v-179q0 -38 -30 -61q-164 -121 -340 -121q-220 0 -373 128.5t-195 334.5q-9 46 -54 46h-115q-28 0 -39 15.5t-2 41.5z" />
<glyph unicode="&#x2122;" d="M80 1446q0 -47 50 -47h99q52 0 49 -52l-24 -380q-3 -52 49 -52h70q52 0 49 52l-24 380q-3 52 49 52h101q50 0 50 47t-50 47h-418q-50 0 -50 -47zM685 967q-5 -52 48 -52h70q52 0 49 52l-16 261q-2 36 20 41.5t36 -27.5l100 -238q16 -38 58 -38h11q42 0 58 39l92 229 q13 33 35.5 28t20.5 -40l-16 -255q-3 -52 49 -52h70q51 0 49 51l-16 478q-2 49 -51 49h-81q-40 0 -59 -35l-120 -225q-15 -28 -34.5 -28t-33.5 28l-113 224q-17 36 -59 36h-83q-48 0 -51 -48z" />
<glyph unicode="&#xe000;" horiz-adv-x="1120" d="M0 0v1120h1120v-1120h-1120z" />
</font>
</defs>
</svg>
